<svg width="19" height="19" viewBox="0 0 19 19" fill="none" xmlns="http://www.w3.org/2000/svg">
<path d="M9.5 13.4582C9.17225 13.4582 8.90625 13.1922 8.90625 12.8644V0.593741C8.90625 0.265995 9.17225 0 9.5 0C9.82775 0 10.0938 0.265995 10.0938 0.593741V12.8644C10.0938 13.1922 9.82775 13.4582 9.5 13.4582Z" fill="#0052B4"/>
<path d="M9.49997 13.4581C9.3479 13.4581 9.19599 13.4003 9.08031 13.2839L5.9137 10.1174C5.68176 9.88547 5.68176 9.50946 5.9137 9.2774C6.14563 9.04547 6.52165 9.04547 6.75373 9.2774L9.50069 12.0244L12.2478 9.2774C12.4797 9.04547 12.8559 9.04547 13.0878 9.2774C13.3198 9.50946 13.3198 9.88547 13.0878 10.1174L9.92107 13.2839C9.80394 13.4003 9.65203 13.4581 9.49997 13.4581Z" fill="#0052B4"/>
<path d="M16.8229 19H2.17713C0.976151 19 0 18.0239 0 16.8229V13.2604C0 12.9327 0.265999 12.6667 0.59375 12.6667C0.921501 12.6667 1.1875 12.9327 1.1875 13.2604V16.8229C1.1875 17.3684 1.63165 17.8125 2.17713 17.8125H16.8229C17.3683 17.8125 17.8125 17.3684 17.8125 16.8229V13.2604C17.8125 12.9327 18.0785 12.6667 18.4062 12.6667C18.734 12.6667 19 12.9327 19 13.2604V16.8229C19 18.0239 18.0238 19 16.8229 19Z" fill="#0052B4"/>
</svg>
