<svg xmlns="http://www.w3.org/2000/svg" xmlns:xlink="http://www.w3.org/1999/xlink" width="0" height="0" style="position:absolute">
  <symbol id="angle-down" viewBox="0 0 6.7 4.1">
    <polygon points="3.4,4.1 0,0.7 0.7,0 3.4,2.6 6,0 6.7,0.7 	"/>
  </symbol>	

  <symbol id="xml" viewBox="0 0 15.38 8.7">
    <path d="M11.4955 4.88509C11.9036 5.28353 12.3343 5.65841 12.7004 6.09704C12.8621 6.29196 13.0151 6.4931 13.1322 6.71931C13.2982 
		7.04087 13.1479 7.39473 12.8596 7.41393L11.0672 7.41312C10.6049 7.45148 10.2362 7.26538 9.92608 6.94931C9.67793 6.69655 9.44813 
		6.42754 9.20951 6.16624C9.11169 6.05945 9.0093 5.95896 8.88698 5.87953C8.6423 5.72071 8.42992 5.76933 8.2901 6.02452C8.14769 6.28408 
		8.11539 6.57148 8.10141 6.86075C8.08221 7.2828 7.95463 7.39376 7.53068 7.41308C6.62465 7.45581 5.76478 7.31873 4.96598 6.86167C4.26174 
		6.45874 3.71563 5.88991 3.2403 5.24594C2.31483 3.99199 1.6061 2.6141 0.969117 1.19761C0.825738 0.878476 0.930594 0.707165 1.28272 
		0.701102C1.86743 0.689743 2.45206 0.690552 3.03746 0.700294C3.27511 0.70377 3.43243 0.840075 3.52419 1.06458C3.84054 1.84244 4.22763 
		2.58249 4.71351 3.26847C4.8429 3.45109 4.97484 3.63372 5.16272 3.76227C5.37057 3.9046 5.52883 3.85742 5.62661 3.62588C5.68866 3.47907
		5.71582 3.32093 5.72981 3.16369C5.77613 2.62271 5.78224 2.08267 5.70099 1.54359C5.65111 1.20715 5.46161 0.989356 5.1259 0.92569C4.95459 
		0.893231 4.98009 0.829484 5.06304 0.731702C5.20711 0.563059 5.3426 0.458081 5.61271 0.458081H7.63832C7.95722 0.521019 8.02804 0.664277 
		 8.0717 0.985152L8.07343 3.2352C8.06996 3.35942 8.13548 3.72803 8.35922 3.81025C8.53829 3.86878 8.65633 3.72552 8.76377 3.61198C9.24876 
		 3.09723 9.5949 2.48891 9.90413 1.85901C10.0414 1.58203 10.1594 1.29439 10.2737 1.00698C10.3584 0.79371 10.4914 0.688773 10.7316 0.693422L12.6812 
		 0.69516C12.739 0.69516 12.7975 0.696009 12.8534 0.705589C13.182 0.761574 13.272 0.902892 13.1705 1.22369C13.0107 1.72699 12.6996 2.14641 12.3955 
		 2.56778C12.0703 3.01764 11.7226 3.45211 11.4002 3.90464C11.104 4.31788 11.1275 4.52618 11.4955 4.88509Z"/>
	</symbol>

  <symbol id="fb-o" viewBox="0 0 8 14.09">

   <path d="M5.45374 3.09952H6.57681V1.00326C6.38305 0.974699 5.71669 0.910427 4.94064 0.910427C3.32139 0.910427 2.21216 2.00195 2.21216 4.00812V5.85444H0.425293V8.1979H2.21216V14.0945H4.40294V8.19845H6.11753L6.38972 5.85499H4.40243V4.24049C4.40294 3.56316 4.57312 3.09952 5.45374 3.09952Z" />

	</symbol>
  


  <symbol id="in-o" viewBox="0 0 32 32">
	  <path d="M26.4698 7.45717C26.4698 8.51695 25.6102 9.37625 24.5498 9.37625C23.4897 9.37625 22.6301 8.51695 22.6301 7.45717C22.6301 6.39714 23.4897 5.53809 24.5498 5.53809C25.6102 5.53809 26.4698 6.39714 26.4698 7.45717V7.45717Z"></path>
	  <path d="M16.0077 7.7832C11.4686 7.7832 7.78577 11.4651 7.78577 16.0036C7.78577 20.5421 11.4686 24.224 16.0077 24.224C20.5471 24.224 24.2297 20.5421 24.2297 16.0036C24.2297 11.4651 20.5471 7.7832 16.0077 7.7832ZM16.0077 21.3359C13.063 21.3359 10.6743 18.948 10.6743 16.0036C10.6743 13.0592 13.063 10.6712 16.0077 10.6712C18.9527 10.6712 21.3411 13.0592 21.3411 16.0036C21.3411 18.948 18.9527 21.3359 16.0077 21.3359V21.3359Z" ></path>
	  <path d="M31.9187 9.40812C31.8437 7.70783 31.5687 6.53889 31.1747 5.526C30.7683 4.45083 30.1431 3.48824 29.3239 2.68803C28.5235 1.87537 27.5544 1.2439 26.4915 0.843917C25.4726 0.45004 24.3095 0.175084 22.6089 0.100117C20.8956 0.0188025 20.3517 0 16.0062 0C11.6608 0 11.1169 0.0188025 9.40991 0.0937686C7.7093 0.168735 6.54014 0.443936 5.5273 0.837569C4.45168 1.2439 3.48891 1.86902 2.68855 2.68803C1.87573 3.48824 1.24438 4.45718 0.844078 5.51989C0.450126 6.53889 0.175117 7.70148 0.100137 9.40177C0.0188061 11.1148 0 11.6586 0 16.0032C0 20.3478 0.0188061 20.8916 0.0937865 22.5982C0.168767 24.2985 0.44402 25.4675 0.837972 26.4803C1.24438 27.5555 1.87573 28.5181 2.68855 29.3183C3.48891 30.131 4.45803 30.7624 5.52095 31.1624C6.54014 31.5563 7.70295 31.8313 9.40381 31.9062C11.1105 31.9814 11.6547 32 16.0001 32C20.3456 32 20.8895 31.9814 22.5964 31.9062C24.2971 31.8313 25.4662 31.5563 26.4791 31.1624C28.63 30.331 30.3306 28.6307 31.1623 26.4803C31.556 25.4613 31.8312 24.2985 31.9062 22.5982C31.9812 20.8916 32 20.3478 32 16.0032C32 11.6586 31.9936 11.1148 31.9187 9.40812ZM29.0364 22.4732C28.9676 24.036 28.705 24.8799 28.4862 25.4425C27.9484 26.8366 26.8417 27.943 25.4474 28.4807C24.8847 28.6995 24.0345 28.962 22.4775 29.0307C20.7893 29.1059 20.283 29.1244 16.0126 29.1244C11.7421 29.1244 11.2295 29.1059 9.54742 29.0307C7.98431 28.962 7.14023 28.6995 6.57751 28.4807C5.88364 28.2243 5.25204 27.818 4.73939 27.2867C4.20794 26.7678 3.80153 26.1426 3.54508 25.4489C3.32625 24.8863 3.06369 24.036 2.99506 22.4796C2.91984 20.7917 2.90128 20.2853 2.90128 16.0156C2.90128 11.746 2.91984 11.2334 2.99506 9.55194C3.06369 7.98913 3.32625 7.14522 3.54508 6.5826C3.80153 5.88862 4.20794 5.25739 4.74574 4.74459C5.2645 4.21324 5.88974 3.80691 6.58386 3.55075C7.14658 3.33196 7.99701 3.06946 9.55377 3.0006C11.2419 2.92563 11.7485 2.90683 16.0187 2.90683C20.2955 2.90683 20.8018 2.92563 22.4838 3.0006C24.047 3.06946 24.891 3.33196 25.4538 3.55075C26.1476 3.80691 26.7792 4.21324 27.2919 4.74459C27.8233 5.2635 28.2297 5.88862 28.4862 6.5826C28.705 7.14522 28.9676 7.99524 29.0364 9.55194C29.1114 11.2398 29.1302 11.746 29.1302 16.0156C29.1302 20.2853 29.1114 20.7854 29.0364 22.4732Z"></path>


	</symbol>
	
  
  <symbol id="tw-o" viewBox="0 0 12.61 10.09">
    <path d="M13.4343 1.28115C12.9654 1.48366 12.4658 1.6179 11.9449 1.68308C12.4807 1.36805 12.8897 0.873015 13.082 0.276333C12.5824 0.569631 12.0308 0.776801 11.4429 0.892413C10.9685 0.395049 10.2923 0.0870085 9.55472 0.0870085C8.12363 0.0870085 6.97151 1.23071 6.97151 2.6328C6.97151 2.83454 6.98885 3.02852 7.0314 3.21319C4.88241 3.10999 2.98086 2.09586 1.70344 0.551009C1.48043 0.931985 1.34961 1.36805 1.34961 1.83748C1.34961 2.71893 1.81062 3.50028 2.49779 3.95264C2.08249 3.94488 1.67507 3.82617 1.32991 3.63917C1.32991 3.64693 1.32991 3.65702 1.32991 3.6671C1.32991 4.90392 2.22591 5.93124 3.40089 6.16789C3.19048 6.22453 2.96116 6.25169 2.72317 6.25169C2.55768 6.25169 2.39062 6.24238 2.2338 6.20824C2.56871 7.21616 3.51909 7.95716 4.64915 7.98122C3.76969 8.65859 2.65303 9.06673 1.44418 9.06673C1.23219 9.06673 1.02888 9.05742 0.825562 9.03181C1.97059 9.75885 3.3276 10.174 4.791 10.174C9.54763 10.174 12.1482 6.29437 12.1482 2.93153C12.1482 2.81902 12.1442 2.71039 12.1387 2.60254C12.6517 2.24407 13.0828 1.79636 13.4343 1.28115Z" />
  </symbol>


	<symbol id="close" viewBox="0 0 27 27">
    <path d="M2.1,0.7C1.4,0,0.6-0.2,0.2,0.2C-0.2,0.6,0,1.4,0.7,2.1l24.2,24.2c0.7,0.7,1.5,0.9,1.9,0.5c0.4-0.4,0.1-1.2-0.5-1.9L2.1,0.7z"/>
		<path d="M26.3,2.1c0.7-0.7,0.9-1.5,0.5-1.9c-0.4-0.4-1.2-0.1-1.9,0.5L0.7,24.9c-0.7,0.7-0.9,1.5-0.5,1.9c0.4,0.4,1.2,0.1,1.9-0.5
			L26.3,2.1z"/>
  </symbol>

		<symbol id="search" viewBox="0 0 27 27">
    <path d="M17.4291 16.5982C15.558 18.0903 13.4488 18.6875 11.0988 18.2892C9.1474 17.9583 7.54102 16.9885 6.30939 15.4295C3.6266 
		12.033 4.2363 7.35659 7.20295 4.68344C8.59203 3.42187 10.3859 2.70477 12.257 2.66306C14.1281 2.62135 15.9518 3.25779 17.3951 
		4.45623C19.0552 5.83397 20.0109 7.62391 20.2188 9.78274C20.4266 11.9416 19.8057 13.8662 18.4418 15.5813C18.7554 15.8887 19.0722
		 16.1956 19.3853 16.5062C19.8212 16.9393 20.2554 17.3739 20.6881 17.8102C21.1665 18.2914 21.6449 18.7789 22.1297 19.2574C22.5103 
		 19.6317 22.4487 20.2091 21.975 20.4593C21.7188 20.5951 21.3797 20.5785 21.0623 20.2545C20.2501 19.4258 19.4305 18.6052 18.6134 
		 17.7819C18.2516 17.4172 17.8893 17.0535 17.5264 16.6907C17.4972 16.6623 17.4679 16.6351 17.4291 16.5982ZM12.4277 16.9484C15.936 
		 16.9452 18.7974 14.0817 18.8032 10.543C18.8091 7.01443 15.9493 4.12743 12.4324 4.12101C8.92414 4.11406 6.05371 7.00801 6.0569 
		 10.5366C6.06009 14.0651 8.91458 16.9414 12.4282 16.9484H12.4277Z" />
  </symbol>


	 <symbol id="angle-down" viewBox="0 0 6.7 4.1">
    <polygon points="3.4,4.1 0,0.7 0.7,0 3.4,2.6 6,0 6.7,0.7 	"/>
  </symbol>	




</svg>


