<svg xmlns="http://www.w3.org/2000/svg" width="752pt" height="752pt" version="1.1" viewBox="0 0 752 752">
 <g>
  <path d="m454.12 345.55h39.457v-60.594h-5.918v-7.9648h-0.019531l-8.0469-7.7617h0.027344l-5.7344-5.5234h13.488v-10.711h-14.898l-4.1289 5.3789-36.926-35.586h-111.6l-36.922 35.586-4.1172-5.375h-14.91v10.711h13.488l-5.7305 5.5234h0.027344l-8.0547 7.7617h-0.007813v7.9648h-5.918l0.003906 60.59h39.457v-13.598h32.516l4.6875-9.5078h82.578l4.6875 9.5078h32.52l0.003906 13.598zm-131.7-119.39h106.41l36 36.801-0.22266 0.28906h-177.97l-0.21875-0.28906zm-37.508 73.785-9.875-18.129 41.414 15.039 4.1875 5.3281zm132 16.289h-82.578l-4.0312-8.168h90.641zm4.8633-9.8594h-92.301l-4.7227-9.582h101.74zm8.832-4.1914 4.1914-5.3281 41.41-15.039-9.8711 18.129z"/>
  <path d="m540.2 507.9v-251.96h-38.676v94.348h-47.402v13.875h47.402v143.74h-26.047v21.312h73.406v-21.312z"/>
  <path d="m250.48 255.94h-38.676v251.96h-8.6836v21.312h73.406v-21.312h-26.047v-143.74h47.398v-13.875h-47.398z"/>
 </g>
</svg>