<svg width="8" height="10" viewBox="0 0 8 10" fill="none" xmlns="http://www.w3.org/2000/svg">
<path d="M0.00104186 4.99488C0.00104186 3.71893 0.00104186 2.44298 0.00104186 1.16703C0.00254208 0.562382 0.389222 0.0979611 0.962304 0.00929548C1.01815 0.00197056 1.07443 -0.00103224 1.1307 0.000311755C3.04323 0.000311755 4.956 0.000311755 6.86903 0.000311755C7.51712 0.000311755 7.99794 0.494418 7.99869 1.16781C8.00044 3.72258 8.00044 6.27747 7.99869 8.8325C7.99869 9.50589 7.51674 9.99961 6.86865 10C4.95613 10 3.04335 10 1.13033 10C0.47886 10 0.00141684 9.50316 0.000666729 8.82235C-0.000333415 7.5464 -0.000208317 6.27057 0.00104186 4.99488ZM3.99799 1.25061C3.30739 1.25061 2.61667 1.25061 1.92582 1.25061C1.50351 1.25061 1.20646 1.5588 1.20196 1.99861C1.19996 2.19391 1.19996 2.38921 1.20196 2.58451C1.20646 3.01924 1.49826 3.3325 1.91457 3.33328C3.30527 3.33667 4.69596 3.33667 6.08666 3.33328C6.49922 3.33328 6.79101 3.0208 6.79626 2.59115C6.79852 2.40249 6.79626 2.21344 6.79626 2.02478C6.79439 1.55411 6.50222 1.25218 6.04878 1.25218L3.99799 1.25061ZM2.40514 7.06661C2.29975 6.95568 2.20898 6.85335 2.11147 6.75843C2.07363 6.71942 2.0265 6.6916 1.97493 6.67782C1.92335 6.66404 1.86918 6.66481 1.81798 6.68004C1.76679 6.69527 1.7204 6.72441 1.68359 6.76448C1.64678 6.80454 1.62087 6.85409 1.60852 6.90803C1.59557 6.96212 1.59711 7.01887 1.61298 7.07211C1.62885 7.12534 1.65844 7.17303 1.69854 7.20996C1.79155 7.30449 1.88606 7.39823 1.9847 7.499C1.87894 7.60642 1.7863 7.6986 1.69553 7.79234C1.65583 7.82973 1.62685 7.87785 1.61182 7.93136C1.59679 7.98487 1.5963 8.04167 1.6104 8.09545C1.62299 8.14951 1.64932 8.19905 1.68662 8.23887C1.72392 8.27869 1.77082 8.30733 1.8224 8.32179C1.87398 8.33625 1.92834 8.33599 1.9798 8.32105C2.03125 8.3061 2.07789 8.27702 2.11484 8.23684C2.21048 8.14115 2.29675 8.03529 2.39801 7.92124C2.51053 8.0435 2.59904 8.14779 2.69543 8.24465C2.74007 8.29116 2.79806 8.32124 2.86059 8.33034C2.92313 8.33943 2.98681 8.32704 3.04198 8.29504C3.09865 8.26564 3.14422 8.2173 3.17141 8.15775C3.19861 8.09821 3.20586 8.03089 3.192 7.96655C3.17214 7.89563 3.1367 7.83051 3.08848 7.77633C3.00785 7.67946 2.91596 7.59236 2.83195 7.50291C2.83563 7.49548 2.83976 7.4883 2.84432 7.48143C2.92759 7.39354 3.0116 7.30605 3.09486 7.21777C3.228 7.07599 3.2355 6.88381 3.11399 6.75687C2.99247 6.62992 2.80944 6.63383 2.67217 6.77523C2.58216 6.86897 2.50002 6.96506 2.40514 7.06661ZM2.10247 4.68748C2.02446 4.68748 1.9622 4.68748 1.89994 4.68748C1.82036 4.68702 1.74387 4.71949 1.68728 4.77776C1.6307 4.83603 1.59866 4.91533 1.59821 4.9982C1.59776 5.08108 1.62894 5.16074 1.6849 5.21967C1.74085 5.2786 1.81699 5.31197 1.89656 5.31244C1.96145 5.31478 2.02633 5.31244 2.10209 5.31244C2.10209 5.37962 2.10209 5.43743 2.10209 5.49485C2.10434 5.69366 2.23036 5.83545 2.40214 5.83389C2.57391 5.83232 2.69618 5.69249 2.70218 5.50071C2.70218 5.44016 2.70218 5.37962 2.70218 5.31205C2.77381 5.31205 2.8327 5.31205 2.88971 5.31205C3.06711 5.30814 3.19612 5.1769 3.1965 4.99957C3.19686 4.95807 3.18921 4.91691 3.174 4.87854C3.15879 4.84018 3.13633 4.80539 3.10796 4.77624C3.07959 4.74709 3.04588 4.72418 3.00884 4.70887C2.97179 4.69355 2.93217 4.68615 2.89233 4.68709C2.83082 4.68709 2.76931 4.68709 2.69468 4.68709C2.69986 4.60268 2.69986 4.51801 2.69468 4.43359C2.68539 4.35545 2.64779 4.28394 2.58958 4.23369C2.53137 4.18344 2.45693 4.15823 2.38147 4.16322C2.30601 4.1682 2.23523 4.20301 2.18358 4.26052C2.13194 4.31803 2.10333 4.39391 2.10359 4.47265C2.10022 4.54023 2.10247 4.60819 2.10247 4.68787V4.68748ZM5.59759 5.41438H6.07579C6.26744 5.41126 6.40133 5.28275 6.40058 5.10191C6.39983 4.92106 6.26782 4.79255 6.08216 4.78943C5.76037 4.78682 5.43857 4.78682 5.11678 4.78943C4.92925 4.78943 4.80285 4.92262 4.8036 5.10191C4.80435 5.28119 4.93262 5.40853 5.12015 5.41087C5.2788 5.41595 5.4382 5.41477 5.59722 5.41477L5.59759 5.41438ZM5.59759 7.28925C5.75699 7.28925 5.91639 7.28925 6.07579 7.28925C6.26744 7.28925 6.40133 7.15762 6.40021 6.97677C6.39908 6.79593 6.26744 6.66742 6.08179 6.6643C5.75999 6.66169 5.4382 6.66169 5.1164 6.6643C4.92887 6.6643 4.80248 6.79788 4.80323 6.97677C4.80398 7.15567 4.93225 7.28339 5.11978 7.28574C5.2788 7.29081 5.4382 7.28964 5.59759 7.28964V7.28925ZM5.60059 7.70993C5.4382 7.70993 5.2758 7.70993 5.11302 7.70993C4.93 7.71227 4.8051 7.83726 4.80285 8.01498C4.80142 8.05664 4.80816 8.09816 4.82267 8.13701C4.83718 8.17586 4.85916 8.21121 4.88725 8.24091C4.91534 8.2706 4.94895 8.29401 4.98603 8.3097C5.02311 8.32539 5.06288 8.33302 5.1029 8.33215C5.43394 8.33736 5.76512 8.33736 6.09642 8.33215C6.13652 8.33295 6.17636 8.32529 6.21355 8.30964C6.25074 8.29399 6.2845 8.27067 6.31281 8.24108C6.34112 8.21148 6.36339 8.17623 6.37828 8.13745C6.39317 8.09866 6.40038 8.05713 6.39946 8.01537C6.39721 7.84234 6.26631 7.71266 6.08741 7.70993C5.92539 7.70836 5.76299 7.71032 5.60059 7.71032V7.70993Z" fill="#0052B4"/>
</svg>
