<svg width="10" height="10" viewBox="0 0 10 10" fill="none" xmlns="http://www.w3.org/2000/svg">
<path d="M0.0152007 7.61947C0.166023 7.07251 0.306296 6.54274 0.461807 6.01765C0.488337 5.94016 0.498119 5.85791 0.490508 5.77636C0.482897 5.6948 0.458066 5.61578 0.417655 5.54453C-0.643183 3.48717 0.401244 0.934419 2.59677 0.200707C4.82628 -0.545506 7.19021 0.864876 7.5829 3.17501C7.92596 5.19487 6.61662 7.13229 4.61333 7.55384C3.67949 7.74918 2.78862 7.61283 1.95284 7.14752C1.92476 7.13268 1.89378 7.12415 1.86206 7.12253C1.83033 7.12091 1.79864 7.12624 1.7692 7.13815C1.2055 7.29442 0.641544 7.4507 0.0773271 7.60697C0.06287 7.60814 0.0476314 7.61166 0.0152007 7.61947ZM3.22936 2.92497C3.23405 2.89215 3.23835 2.86715 3.24187 2.84176C3.26111 2.71737 3.31988 2.60249 3.4095 2.51411C3.49911 2.42572 3.6148 2.36854 3.73945 2.35101C3.86409 2.33348 3.99107 2.35654 4.10159 2.41678C4.21211 2.47702 4.3003 2.57123 4.35311 2.68548C4.40385 2.79393 4.41945 2.91551 4.39774 3.03325C4.37602 3.15099 4.31807 3.25901 4.23198 3.34223C4.02333 3.54304 3.80608 3.73291 3.59431 3.93216C3.56735 3.95717 3.53179 3.99233 3.53101 4.02359C3.52554 4.24745 3.52827 4.47131 3.52827 4.69908H4.11437C4.11437 4.57524 4.1175 4.45842 4.11437 4.3416C4.11191 4.31286 4.11658 4.28395 4.12796 4.25744C4.13934 4.23093 4.15709 4.20764 4.17962 4.18963C4.32849 4.05875 4.4758 3.92513 4.6192 3.788C4.91772 3.50202 5.0408 3.15001 4.97906 2.7433C4.93649 2.47398 4.80116 2.22799 4.59645 2.04784C4.39174 1.86769 4.13053 1.76471 3.85794 1.7567C3.58536 1.74868 3.31855 1.83613 3.1036 2.00394C2.88866 2.17174 2.7391 2.40936 2.68077 2.67571C2.66319 2.75385 2.65928 2.83863 2.64873 2.92536L3.22936 2.92497ZM4.10812 5.29957H3.53296V5.87193H4.10812V5.29957Z" fill="#0E5CB8"/>
<path d="M9.98961 9.98555L9.0159 9.71675C8.84046 9.66831 8.66424 9.61596 8.4892 9.57337C8.44065 9.56313 8.39007 9.56974 8.3458 9.59212C7.59553 10.0089 6.71047 10.1109 5.88507 9.87559C5.05967 9.64029 4.36144 9.08698 3.94381 8.33724C3.92505 8.30403 3.90864 8.26926 3.88559 8.22394C5.07302 8.18487 6.09362 7.76371 6.92861 6.9292C7.76361 6.09469 8.18521 5.07304 8.2274 3.8623C8.41808 3.99045 8.60212 4.09437 8.76388 4.22603C9.61763 4.92107 10.0326 5.82316 9.99781 6.92373C9.98082 7.41697 9.8439 7.89865 9.59887 8.32708C9.5824 8.35417 9.57204 8.38454 9.56853 8.41606C9.56502 8.44757 9.56844 8.47947 9.57856 8.50953C9.71609 8.99437 9.84933 9.48 9.98961 9.98555Z" fill="#0E5CB8"/>
</svg>
