<svg width="14" height="11" viewBox="0 0 14 11" fill="none" xmlns="http://www.w3.org/2000/svg">
<path d="M13.4343 1.28115C12.9654 1.48366 12.4658 1.6179 11.9449 1.68308C12.4807 1.36805 12.8897 0.873015 13.082 0.276333C12.5824 0.569631 12.0308 0.776801 11.4429 0.892413C10.9685 0.395049 10.2923 0.0870085 9.55472 0.0870085C8.12363 0.0870085 6.97151 1.23071 6.97151 2.6328C6.97151 2.83454 6.98885 3.02852 7.0314 3.21319C4.88241 3.10999 2.98086 2.09586 1.70344 0.551009C1.48043 0.931985 1.34961 1.36805 1.34961 1.83748C1.34961 2.71893 1.81062 3.50028 2.49779 3.95264C2.08249 3.94488 1.67507 3.82617 1.32991 3.63917C1.32991 3.64693 1.32991 3.65702 1.32991 3.6671C1.32991 4.90392 2.22591 5.93124 3.40089 6.16789C3.19048 6.22453 2.96116 6.25169 2.72317 6.25169C2.55768 6.25169 2.39062 6.24238 2.2338 6.20824C2.56871 7.21616 3.51909 7.95716 4.64915 7.98122C3.76969 8.65859 2.65303 9.06673 1.44418 9.06673C1.23219 9.06673 1.02888 9.05742 0.825562 9.03181C1.97059 9.75885 3.3276 10.174 4.791 10.174C9.54763 10.174 12.1482 6.29437 12.1482 2.93153C12.1482 2.81902 12.1442 2.71039 12.1387 2.60254C12.6517 2.24407 13.0828 1.79636 13.4343 1.28115Z" fill="white" fill-opacity="0.7"/>
</svg>
