<svg width="32" height="32" viewBox="0 0 32 32" fill="none" xmlns="http://www.w3.org/2000/svg">
<g opacity="0.6">
<path d="M31.9187 9.40812C31.8437 7.70783 31.5687 6.53889 31.1747 5.526C30.7683 4.45083 30.1431 3.48824 29.3239 2.68803C28.5235 1.87537 27.5544 1.2439 26.4915 0.843917C25.4726 0.45004 24.3095 0.175084 22.6089 0.100117C20.8956 0.0188025 20.3517 0 16.0062 0C11.6608 0 11.1169 0.0188025 9.40991 0.0937686C7.7093 0.168735 6.54014 0.443936 5.5273 0.837569C4.45168 1.2439 3.48891 1.86902 2.68855 2.68803C1.87573 3.48824 1.24438 4.45718 0.844078 5.51989C0.450126 6.53889 0.175117 7.70148 0.100137 9.40177C0.0188061 11.1148 0 11.6586 0 16.0032C0 20.3478 0.0188061 20.8916 0.0937865 22.5982C0.168767 24.2985 0.44402 25.4675 0.837972 26.4803C1.24438 27.5555 1.87573 28.5181 2.68855 29.3183C3.48891 30.131 4.45803 30.7624 5.52095 31.1624C6.54014 31.5563 7.70295 31.8313 9.40381 31.9062C11.1105 31.9814 11.6547 32 16.0001 32C20.3456 32 20.8895 31.9814 22.5964 31.9062C24.2971 31.8313 25.4662 31.5563 26.4791 31.1624C28.63 30.331 30.3306 28.6307 31.1623 26.4803C31.556 25.4613 31.8312 24.2985 31.9062 22.5982C31.9812 20.8916 32 20.3478 32 16.0032C32 11.6586 31.9936 11.1148 31.9187 9.40812ZM29.0364 22.4732C28.9676 24.036 28.705 24.8799 28.4862 25.4425C27.9484 26.8366 26.8417 27.943 25.4474 28.4807C24.8847 28.6995 24.0345 28.962 22.4775 29.0307C20.7893 29.1059 20.283 29.1244 16.0126 29.1244C11.7421 29.1244 11.2295 29.1059 9.54742 29.0307C7.98431 28.962 7.14023 28.6995 6.57751 28.4807C5.88364 28.2243 5.25204 27.818 4.73939 27.2867C4.20794 26.7678 3.80153 26.1426 3.54508 25.4489C3.32625 24.8863 3.06369 24.036 2.99506 22.4796C2.91984 20.7917 2.90128 20.2853 2.90128 16.0156C2.90128 11.746 2.91984 11.2334 2.99506 9.55194C3.06369 7.98913 3.32625 7.14522 3.54508 6.5826C3.80153 5.88862 4.20794 5.25739 4.74574 4.74459C5.2645 4.21324 5.88974 3.80691 6.58386 3.55075C7.14658 3.33196 7.99701 3.06946 9.55377 3.0006C11.2419 2.92563 11.7485 2.90683 16.0187 2.90683C20.2955 2.90683 20.8018 2.92563 22.4838 3.0006C24.047 3.06946 24.891 3.33196 25.4538 3.55075C26.1476 3.80691 26.7792 4.21324 27.2919 4.74459C27.8233 5.2635 28.2297 5.88862 28.4862 6.5826C28.705 7.14522 28.9676 7.99524 29.0364 9.55194C29.1114 11.2398 29.1302 11.746 29.1302 16.0156C29.1302 20.2853 29.1114 20.7854 29.0364 22.4732Z" fill="white" fill-opacity="0.7"/>
<path d="M16.0077 7.7832C11.4686 7.7832 7.78577 11.4651 7.78577 16.0036C7.78577 20.5421 11.4686 24.224 16.0077 24.224C20.5471 24.224 24.2297 20.5421 24.2297 16.0036C24.2297 11.4651 20.5471 7.7832 16.0077 7.7832ZM16.0077 21.3359C13.063 21.3359 10.6743 18.948 10.6743 16.0036C10.6743 13.0592 13.063 10.6712 16.0077 10.6712C18.9527 10.6712 21.3411 13.0592 21.3411 16.0036C21.3411 18.948 18.9527 21.3359 16.0077 21.3359V21.3359Z" fill="white" fill-opacity="0.7"/>
<path d="M26.4698 7.45717C26.4698 8.51695 25.6102 9.37625 24.5498 9.37625C23.4897 9.37625 22.6301 8.51695 22.6301 7.45717C22.6301 6.39714 23.4897 5.53809 24.5498 5.53809C25.6102 5.53809 26.4698 6.39714 26.4698 7.45717V7.45717Z" fill="white" fill-opacity="0.7"/>
</g>
</svg>
