<svg width="14" height="8" viewBox="0 0 14 8" fill="none" xmlns="http://www.w3.org/2000/svg">
<path fill-rule="evenodd" clip-rule="evenodd" d="M11.4955 4.88509C11.9036 5.28353 12.3343 5.65841 12.7004 6.09704C12.8621 6.29196 13.0151 6.4931 13.1322 6.71931C13.2982 7.04087 13.1479 7.39473 12.8596 7.41393L11.0672 7.41312C10.6049 7.45148 10.2362 7.26538 9.92608 6.94931C9.67793 6.69655 9.44813 6.42754 9.20951 6.16624C9.11169 6.05945 9.0093 5.95896 8.88698 5.87953C8.6423 5.72071 8.42992 5.76933 8.2901 6.02452C8.14769 6.28408 8.11539 6.57148 8.10141 6.86075C8.08221 7.2828 7.95463 7.39376 7.53068 7.41308C6.62465 7.45581 5.76478 7.31873 4.96598 6.86167C4.26174 6.45874 3.71563 5.88991 3.2403 5.24594C2.31483 3.99199 1.6061 2.6141 0.969117 1.19761C0.825738 0.878476 0.930594 0.707165 1.28272 0.701102C1.86743 0.689743 2.45206 0.690552 3.03746 0.700294C3.27511 0.70377 3.43243 0.840075 3.52419 1.06458C3.84054 1.84244 4.22763 2.58249 4.71351 3.26847C4.8429 3.45109 4.97484 3.63372 5.16272 3.76227C5.37057 3.9046 5.52883 3.85742 5.62661 3.62588C5.68866 3.47907 5.71582 3.32093 5.72981 3.16369C5.77613 2.62271 5.78224 2.08267 5.70099 1.54359C5.65111 1.20715 5.46161 0.989356 5.1259 0.92569C4.95459 0.893231 4.98009 0.829484 5.06304 0.731702C5.20711 0.563059 5.3426 0.458081 5.61271 0.458081H7.63832C7.95722 0.521019 8.02804 0.664277 8.0717 0.985152L8.07343 3.2352C8.06996 3.35942 8.13548 3.72803 8.35922 3.81025C8.53829 3.86878 8.65633 3.72552 8.76377 3.61198C9.24876 3.09723 9.5949 2.48891 9.90413 1.85901C10.0414 1.58203 10.1594 1.29439 10.2737 1.00698C10.3584 0.79371 10.4914 0.688773 10.7316 0.693422L12.6812 0.69516C12.739 0.69516 12.7975 0.696009 12.8534 0.705589C13.182 0.761574 13.272 0.902892 13.1705 1.22369C13.0107 1.72699 12.6996 2.14641 12.3955 2.56778C12.0703 3.01764 11.7226 3.45211 11.4002 3.90464C11.104 4.31788 11.1275 4.52618 11.4955 4.88509Z" fill="white" fill-opacity="0.7"/>
</svg>
