<svg width="9" height="10" viewBox="0 0 9 10" fill="none" xmlns="http://www.w3.org/2000/svg">
<path d="M6.98618 10.0004H1.10313C0.918028 9.91864 0.818359 9.78635 0.818359 9.57255C0.819913 7.06273 0.819913 4.55317 0.818359 2.04387C0.818359 1.76289 0.965662 1.61523 1.24344 1.61523C1.7127 1.61523 2.18188 1.61523 2.65097 1.61523C4.04892 1.61523 5.44688 1.61523 6.84483 1.61523C6.95459 1.61523 7.05789 1.62747 7.14461 1.70247C7.25179 1.79492 7.28001 1.91497 7.27975 2.05246C7.27819 4.54249 7.2788 7.03261 7.28156 9.52282C7.28208 9.75562 7.20856 9.91812 6.98618 10.0004ZM4.10614 3.71075C3.60779 3.71075 3.10945 3.70658 2.6111 3.71465C2.52232 3.71975 2.4369 3.75059 2.36517 3.80345C2.26162 3.87975 2.23806 4.02818 2.28543 4.1498C2.33721 4.28 2.44982 4.35526 2.60696 4.35552C3.60365 4.35552 4.60034 4.35552 5.59703 4.35552C5.80413 4.35552 5.94936 4.22115 5.95092 4.03443C5.95247 3.84772 5.80465 3.71075 5.59107 3.71075C5.09644 3.71057 4.60146 3.71057 4.10614 3.71075ZM4.10614 6.93461C4.60439 6.93461 5.10274 6.93461 5.60117 6.93461C5.80672 6.93461 5.95299 6.79868 5.95169 6.6117C5.9504 6.42473 5.80361 6.29062 5.5978 6.29062C4.60439 6.29062 3.61099 6.29062 2.61758 6.29062C2.40762 6.29062 2.26653 6.42082 2.26524 6.61014C2.26395 6.80545 2.40478 6.93461 2.62094 6.93487C3.11592 6.93504 3.61099 6.93504 4.10614 6.93487V6.93461ZM4.10407 5.00055C3.60891 5.00055 3.11385 5.00055 2.61887 5.00055C2.40814 5.00055 2.26731 5.12841 2.2655 5.31851C2.26369 5.51408 2.40478 5.6448 2.62016 5.6448C3.61029 5.6448 4.60051 5.6448 5.59081 5.6448C5.62954 5.64618 5.6683 5.64294 5.70627 5.63517C5.78238 5.61654 5.84903 5.57044 5.89356 5.50563C5.93809 5.44081 5.9574 5.3618 5.94782 5.28361C5.93823 5.20541 5.90042 5.13348 5.84157 5.08149C5.78272 5.0295 5.70693 5.00106 5.62861 5.00159C5.12017 5.00055 4.61199 5.00055 4.10407 5.00055Z" fill="#0052B4"/>
<path d="M7.91992 9.01771V8.89505C7.91992 6.61022 7.91992 4.32531 7.91992 2.04031C7.91992 1.55673 7.66932 1.17366 7.24217 1.03096C7.10687 0.989055 6.96589 0.968671 6.82434 0.970545C5.22912 0.966552 3.6339 0.965684 2.03868 0.967941H1.88568C1.90872 0.857267 1.91908 0.754926 1.9517 0.660397C2.08114 0.284627 2.44849 0.0203119 2.85519 0.00182286C2.89402 1.35814e-09 2.93285 0 2.97168 0C4.62852 0 6.28535 0 7.94218 0C8.36493 0 8.70044 0.168745 8.89253 0.555713C8.95934 0.696214 8.9941 0.849954 8.99427 1.0057C9.00048 3.34591 9.0016 5.68612 8.99763 8.02633C8.99763 8.60886 8.5376 9.04505 7.95823 9.02708C7.94522 9.02505 7.9324 9.02191 7.91992 9.01771Z" fill="#0052B4"/>
</svg>
