<svg width="100%" height="100%" viewBox="0 0 54 35"  fill="black" xmlns="http://www.w3.org/2000/svg">
<path d="M3.57185 2.77193C5.25668 1.08187 7.23884 0.187134 9.71654 0.187134C12.1942 0.187134 14.1764 1.08187 15.8612 2.77193C17.5461 4.46199 18.3389 6.54971 18.3389 9.03509C18.3389 11.5205 17.5461 13.7076 15.8612 15.3977C14.2755 17.0877 12.1942 17.883 9.71654 17.883C7.23884 17.883 5.15757 17.0877 3.57185 15.3977C1.98612 13.7076 1.09415 11.6199 1.09415 9.03509C1.09415 6.54971 1.98612 4.36257 3.57185 2.77193ZM4.86025 14.1053C6.14865 15.4971 7.73438 16.193 9.61743 16.193C11.5005 16.193 13.0862 15.4971 14.3746 14.1053C15.663 12.7134 16.3568 11.0234 16.3568 9.03509C16.3568 7.04678 15.663 5.35672 14.3746 3.96491C13.0862 2.5731 11.5005 1.87719 9.61743 1.87719C7.73438 1.87719 6.14865 2.5731 4.86025 3.96491C3.57185 5.35672 2.87809 7.04678 2.87809 9.03509C2.9772 11.0234 3.57185 12.8129 4.86025 14.1053Z"/>
<path d="M24.3845 17.5848H22.6006V0.485352H24.1863L34.9891 14.5029V0.485352H36.7731V17.5848H35.2864L24.3845 3.56722V17.5848Z" />
<path d="M53.7205 17.5848H41.7284V0.485352H53.4232V2.07599H43.5124V7.54383H51.6392V9.13447H43.5124V15.8947H53.8196V17.5848H53.7205Z" />
<path d="M3.77005 34.4854C3.17541 34.4854 2.58076 34.3859 2.08522 34.2865C1.49057 34.1871 1.09414 33.9883 0.796814 33.7895V32.6959C1.68879 33.2924 2.67987 33.5906 3.77005 33.5906C4.3647 33.5906 4.86024 33.4912 5.25667 33.2924C5.65311 33.0935 5.75221 32.7953 5.75221 32.3976C5.75221 32.0994 5.554 31.8012 5.25667 31.6023C5.15757 31.5029 4.86024 31.4035 4.46381 31.3041C4.3647 31.3041 4.16649 31.2047 3.96827 31.2047C3.67095 31.1052 3.57184 31.1052 3.47273 31.1052C2.58076 30.9064 1.887 30.6082 1.49057 30.3099C1.09414 30.0117 0.89592 29.5146 0.89592 28.9181C0.89592 28.3216 1.19324 27.7251 1.68878 27.4269C2.18432 27.1286 2.97719 26.9298 3.86916 26.9298C4.95935 26.9298 5.85132 27.1286 6.54508 27.6257V28.7193C5.75221 28.2222 4.86024 27.924 3.86916 27.924C3.27451 27.924 2.77897 28.0234 2.48165 28.2222C2.18433 28.421 1.98611 28.7193 1.98611 29.0175C1.98611 29.4152 2.18432 29.614 2.58076 29.8128C2.67987 29.8128 2.77897 29.9123 2.87808 29.9123C2.97719 29.9123 3.0763 30.0117 3.1754 30.0117L3.47273 30.1111C3.67095 30.2105 3.96827 30.2105 4.16648 30.3099C5.05845 30.5088 5.75221 30.807 6.14864 31.1052C6.54507 31.4035 6.8424 31.9006 6.8424 32.4971C6.8424 33.193 6.54508 33.69 5.95043 34.0877C5.35578 34.3859 4.66203 34.4854 3.77005 34.4854Z" />
<path d="M12.1943 34.4853C11.5005 34.4853 11.005 34.2865 10.6085 33.8888C10.2121 33.4912 10.113 32.8947 10.113 32.1988V27.8245H8.32904V26.8304H10.113V24.5438H11.2032V26.8304H13.78V27.8245H11.2032V31.8011C11.2032 32.3976 11.3023 32.7953 11.5005 32.9941C11.6987 33.1929 11.996 33.3918 12.4916 33.3918C12.9871 33.3918 13.3836 33.2924 13.6809 33.0935V34.0877C13.3836 34.3859 12.888 34.4853 12.1943 34.4853Z" />
<path d="M18.3389 34.4853C17.5461 34.4853 16.8523 34.2865 16.3568 33.8888C15.7621 33.4912 15.4648 32.7953 15.4648 32.0994C15.4648 31.4035 15.7621 30.807 16.3568 30.3099C16.9514 29.9122 17.6452 29.614 18.5372 29.614C19.5282 29.614 20.4202 29.8128 21.2131 30.3099V29.614C21.2131 28.421 20.4202 27.7251 18.8345 27.7251C17.9425 27.7251 17.1497 28.0234 16.4559 28.5204V27.4269C17.1497 26.9298 18.0416 26.731 19.1318 26.731C20.1229 26.731 20.9158 26.9298 21.5104 27.4269C22.1051 27.9239 22.4024 28.6198 22.4024 29.4152V32.497C22.4024 32.7953 22.5015 32.9941 22.6006 33.1929C22.6997 33.3918 22.8979 33.3918 23.0961 33.3918C23.2943 33.3918 23.3935 33.3918 23.4926 33.2924V34.1871C23.2943 34.2865 23.0961 34.3859 22.7988 34.3859C22.4024 34.3859 22.1051 34.2865 21.9068 34.0877C21.6095 33.8888 21.5104 33.5906 21.4113 33.1929C20.5193 34.0877 19.5282 34.4853 18.3389 34.4853ZM18.6363 33.4912C19.1318 33.4912 19.6273 33.3918 20.1229 33.0935C20.6184 32.8947 20.9158 32.5965 21.2131 32.1988V31.2046C20.4202 30.7076 19.6274 30.5087 18.8345 30.5087C18.1407 30.5087 17.6452 30.6081 17.2488 30.9064C16.8523 31.2046 16.6541 31.5029 16.6541 32C16.6541 32.497 16.8523 32.8947 17.2488 33.0935C17.5461 33.3918 18.0416 33.4912 18.6363 33.4912Z"/>
<path d="M28.448 34.4853C27.7542 34.4853 27.2587 34.2865 26.8623 33.8888C26.4658 33.4912 26.3667 32.8947 26.3667 32.1988V27.8245H24.5828V26.8304H26.3667V24.5438H27.4569V26.8304H30.0337V27.8245H27.4569V31.8011C27.4569 32.3976 27.556 32.7953 27.7542 32.9941C27.9524 33.1929 28.2498 33.3918 28.7453 33.3918C29.2408 33.3918 29.6373 33.2924 29.9346 33.0935V34.0877C29.6373 34.3859 29.1417 34.4853 28.448 34.4853Z" />
<path d="M32.5114 24.9414C32.4123 24.842 32.3132 24.6432 32.3132 24.4444C32.3132 24.2455 32.4123 24.0467 32.5114 23.8479C32.7096 23.649 32.8087 23.649 33.106 23.649C33.3042 23.649 33.5025 23.7485 33.7007 23.8479C33.8989 24.0467 33.8989 24.1461 33.8989 24.4444C33.8989 24.6432 33.7998 24.842 33.7007 25.0409C33.5025 25.1403 33.4034 25.2397 33.106 25.2397C32.9078 25.2397 32.7096 25.1403 32.5114 24.9414ZM33.7007 34.3859H32.6105V27.0292H33.7007V34.3859Z" />
<path d="M37.3677 27.9239C38.0614 27.1286 39.0525 26.731 40.2418 26.731C41.4311 26.731 42.3231 27.1286 43.1159 27.9239C43.8097 28.6198 44.2061 29.614 44.2061 30.7076C44.2061 31.8011 43.8097 32.6959 43.1159 33.4912C42.3231 34.2865 41.4311 34.5848 40.2418 34.5848C39.0525 34.5848 38.1605 34.1871 37.3677 33.4912C36.6739 32.7953 36.2775 31.8011 36.2775 30.7076C36.2775 29.614 36.5748 28.7193 37.3677 27.9239ZM43.1159 30.7076C43.1159 29.9122 42.8186 29.2163 42.3231 28.6198C41.7284 28.0234 41.0347 27.8245 40.2418 27.8245C39.4489 27.8245 38.7552 28.1228 38.1605 28.6198C37.665 29.2163 37.3677 29.9122 37.3677 30.7076C37.3677 31.5029 37.665 32.1988 38.1605 32.7953C38.6561 33.3918 39.3498 33.5906 40.2418 33.5906C41.0347 33.5906 41.7284 33.2924 42.3231 32.7953C42.8186 32.1988 43.1159 31.5029 43.1159 30.7076Z" />
<path d="M47.6749 29.4152V34.386H46.5847V27.0293H47.6749V28.1228C48.4678 27.2281 49.4589 26.8304 50.6482 26.8304C51.5401 26.8304 52.2339 27.1287 52.7294 27.6258C53.225 28.1228 53.4232 28.9182 53.4232 29.9123V34.386H52.333V30.1111C52.333 28.6199 51.6392 27.8246 50.2517 27.8246C49.7562 27.8246 49.2607 28.0234 48.7651 28.3217C48.2696 28.6199 47.8731 29.0176 47.6749 29.4152Z" />
</svg>
