<svg xmlns="http://www.w3.org/2000/svg" xmlns:xlink="http://www.w3.org/1999/xlink" width="0" height="0" style="position:absolute">
  <symbol id="greyt_stoun" viewBox="0 0 43 76">
     <g clip-path="url(#clip0)">
        <path fill-rule="evenodd" clip-rule="evenodd" d="M5.1869 58.49V55.408C5.1869 54.617 4.9079 54.445 4.3689 54.445C3.8029 54.445 3.5189 54.617 3.5189 55.408V57.33C3.5189 58.447 7.9109 61.816 7.9109 63.393V66.151C7.9109 68.184 6.0359 68.774 4.3409 68.774C2.6689 68.774 0.795898 68.184 0.795898 66.151V62.561H3.5189V65.956C3.5189 66.741 3.8019 66.919 4.3689 66.919C4.9079 66.919 5.1869 66.741 5.1869 65.956V64.311C5.1869 62.125 0.795898 59.979 0.795898 57.442V55.213C0.795898 53.176 2.6689 52.584 4.3409 52.584C6.0359 52.584 7.9109 53.176 7.9109 55.213V58.49H5.1869Z" fill="black"></path>
        <path fill-rule="evenodd" clip-rule="evenodd" d="M16.6167 52.891V54.924H14.2297V68.469H11.5067V54.924H9.1167V52.891H16.6167Z" fill="black"></path>
        <path fill-rule="evenodd" clip-rule="evenodd" d="M20.722 65.953C20.722 66.74 21.001 66.916 21.568 66.916C22.107 66.916 22.392 66.74 22.392 65.953V55.408C22.392 54.617 22.107 54.445 21.568 54.445C21.002 54.445 20.722 54.617 20.722 55.408V65.953ZM17.998 55.211C17.998 53.174 19.875 52.584 21.543 52.584C23.24 52.584 25.113 53.174 25.113 55.211V66.15C25.113 68.185 23.24 68.775 21.543 68.775C19.875 68.775 17.998 68.185 17.998 66.15V55.211Z" fill="black"></path>
        <path fill-rule="evenodd" clip-rule="evenodd" d="M30.8999 52.891C32.2359 60.219 32.7259 63.26 32.9569 66.196H33.0589C33.0589 65.956 32.9829 63.198 32.9829 60.813V52.891H35.2149V68.469H31.1839C29.6449 59.063 29.3109 57.002 29.0789 55.166H28.9719C29.0009 55.385 29.0519 56.787 29.0519 57.178V68.469H26.8179V52.891H30.8999Z" fill="black"></path>
        <path fill-rule="evenodd" clip-rule="evenodd" d="M42.9487 52.891V54.924H39.6107V58.865H42.8177V60.9H39.6107V66.436H42.9997V68.469H36.8857V52.891H42.9487Z" fill="black"></path>
        <path fill-rule="evenodd" clip-rule="evenodd" d="M5.43874 39.0979V35.8809C5.43874 35.0659 5.14774 34.8829 4.59074 34.8829C4.00874 34.8829 3.71774 35.0669 3.71774 35.8809V46.7989C3.71774 47.6149 4.00874 47.7949 4.59074 47.7949C5.14774 47.7949 5.43874 47.6149 5.43874 46.7989V43.2869H4.32974V41.3629H8.25174V49.4039H6.84274L6.76674 48.3839H6.71174C6.20974 49.2649 5.27974 49.7199 4.16874 49.7199C2.84074 49.7199 0.906738 49.1109 0.906738 47.0009V35.6759C0.906738 33.5739 2.84074 32.9609 4.56474 32.9609C6.31274 32.9609 8.25074 33.5739 8.25074 35.6759V39.0979H5.43874Z" fill="black"></path>
        <path fill-rule="evenodd" clip-rule="evenodd" d="M12.6968 39.961H13.2238C14.2048 39.961 14.4148 39.506 14.4148 38.918V35.992C14.4148 35.383 13.9908 35.201 13.3578 35.201H12.6958V39.961H12.6968ZM9.88379 49.402V33.277H13.5948C15.8488 33.277 17.2258 33.959 17.2258 36.043V38.326C17.2258 39.527 16.8288 40.523 14.4448 40.752V40.797C15.7668 40.979 17.1948 41.272 17.1948 42.723C17.1948 44.877 17.1968 48.543 17.1968 49.403H14.4098C14.4178 48.516 14.4158 45.122 14.4158 43.243C14.4158 42.268 13.9918 41.93 12.6968 41.93V49.403H9.88379V49.402Z" fill="black"></path>
        <path fill-rule="evenodd" clip-rule="evenodd" d="M25.0861 33.277V35.383H21.6441V39.463H24.9531V41.564H21.6441V47.297H25.1381V49.402H18.8301V33.277H25.0861Z" fill="black"></path>
        <path fill-rule="evenodd" clip-rule="evenodd" d="M31.6519 42.924L31.0679 36.221H30.8839L30.1929 42.924H31.6519ZM28.9229 33.277H33.1359L35.2789 49.402H32.4449L31.9139 45.031H29.9319L29.3209 49.402H26.7759L28.9229 33.277Z" fill="black"></path>
        <path fill-rule="evenodd" clip-rule="evenodd" d="M42.9549 33.277V35.383H40.4899V49.402H37.6789V35.383H35.2139V33.277H42.9549Z" fill="black"></path>
        <path fill-rule="evenodd" clip-rule="evenodd" d="M42.939 27.969L42.972 0L0.916016 27.969H42.939Z" fill="#00AAE5"></path>
        <path fill-rule="evenodd" clip-rule="evenodd" d="M2.02289 74.803V73.125C2.02289 73.025 2.03889 72.812 2.04389 72.701H2.03089C2.01689 72.75 1.90189 73.033 1.80989 73.228L1.05989 74.802H0.733887V72.364H1.01089V73.983C1.01089 74.079 1.00489 74.301 0.991887 74.434H1.00589C1.03289 74.342 1.16189 74.059 1.30289 73.756L1.97289 72.364H2.30089V74.802H2.02289V74.803Z" fill="black"></path>
        <path fill-rule="evenodd" clip-rule="evenodd" d="M4.35105 74.803V73.615H3.40005V74.803H3.12305V72.365H3.40005V73.385H4.35105V72.365H4.62705V74.803H4.35105Z" fill="black"></path>
        <path fill-rule="evenodd" clip-rule="evenodd" d="M6.68882 72.596H6.00882V73.094C6.00882 73.584 5.91482 74.209 5.71182 74.57H6.68882V72.596ZM6.96482 75.506V74.805H5.47182V75.506H5.19482V74.57H5.42782C5.64282 74.183 5.74082 73.601 5.74082 72.953V72.363H6.96582V74.57H7.24282V75.506H6.96482Z" fill="black"></path>
        <path fill-rule="evenodd" clip-rule="evenodd" d="M8.59282 74.803C8.46782 75.274 8.38582 75.627 7.88782 75.627C7.82282 75.627 7.79582 75.627 7.69482 75.619V75.385C7.79082 75.395 7.80382 75.395 7.86482 75.395C8.20082 75.395 8.23582 75.104 8.30382 74.834L7.59082 72.365H7.89982L8.36082 74.08C8.39382 74.223 8.43282 74.381 8.45282 74.527C8.46882 74.373 8.49382 74.222 8.53282 74.074L8.94882 72.365H9.24182L8.59282 74.803Z" fill="black"></path>
        <path fill-rule="evenodd" clip-rule="evenodd" d="M10.5017 74.8609C9.96068 74.8609 9.70068 74.4489 9.70068 73.5859C9.70268 73.0099 9.80968 72.299 10.5427 72.299C10.9877 72.299 11.2657 72.5999 11.2827 73.0879H11.0017C10.9877 72.8029 10.8667 72.5309 10.5287 72.5309C10.1537 72.5309 9.98368 72.8509 9.98368 73.5739C9.98368 74.3219 10.1477 74.6349 10.5247 74.6349C10.8217 74.6349 11.0047 74.3869 11.0207 73.9749H11.2897C11.2767 74.4569 11.0467 74.8609 10.5017 74.8609Z" fill="black"></path>
        <path fill-rule="evenodd" clip-rule="evenodd" d="M12.7089 72.596V74.805H12.4349V72.596H11.7129V72.365H13.4249V72.596H12.7089Z" fill="black"></path>
        <path fill-rule="evenodd" clip-rule="evenodd" d="M14.7887 72.541C14.2637 72.541 14.2377 73.18 14.2377 73.559C14.2377 73.928 14.2537 74.629 14.7747 74.629C15.2907 74.629 15.3097 73.912 15.3097 73.551C15.3097 73.195 15.2767 72.541 14.7887 72.541ZM14.8237 74.857C14.5187 74.857 14.3377 74.703 14.2417 74.433C14.2477 74.527 14.2537 74.556 14.2537 74.689V75.628H13.9727V72.364H14.2337V72.506C14.2337 72.635 14.2337 72.672 14.2237 72.776C14.3097 72.477 14.5437 72.307 14.8387 72.307C15.5127 72.307 15.5967 73.008 15.5967 73.537C15.5967 74.053 15.5087 74.857 14.8237 74.857Z" fill="black"></path>
        <path fill-rule="evenodd" clip-rule="evenodd" d="M17.6088 74.803V73.125C17.6088 73.025 17.6248 72.812 17.6318 72.701H17.6178C17.6038 72.75 17.4868 73.033 17.3948 73.228L16.6488 74.802H16.3188V72.364H16.5958V73.983C16.5958 74.079 16.5918 74.301 16.5778 74.434H16.5918C16.6228 74.342 16.7438 74.059 16.8888 73.756L17.5588 72.364H17.8848V74.802H17.6088V74.803Z" fill="black"></path>
        <path fill-rule="evenodd" clip-rule="evenodd" d="M19.4857 73.5859C19.3037 73.6329 19.0737 73.6739 18.9547 73.8259C18.8917 73.8939 18.8647 74.0079 18.8647 74.1439C18.8647 74.4569 19.0067 74.6229 19.2727 74.6229C19.4467 74.6229 19.6047 74.5389 19.7077 74.3909C19.7937 74.2659 19.8207 74.1409 19.8207 73.9029V73.5889C19.8207 73.5419 19.8207 73.4639 19.8307 73.4189C19.7707 73.4859 19.6967 73.5229 19.4857 73.5859ZM20.1457 74.8179C19.9427 74.8179 19.8357 74.711 19.8357 74.507V74.4429C19.7167 74.7159 19.5137 74.8469 19.2047 74.8469C18.8007 74.8469 18.5737 74.5969 18.5737 74.1589C18.5737 73.9319 18.6437 73.7139 18.8377 73.5869C18.9317 73.5229 18.9957 73.4989 19.3087 73.4169C19.6097 73.3329 19.6697 73.3119 19.7407 73.2629C19.7997 73.2159 19.8227 73.1419 19.8227 72.9619C19.8227 72.6769 19.6977 72.5109 19.3827 72.5109C19.0037 72.5109 18.9257 72.7509 18.9177 73.0719H18.6517C18.6517 72.5819 18.8547 72.299 19.3877 72.299C19.6197 72.299 19.8017 72.3539 19.9327 72.4709C20.1087 72.6329 20.0947 72.8849 20.0947 73.1019V74.299C20.0947 74.41 20.0987 74.4649 20.1127 74.5099C20.1267 74.5689 20.1697 74.5939 20.2377 74.5939C20.2687 74.5939 20.2827 74.5939 20.3217 74.5819V74.7909C20.2517 74.8109 20.2237 74.8179 20.1457 74.8179Z" fill="black"></path>
        <path fill-rule="evenodd" clip-rule="evenodd" d="M22.1689 74.803V72.594H21.4149L21.3759 73.94C21.3559 74.698 21.1549 74.85 20.8799 74.85C20.8159 74.85 20.7179 74.834 20.6709 74.823V74.594C20.7119 74.61 20.7689 74.615 20.7919 74.615C20.9929 74.615 21.0929 74.537 21.1079 73.867L21.1489 72.365H22.4439V74.803H22.1689Z" fill="black"></path>
        <path fill-rule="evenodd" clip-rule="evenodd" d="M23.9639 73.553H23.5769V74.576H23.9359C24.2949 74.576 24.4849 74.435 24.4849 74.053C24.4859 73.703 24.3139 73.553 23.9639 73.553ZM24.0169 74.803H23.2979V72.365H23.5769V73.332H24.0319C24.4339 73.332 24.7719 73.512 24.7719 74.045C24.7729 74.547 24.4939 74.803 24.0169 74.803Z" fill="black"></path>
        <path fill-rule="evenodd" clip-rule="evenodd" d="M26.687 74.803V73.615H25.734V74.803H25.457V72.365H25.734V73.385H26.687V72.365H26.963V74.803H26.687Z" fill="black"></path>
        <path fill-rule="evenodd" clip-rule="evenodd" d="M29.527 72.365H29.804V74.803H29.527V72.365ZM28.431 73.553H28.068V74.576H28.404C28.765 74.576 28.955 74.435 28.955 74.053C28.955 73.703 28.785 73.553 28.431 73.553ZM28.478 74.803H27.79V72.365H28.067V73.332H28.495C28.903 73.332 29.239 73.512 29.239 74.045C29.24 74.547 28.957 74.803 28.478 74.803Z" fill="black"></path>
        <path fill-rule="evenodd" clip-rule="evenodd" d="M31.4099 72.035C31.0969 72.035 30.8899 71.832 30.8629 71.488H31.0469C31.0759 71.707 31.2129 71.832 31.4099 71.832C31.6129 71.832 31.7579 71.703 31.7789 71.488H31.9669C31.9449 71.824 31.7239 72.035 31.4099 72.035ZM31.9189 74.803V73.125C31.9189 73.025 31.9329 72.812 31.9409 72.701H31.9289C31.9149 72.75 31.7999 73.033 31.7059 73.228L30.9579 74.802H30.6299V72.364H30.9029V73.983C30.9029 74.079 30.8989 74.301 30.8889 74.434H30.8989C30.9299 74.342 31.0529 74.059 31.1959 73.756L31.8659 72.364H32.1939V74.802H31.9189V74.803Z" fill="black"></path>
        <path fill-rule="evenodd" clip-rule="evenodd" d="M35.6338 74.803V72.594H34.6808V74.803H34.4038V72.365H35.9078V74.803H35.6338Z" fill="black"></path>
        <path fill-rule="evenodd" clip-rule="evenodd" d="M37.5071 73.5859C37.3271 73.6329 37.0951 73.6739 36.9761 73.8259C36.9151 73.8939 36.8881 74.0079 36.8881 74.1439C36.8881 74.4569 37.0291 74.6229 37.2941 74.6229C37.4701 74.6229 37.6281 74.5389 37.7301 74.3909C37.8161 74.2659 37.8451 74.1409 37.8451 73.9029V73.5889C37.8451 73.5419 37.8451 73.4639 37.8531 73.4189C37.7931 73.4859 37.7181 73.5229 37.5071 73.5859ZM38.1681 74.8179C37.9651 74.8179 37.8571 74.711 37.8571 74.507V74.4429C37.7361 74.7159 37.5351 74.8469 37.2241 74.8469C36.8221 74.8469 36.5991 74.5969 36.5991 74.1589C36.5991 73.9319 36.6671 73.7139 36.8591 73.5869C36.9511 73.5229 37.0171 73.4989 37.3341 73.4169C37.6331 73.3329 37.6891 73.3119 37.7621 73.2629C37.8191 73.2159 37.8461 73.1419 37.8461 72.9619C37.8461 72.6769 37.7191 72.5109 37.4051 72.5109C37.0261 72.5109 36.9481 72.7509 36.9381 73.0719H36.6761C36.6761 72.5819 36.8811 72.299 37.4101 72.299C37.6421 72.299 37.8261 72.3539 37.9571 72.4709C38.1311 72.6329 38.1171 72.8849 38.1171 73.1019V74.299C38.1171 74.41 38.1231 74.4649 38.1351 74.5099C38.1491 74.5689 38.1901 74.5939 38.2601 74.5939C38.2931 74.5939 38.3071 74.5939 38.3421 74.5819L38.3441 74.7909C38.2711 74.8109 38.2461 74.8179 38.1681 74.8179Z" fill="black"></path>
        <path fill-rule="evenodd" clip-rule="evenodd" d="M39.7711 72.541C39.2441 72.541 39.2221 73.18 39.2221 73.559C39.2221 73.928 39.2361 74.629 39.7551 74.629C40.2731 74.629 40.2901 73.912 40.2901 73.551C40.2911 73.195 40.2591 72.541 39.7711 72.541ZM39.8081 74.857C39.5011 74.857 39.3181 74.703 39.2241 74.433C39.2301 74.527 39.2361 74.556 39.2361 74.689V75.628H38.9551V72.364H39.2171V72.506C39.2171 72.635 39.2171 72.672 39.2071 72.776C39.2931 72.477 39.5251 72.307 39.8221 72.307C40.4941 72.307 40.5801 73.008 40.5801 73.537C40.5801 74.053 40.4921 74.857 39.8081 74.857Z" fill="black"></path>
        <path fill-rule="evenodd" clip-rule="evenodd" d="M42.6417 74.803L41.9187 73.584L41.5617 74.061V74.803H41.2847V72.365H41.5617V73.355C41.5617 73.404 41.5577 73.648 41.5577 73.695C41.5827 73.644 41.8307 73.297 41.8937 73.213L42.5187 72.365H42.8487L42.1067 73.347L42.9697 74.802H42.6417V74.803Z" fill="black"></path>
     </g>
    
     <clipPath id="clip0">
            <rect width="42.266" height="75.629" fill="white" transform="translate(0.733887)"></rect>
     </clipPath>
 </symbol>
</svg>