<svg xmlns="http://www.w3.org/2000/svg" xmlns:xlink="http://www.w3.org/1999/xlink" width="0" height="0" style="position:absolute">
  <symbol id="map" viewBox="0 0 17.6 25">
    <path class="st0" d="M8.8,0C3.9,0,0,3.9,0,8.8c0,1.6,0.5,3.2,1.3,4.6l7,11.2C8.4,24.9,8.7,25,8.9,25c0,0,0,0,0,0
    c0.3,0,0.5-0.1,0.6-0.4l6.8-11.4c0.8-1.4,1.2-2.9,1.2-4.5C17.6,3.9,13.6,0,8.8,0z M15.1,12.5L8.9,22.9L2.6,12.6
    c-0.7-1.2-1.1-2.5-1.1-3.8c0-4,3.3-7.3,7.3-7.3c4,0,7.3,3.3,7.3,7.3C16.1,10.1,15.8,11.4,15.1,12.5z"/>
    <path class="st0" d="M8.8,4.4c-2.4,0-4.4,2-4.4,4.4c0,2.4,1.9,4.4,4.4,4.4c2.5,0,4.4-2,4.4-4.4C13.2,6.4,11.2,4.4,8.8,4.4z
      M8.8,11.7c-1.6,0-2.9-1.3-2.9-2.9c0-1.6,1.3-2.9,2.9-2.9s2.9,1.3,2.9,2.9C11.7,10.4,10.4,11.7,8.8,11.7z"/>
  </symbol>
  <symbol id="exit" viewBox="0 0 20 20" >
  <g>
	<path class="st0" d="M7,20H3c-0.8,0-1.6-0.3-2.1-0.9C0.3,18.6,0,17.8,0,17V3c0-0.8,0.3-1.6,0.9-2.1C1.4,0.3,2.2,0,3,0h4
		c0.6,0,1,0.4,1,1S7.6,2,7,2H3C2.7,2,2.5,2.1,2.3,2.3C2.1,2.5,2,2.7,2,3v14c0,0.3,0.1,0.5,0.3,0.7C2.5,17.9,2.7,18,3,18h4
		c0.6,0,1,0.4,1,1S7.6,20,7,20z"/>
  </g>
  <g>
    <path class="st0" d="M14,16c-0.3,0-0.5-0.1-0.7-0.3c-0.4-0.4-0.4-1,0-1.4l4.3-4.3l-4.3-4.3c-0.4-0.4-0.4-1,0-1.4s1-0.4,1.4,0l5,5
      c0.4,0.4,0.4,1,0,1.4l-5,5C14.5,15.9,14.3,16,14,16z"/>
  </g>
  <g>
    <path class="st0" d="M19,11H7c-0.6,0-1-0.4-1-1c0-0.6,0.4-1,1-1h12c0.6,0,1,0.4,1,1C20,10.6,19.6,11,19,11z"/>
  </g>
  </symbol>
  <symbol id="station" viewBox="0 0 18 22" >
   <path d="M15,22H3c-0.8,0-1.6-0.3-2.1-0.9C0.3,20.6,0,19.8,0,19V5c0-0.8,0.3-1.6,0.9-2.1C1.4,2.3,2.2,2,3,2h2
			c0.6,0,1,0.4,1,1S5.6,4,5,4H3C2.7,4,2.5,4.1,2.3,4.3C2.1,4.5,2,4.7,2,5v14c0,0.3,0.1,0.5,0.3,0.7C2.5,19.9,2.7,20,3,20h12
			c0.3,0,0.5-0.1,0.7-0.3S16,19.3,16,19V5c0-0.3-0.1-0.5-0.3-0.7C15.5,4.1,15.3,4,15,4h-2c-0.6,0-1-0.4-1-1s0.4-1,1-1h2
			c0.8,0,1.6,0.3,2.1,0.9C17.7,3.4,18,4.2,18,5v14c0,0.8-0.3,1.6-0.9,2.1S15.8,22,15,22z"/>
		<path  d="M12,6H6C4.9,6,4,5.1,4,4V2c0-1.1,0.9-2,2-2h6c1.1,0,2,0.9,2,2v2C14,5.1,13.1,6,12,6z M6,2v2h6V2H6z"/>
  </symbol>
  <symbol id="clock" viewBox="0 0 24 24" >
    <path  d="M2,12C2,6.5,6.5,2,12,2c5.5,0,10,4.5,10,10c0,5.5-4.5,10-10,10C6.5,22,2,17.5,2,12z M12,0C5.4,0,0,5.4,0,12
	  c0,6.6,5.4,12,12,12c6.6,0,12-5.4,12-12C24,5.4,18.6,0,12,0z M13,8c0-0.6-0.4-1-1-1s-1,0.4-1,1v4.4c0,0.3,0.2,0.6,0.4,0.8l3.3,2.2
	  c0.5,0.3,1.1,0.2,1.4-0.3c0.3-0.5,0.2-1.1-0.3-1.4L13,11.9V8z"/>
  </symbol>
  <symbol id="row" viewBox="0 0 10 5" >
  <path d="M0 0L5 5L10 0H0Z" fill="black" fill-opacity="0.54"/>
  </symbol>
  <symbol id="statem" viewBox="0 0 18 22" >
    <path class="st0" d="M15,22H3c-0.8,0-1.6-0.3-2.1-0.9C0.3,20.6,0,19.8,0,19V3c0-0.8,0.3-1.6,0.9-2.1C1.4,0.3,2.2,0,3,0h7	c0.3,0,0.5,0.1,0.7,0.3c0,0,0,0,0,0c0,0,0,0,0,0l7,7c0,0,0,0,0,0c0,0,0,0,0,0v0C17.9,7.5,18,7.7,18,8v11c0,0.8-0.3,1.6-0.9,2.1 S15.8,22,15,22z M3,2C2.7,2,2.5,2.1,2.3,2.3C2.1,2.5,2,2.7,2,3v16c0,0.3,0.1,0.5,0.3,0.7C2.5,19.9,2.7,20,3,20h12 c0.3,0,0.5-0.1,0.7-0.3S16,19.3,16,19V9h-6C9.4,9,9,8.6,9,8V2H3z M11,7h3.6L11,3.4V7z"/>
  </symbol>
  <symbol id="faq" viewBox="0 0 24 24" >
  <path class="st0" d="M3,22c-0.1,0-0.3,0-0.4-0.1C2.2,21.8,2,21.4,2,21V5c0-0.8,0.3-1.6,0.9-2.1C3.4,2.3,4.2,2,5,2h14 c0.8,0,1.6,0.3,2.1,0.9C21.7,3.4,22,4.2,22,5v10c0,0.8-0.3,1.6-0.9,2.1S19.8,18,19,18H7.4l-3.7,3.7C3.5,21.9,3.3,22,3,22z M5,4 C4.7,4,4.5,4.1,4.3,4.3C4.1,4.5,4,4.7,4,5v13.6l2.3-2.3C6.5,16.1,6.7,16,7,16h12c0.3,0,0.5-0.1,0.7-0.3S20,15.3,20,15V5 c0-0.3-0.1-0.5-0.3-0.7C19.5,4.1,19.3,4,19,4H5z"/>
  </symbol>
  <symbol id="news" viewBox="0 0 22 22" >
  <g>
  <path  d="M11,20c-0.6,0-1-0.4-1-1c0-0.5-0.2-1-0.6-1.4C9,17.2,8.5,17,8,17H1c-0.6,0-1-0.4-1-1V1c0-0.6,0.4-1,1-1h6
    c1.3,0,2.6,0.5,3.5,1.5C11.5,2.4,12,3.7,12,5v14C12,19.6,11.6,20,11,20z M2,15h6c0.7,0,1.4,0.2,2,0.5V5c0-0.8-0.3-1.6-0.9-2.1
    C8.6,2.3,7.8,2,7,2H2V15z"/>
  </g>
  <g>
  <path  d="M11,20c-0.6,0-1-0.4-1-1V5c0-1.3,0.5-2.6,1.5-3.5C12.4,0.5,13.7,0,15,0h6c0.6,0,1,0.4,1,1v15c0,0.6-0.4,1-1,1
    h-7c-0.5,0-1,0.2-1.4,0.6S12,18.5,12,19C12,19.6,11.6,20,11,20z M15,2c-0.8,0-1.6,0.3-2.1,0.9C12.3,3.4,12,4.2,12,5v10.5
    c0.6-0.3,1.3-0.5,2-0.5h6V2H15z"/>
  </g>
  </symbol>
  <symbol id="contacts" viewBox="0 0 21.9 21.9" >
    <path d="M18.9,21.9c-0.1,0-0.2,0-0.3,0c-3.2-0.4-6.4-1.5-9.1-3.2c-2.5-1.6-4.7-3.8-6.3-6.3C1.5,9.7,0.4,6.5,0,3.3
    C0,2.9,0,2.4,0.2,2C0.3,1.6,0.5,1.3,0.8,1c0.3-0.3,0.6-0.6,1-0.7C2.2,0.1,2.6,0,3,0h3c0.7,0,1.4,0.3,2,0.7c0.6,0.5,0.9,1.1,1,1.9
    c0.1,0.9,0.3,1.8,0.6,2.6c0.2,0.5,0.2,1.1,0.1,1.7C9.6,7.4,9.4,7.9,9,8.3L8.2,9.1c1.2,1.8,2.7,3.4,4.6,4.6l0.7-0.7
    c0.4-0.4,0.9-0.7,1.5-0.8c0.6-0.1,1.1-0.1,1.7,0.1c0.8,0.3,1.7,0.5,2.6,0.6c0.7,0.1,1.4,0.5,1.9,1c0.5,0.6,0.7,1.3,0.7,2v3
    c0,0.4-0.1,0.8-0.3,1.2c-0.2,0.4-0.4,0.7-0.7,1c-0.3,0.3-0.7,0.5-1.1,0.6C19.5,21.9,19.2,21.9,18.9,21.9z M6,2C6,2,6,2,6,2H3
    C2.9,2,2.7,2,2.6,2.1C2.5,2.1,2.4,2.2,2.3,2.3C2.2,2.4,2.1,2.5,2.1,2.7C2,2.8,2,3,2,3.1C2.3,6,3.3,8.8,4.9,11.3
    c1.5,2.3,3.4,4.3,5.7,5.7c2.5,1.6,5.3,2.6,8.2,2.9c0.1,0,0.3,0,0.4,0c0.1,0,0.3-0.1,0.4-0.2c0.1-0.1,0.2-0.2,0.2-0.3
    c0.1-0.1,0.1-0.3,0.1-0.4v-3c0,0,0,0,0,0c0-0.2-0.1-0.5-0.2-0.7c-0.2-0.2-0.4-0.3-0.6-0.3c-1-0.1-2-0.4-3-0.8
    c-0.2-0.1-0.4-0.1-0.6,0c-0.2,0-0.4,0.1-0.5,0.3l-1.3,1.3c-0.3,0.3-0.8,0.4-1.2,0.2c-2.7-1.5-4.9-3.7-6.4-6.4C5.9,9,6,8.5,6.3,8.2
    l1.3-1.3c0.1-0.1,0.2-0.3,0.3-0.5c0-0.2,0-0.4,0-0.6c-0.4-1-0.6-2-0.8-3c0-0.2-0.2-0.5-0.3-0.6C6.5,2.1,6.3,2,6,2z"/>
  </symbol>
  <symbol id="register" viewBox="0 0 22 22" >
      <g>
      <path d="M11,22c-1.3,0-2.6-0.2-3.8-0.7C5,20.5,3.1,19,1.8,17c-1.3-2-1.9-4.4-1.7-6.7c0.2-2.4,1.1-4.6,2.6-6.4
      c1.5-1.8,3.6-3.1,5.9-3.6C10.9-0.2,13.3,0,15.5,1C16,1.2,16.2,1.8,16,2.3c-0.2,0.5-0.8,0.7-1.3,0.5C12.9,2,10.9,1.8,9,2.2
      C7.1,2.6,5.4,3.7,4.2,5.2c-1.3,1.5-2,3.3-2.1,5.3c-0.1,1.9,0.4,3.9,1.4,5.5c1,1.6,2.6,2.9,4.4,3.5c1.8,0.7,3.8,0.7,5.7,0.2
      c1.8-0.5,3.5-1.7,4.7-3.2c1.2-1.5,1.8-3.5,1.8-5.4v-0.9c0-0.6,0.4-1,1-1s1,0.4,1,1V11c0,2.4-0.8,4.7-2.2,6.6
      c-1.4,1.9-3.4,3.3-5.7,4C13.1,21.8,12.1,22,11,22z"/>
      </g>
      <g>
      <path d="M11,14c-0.3,0-0.5-0.1-0.7-0.3l-3-3c-0.4-0.4-0.4-1,0-1.4s1-0.4,1.4,0l2.3,2.3l9.3-9.3c0.4-0.4,1-0.4,1.4,0
      c0.4,0.4,0.4,1,0,1.4l-10,10C11.5,13.9,11.3,14,11,14z"/>
      </g>
  </symbol>
  <symbol id="ligo-icon" viewBox="0 0 36 36">
    <path d="M17.8216 35.4854H0.27948V17.8889C0.27948 8.14621 8.20812 0.192993 17.9207 0.192993C27.6333 0.192993 35.5619 8.14621 35.5619 17.8889C35.4628 27.6316 27.5342 35.4854 17.8216 35.4854ZM2.75718 33H17.8216C26.1467 33 32.9851 26.2398 32.9851 17.7895C32.9851 9.43861 26.2458 2.57896 17.8216 2.57896C9.39742 2.57896 2.75718 9.53802 2.75718 17.8889V33Z" />
    <defs>
    <linearGradient id="paint0_linear_1307_265" x1="0.248362" y1="35.5336" x2="30.3718" y2="5.50312" gradientUnits="userSpaceOnUse">
    <stop stop-color="white"/>
    <stop offset="0.463542" stop-color="#96D6F4"/>
    <stop offset="1" stop-color="#1BAEE5"/>
    </linearGradient>
    </defs>
  </symbol>
  <symbol id="ligo-text" viewBox="0 0 54 35">
    <path d="M3.57185 2.77193C5.25668 1.08187 7.23884 0.187134 9.71654 0.187134C12.1942 0.187134 14.1764 1.08187 15.8612 2.77193C17.5461 4.46199 18.3389 6.54971 18.3389 9.03509C18.3389 11.5205 17.5461 13.7076 15.8612 15.3977C14.2755 17.0877 12.1942 17.883 9.71654 17.883C7.23884 17.883 5.15757 17.0877 3.57185 15.3977C1.98612 13.7076 1.09415 11.6199 1.09415 9.03509C1.09415 6.54971 1.98612 4.36257 3.57185 2.77193ZM4.86025 14.1053C6.14865 15.4971 7.73438 16.193 9.61743 16.193C11.5005 16.193 13.0862 15.4971 14.3746 14.1053C15.663 12.7134 16.3568 11.0234 16.3568 9.03509C16.3568 7.04678 15.663 5.35672 14.3746 3.96491C13.0862 2.5731 11.5005 1.87719 9.61743 1.87719C7.73438 1.87719 6.14865 2.5731 4.86025 3.96491C3.57185 5.35672 2.87809 7.04678 2.87809 9.03509C2.9772 11.0234 3.57185 12.8129 4.86025 14.1053Z"/>
    <path d="M24.3845 17.5848H22.6006V0.485352H24.1863L34.9891 14.5029V0.485352H36.7731V17.5848H35.2864L24.3845 3.56722V17.5848Z" />
    <path d="M53.7205 17.5848H41.7284V0.485352H53.4232V2.07599H43.5124V7.54383H51.6392V9.13447H43.5124V15.8947H53.8196V17.5848H53.7205Z" />
    <path d="M3.77005 34.4854C3.17541 34.4854 2.58076 34.3859 2.08522 34.2865C1.49057 34.1871 1.09414 33.9883 0.796814 33.7895V32.6959C1.68879 33.2924 2.67987 33.5906 3.77005 33.5906C4.3647 33.5906 4.86024 33.4912 5.25667 33.2924C5.65311 33.0935 5.75221 32.7953 5.75221 32.3976C5.75221 32.0994 5.554 31.8012 5.25667 31.6023C5.15757 31.5029 4.86024 31.4035 4.46381 31.3041C4.3647 31.3041 4.16649 31.2047 3.96827 31.2047C3.67095 31.1052 3.57184 31.1052 3.47273 31.1052C2.58076 30.9064 1.887 30.6082 1.49057 30.3099C1.09414 30.0117 0.89592 29.5146 0.89592 28.9181C0.89592 28.3216 1.19324 27.7251 1.68878 27.4269C2.18432 27.1286 2.97719 26.9298 3.86916 26.9298C4.95935 26.9298 5.85132 27.1286 6.54508 27.6257V28.7193C5.75221 28.2222 4.86024 27.924 3.86916 27.924C3.27451 27.924 2.77897 28.0234 2.48165 28.2222C2.18433 28.421 1.98611 28.7193 1.98611 29.0175C1.98611 29.4152 2.18432 29.614 2.58076 29.8128C2.67987 29.8128 2.77897 29.9123 2.87808 29.9123C2.97719 29.9123 3.0763 30.0117 3.1754 30.0117L3.47273 30.1111C3.67095 30.2105 3.96827 30.2105 4.16648 30.3099C5.05845 30.5088 5.75221 30.807 6.14864 31.1052C6.54507 31.4035 6.8424 31.9006 6.8424 32.4971C6.8424 33.193 6.54508 33.69 5.95043 34.0877C5.35578 34.3859 4.66203 34.4854 3.77005 34.4854Z" />
    <path d="M12.1943 34.4853C11.5005 34.4853 11.005 34.2865 10.6085 33.8888C10.2121 33.4912 10.113 32.8947 10.113 32.1988V27.8245H8.32904V26.8304H10.113V24.5438H11.2032V26.8304H13.78V27.8245H11.2032V31.8011C11.2032 32.3976 11.3023 32.7953 11.5005 32.9941C11.6987 33.1929 11.996 33.3918 12.4916 33.3918C12.9871 33.3918 13.3836 33.2924 13.6809 33.0935V34.0877C13.3836 34.3859 12.888 34.4853 12.1943 34.4853Z" />
    <path d="M18.3389 34.4853C17.5461 34.4853 16.8523 34.2865 16.3568 33.8888C15.7621 33.4912 15.4648 32.7953 15.4648 32.0994C15.4648 31.4035 15.7621 30.807 16.3568 30.3099C16.9514 29.9122 17.6452 29.614 18.5372 29.614C19.5282 29.614 20.4202 29.8128 21.2131 30.3099V29.614C21.2131 28.421 20.4202 27.7251 18.8345 27.7251C17.9425 27.7251 17.1497 28.0234 16.4559 28.5204V27.4269C17.1497 26.9298 18.0416 26.731 19.1318 26.731C20.1229 26.731 20.9158 26.9298 21.5104 27.4269C22.1051 27.9239 22.4024 28.6198 22.4024 29.4152V32.497C22.4024 32.7953 22.5015 32.9941 22.6006 33.1929C22.6997 33.3918 22.8979 33.3918 23.0961 33.3918C23.2943 33.3918 23.3935 33.3918 23.4926 33.2924V34.1871C23.2943 34.2865 23.0961 34.3859 22.7988 34.3859C22.4024 34.3859 22.1051 34.2865 21.9068 34.0877C21.6095 33.8888 21.5104 33.5906 21.4113 33.1929C20.5193 34.0877 19.5282 34.4853 18.3389 34.4853ZM18.6363 33.4912C19.1318 33.4912 19.6273 33.3918 20.1229 33.0935C20.6184 32.8947 20.9158 32.5965 21.2131 32.1988V31.2046C20.4202 30.7076 19.6274 30.5087 18.8345 30.5087C18.1407 30.5087 17.6452 30.6081 17.2488 30.9064C16.8523 31.2046 16.6541 31.5029 16.6541 32C16.6541 32.497 16.8523 32.8947 17.2488 33.0935C17.5461 33.3918 18.0416 33.4912 18.6363 33.4912Z"/>
    <path d="M28.448 34.4853C27.7542 34.4853 27.2587 34.2865 26.8623 33.8888C26.4658 33.4912 26.3667 32.8947 26.3667 32.1988V27.8245H24.5828V26.8304H26.3667V24.5438H27.4569V26.8304H30.0337V27.8245H27.4569V31.8011C27.4569 32.3976 27.556 32.7953 27.7542 32.9941C27.9524 33.1929 28.2498 33.3918 28.7453 33.3918C29.2408 33.3918 29.6373 33.2924 29.9346 33.0935V34.0877C29.6373 34.3859 29.1417 34.4853 28.448 34.4853Z" />
    <path d="M32.5114 24.9414C32.4123 24.842 32.3132 24.6432 32.3132 24.4444C32.3132 24.2455 32.4123 24.0467 32.5114 23.8479C32.7096 23.649 32.8087 23.649 33.106 23.649C33.3042 23.649 33.5025 23.7485 33.7007 23.8479C33.8989 24.0467 33.8989 24.1461 33.8989 24.4444C33.8989 24.6432 33.7998 24.842 33.7007 25.0409C33.5025 25.1403 33.4034 25.2397 33.106 25.2397C32.9078 25.2397 32.7096 25.1403 32.5114 24.9414ZM33.7007 34.3859H32.6105V27.0292H33.7007V34.3859Z" />
    <path d="M37.3677 27.9239C38.0614 27.1286 39.0525 26.731 40.2418 26.731C41.4311 26.731 42.3231 27.1286 43.1159 27.9239C43.8097 28.6198 44.2061 29.614 44.2061 30.7076C44.2061 31.8011 43.8097 32.6959 43.1159 33.4912C42.3231 34.2865 41.4311 34.5848 40.2418 34.5848C39.0525 34.5848 38.1605 34.1871 37.3677 33.4912C36.6739 32.7953 36.2775 31.8011 36.2775 30.7076C36.2775 29.614 36.5748 28.7193 37.3677 27.9239ZM43.1159 30.7076C43.1159 29.9122 42.8186 29.2163 42.3231 28.6198C41.7284 28.0234 41.0347 27.8245 40.2418 27.8245C39.4489 27.8245 38.7552 28.1228 38.1605 28.6198C37.665 29.2163 37.3677 29.9122 37.3677 30.7076C37.3677 31.5029 37.665 32.1988 38.1605 32.7953C38.6561 33.3918 39.3498 33.5906 40.2418 33.5906C41.0347 33.5906 41.7284 33.2924 42.3231 32.7953C42.8186 32.1988 43.1159 31.5029 43.1159 30.7076Z" />
    <path d="M47.6749 29.4152V34.386H46.5847V27.0293H47.6749V28.1228C48.4678 27.2281 49.4589 26.8304 50.6482 26.8304C51.5401 26.8304 52.2339 27.1287 52.7294 27.6258C53.225 28.1228 53.4232 28.9182 53.4232 29.9123V34.386H52.333V30.1111C52.333 28.6199 51.6392 27.8246 50.2517 27.8246C49.7562 27.8246 49.2607 28.0234 48.7651 28.3217C48.2696 28.6199 47.8731 29.0176 47.6749 29.4152Z" />
  </symbol>
  <symbol id="phone" viewBox="0 0 18 18">
    <path d="M14.2258 11.1503C13.8573 10.7666 13.4128 10.5615 12.9417 10.5615C12.4744 10.5615 12.0261 10.7628 11.6424 11.1465L10.4419 12.3432C10.3432 12.29 10.2444 12.2407 10.1494 12.1913C10.0126 12.1229 9.88348 12.0583 9.77331 11.9899C8.6488 11.2757 7.62686 10.3449 6.64671 9.14065C6.17184 8.54041 5.85272 8.03514 5.62098 7.52227C5.9325 7.23734 6.22122 6.94102 6.50235 6.65609C6.60872 6.54972 6.7151 6.43955 6.82147 6.33318C7.61926 5.53538 7.61926 4.50205 6.82147 3.70425L5.78434 2.66712C5.66657 2.54935 5.545 2.42778 5.43103 2.30621C5.20309 2.07067 4.96375 1.82754 4.71681 1.59959C4.34831 1.23489 3.90762 1.04114 3.44414 1.04114C2.98066 1.04114 2.53237 1.23489 2.15247 1.59959C2.14867 1.60339 2.14867 1.60339 2.14487 1.60719L0.853204 2.91026C0.366929 3.39653 0.0896004 3.98918 0.028816 4.6768C-0.0623605 5.78612 0.264355 6.81945 0.515091 7.49568C1.13053 9.15585 2.0499 10.6945 3.42134 12.3432C5.08532 14.3301 7.0874 15.8991 9.37441 17.0046C10.2482 17.4187 11.4145 17.9088 12.7176 17.9924C12.7973 17.9962 12.8809 18 12.9569 18C13.8345 18 14.5715 17.6847 15.1489 17.0578C15.1527 17.0502 15.1603 17.0464 15.1641 17.0388C15.3617 16.7995 15.5896 16.5829 15.829 16.3512C15.9923 16.1954 16.1595 16.0321 16.3228 15.8611C16.6989 15.4698 16.8965 15.0139 16.8965 14.5467C16.8965 14.0756 16.6951 13.6235 16.3114 13.2436L14.2258 11.1503ZM15.5858 15.1507C15.582 15.1507 15.582 15.1545 15.5858 15.1507C15.4377 15.3103 15.2857 15.4546 15.1223 15.6142C14.8754 15.8497 14.6247 16.0967 14.3891 16.374C14.0054 16.7843 13.5533 16.978 12.9607 16.978C12.9037 16.978 12.8429 16.978 12.7859 16.9742C11.6576 16.9021 10.6091 16.4614 9.8227 16.0853C7.67245 15.0443 5.78434 13.5665 4.21534 11.6936C2.91987 10.1322 2.0537 8.68857 1.48004 7.13857C1.12673 6.19261 0.997567 5.4556 1.05455 4.76038C1.09254 4.3159 1.2635 3.94739 1.57882 3.63207L2.87428 2.3366C3.06044 2.16185 3.25799 2.06687 3.45174 2.06687C3.69107 2.06687 3.88482 2.21124 4.00639 2.33281C4.01019 2.3366 4.01399 2.3404 4.01779 2.3442C4.24953 2.56075 4.46987 2.78489 4.70161 3.02423C4.81938 3.1458 4.94095 3.26737 5.06252 3.39273L6.09966 4.42987C6.50235 4.83256 6.50235 5.20487 6.09966 5.60756C5.98948 5.71774 5.88311 5.82791 5.77294 5.93428C5.45382 6.26099 5.1499 6.56492 4.81938 6.86124C4.81179 6.86884 4.80419 6.87264 4.80039 6.88024C4.47367 7.20695 4.53446 7.52607 4.60284 7.74261C4.60664 7.75401 4.61044 7.76541 4.61424 7.77681C4.88397 8.43024 5.26387 9.04568 5.84132 9.77889L5.84512 9.78269C6.89365 11.0744 7.99917 12.0811 9.21865 12.8523C9.37441 12.9511 9.53397 13.0309 9.68593 13.1068C9.8227 13.1752 9.95186 13.2398 10.062 13.3082C10.0772 13.3158 10.0924 13.3272 10.1076 13.3348C10.2368 13.3994 10.3584 13.4298 10.4837 13.4298C10.799 13.4298 10.9966 13.2322 11.0612 13.1676L12.3604 11.8684C12.4896 11.7392 12.6948 11.5834 12.9341 11.5834C13.1696 11.5834 13.3634 11.7316 13.4812 11.8608C13.485 11.8646 13.485 11.8646 13.4888 11.8684L15.582 13.9616C15.9733 14.3491 15.9733 14.748 15.5858 15.1507Z"/>
    <path d="M9.72733 4.28172C10.7227 4.44888 11.6268 4.91995 12.3487 5.64177C13.0705 6.36358 13.5378 7.26775 13.7087 8.2631C13.7505 8.51383 13.9671 8.68859 14.214 8.68859C14.2444 8.68859 14.271 8.68479 14.3014 8.68099C14.5825 8.6354 14.7686 8.36947 14.7231 8.08834C14.5179 6.88405 13.9481 5.78613 13.0781 4.91616C12.2081 4.04618 11.1102 3.47633 9.90589 3.27118C9.62476 3.22559 9.36263 3.41174 9.31324 3.68907C9.26385 3.9664 9.4462 4.23613 9.72733 4.28172Z"/>
    <path d="M17.9788 7.94018C17.6406 5.95709 16.7061 4.15255 15.2701 2.71652C13.834 1.28049 12.0295 0.345932 10.0464 0.00781895C9.76907 -0.0415683 9.50693 0.148383 9.45755 0.425711C9.41196 0.706839 9.59811 0.968972 9.87924 1.01836C11.6496 1.31848 13.2642 2.15807 14.5482 3.43834C15.8323 4.72241 16.6681 6.33699 16.9682 8.10734C17.01 8.35807 17.2265 8.53283 17.4735 8.53283C17.5039 8.53283 17.5305 8.52903 17.5609 8.52523C17.8382 8.48344 18.0281 8.21751 17.9788 7.94018Z"/>
  </symbol>
  <symbol id="box" viewBox="0 0 26 26">
    <path d="M22.128 5.35427H18.3638V3.36745C18.3638 1.93237 17.1963 0.764862 15.7612 0.764862H10.2388C8.80374 0.764862 7.63623 1.93237 7.63623 3.36745V5.35422H3.87202C1.73697 5.35427 0 7.09124 0 9.22629V21.3631C0 23.4982 1.73697 25.2351 3.87202 25.2351H22.128C24.263 25.2351 26 23.4982 26 21.3631V9.22629C26 7.09124 24.263 5.35427 22.128 5.35427ZM9.15967 3.36745C9.15967 2.7724 9.64377 2.2883 10.2388 2.2883H15.7612C16.3562 2.2883 16.8403 2.7724 16.8403 3.36745V5.35422H9.15967V3.36745ZM1.52344 21.3631V9.22629C1.52344 8.19787 2.18816 7.32235 3.1103 7.00522V23.5842C2.18816 23.267 1.52344 22.3915 1.52344 21.3631ZM4.63374 23.7117V6.87771H21.3663V23.7117H4.63374ZM24.4766 21.3631C24.4766 22.3915 23.8118 23.267 22.8897 23.5841V7.00517C23.8118 7.32235 24.4766 8.19787 24.4766 9.22629V21.3631Z" />
    <path d="M17.5894 13.0031H15.2915V10.7053C15.2915 10.2846 14.9505 9.94357 14.5298 9.94357H11.4702C11.0495 9.94357 10.7085 10.2846 10.7085 10.7053V13.0031H8.41064C7.98997 13.0031 7.64893 13.3442 7.64893 13.7649V16.8244C7.64893 17.2451 7.98997 17.5862 8.41064 17.5862H10.7085V19.884C10.7085 20.3047 11.0495 20.6457 11.4702 20.6457H14.5298C14.9505 20.6457 15.2915 20.3047 15.2915 19.884V17.5862H17.5894C18.01 17.5862 18.3511 17.2451 18.3511 16.8244V13.7649C18.3511 13.3442 18.01 13.0031 17.5894 13.0031ZM16.8276 16.0627H14.5298C14.1091 16.0627 13.7681 16.4038 13.7681 16.8244V19.1223H12.2319V16.8244C12.2319 16.4038 11.8909 16.0627 11.4702 16.0627H9.17236V14.5266H11.4702C11.8909 14.5266 12.2319 14.1855 12.2319 13.7649V11.467H13.7681V13.7649C13.7681 14.1855 14.1091 14.5266 14.5298 14.5266H16.8276V16.0627Z" />
  </symbol>
  <symbol id="drop" viewBox="0 0 26 26">
    <path d="M11.9844 20.9219H14.0156C14.2961 20.9219 14.5234 20.6945 14.5234 20.4141V18.8906H16.0469C16.3273 18.8906 16.5547 18.6632 16.5547 18.3828V16.3516C16.5547 16.0711 16.3273 15.8438 16.0469 15.8438H14.5234V14.3203C14.5234 14.0399 14.2961 13.8125 14.0156 13.8125H11.9844C11.7039 13.8125 11.4766 14.0399 11.4766 14.3203V15.8438H9.95312C9.67266 15.8438 9.44531 16.0711 9.44531 16.3516V18.3828C9.44531 18.6632 9.67266 18.8906 9.95312 18.8906H11.4766V20.4141C11.4766 20.6945 11.7039 20.9219 11.9844 20.9219ZM10.4609 17.875V16.8594H11.9844C12.2648 16.8594 12.4922 16.632 12.4922 16.3516V14.8281H13.5078V16.3516C13.5078 16.632 13.7352 16.8594 14.0156 16.8594H15.5391V17.875H14.0156C13.7352 17.875 13.5078 18.1024 13.5078 18.3828V19.9062H12.4922V18.3828C12.4922 18.1024 12.2648 17.875 11.9844 17.875H10.4609Z" />
    <path d="M18.7383 23.6133C19.0187 23.6133 19.2461 23.3859 19.2461 23.1055C19.2461 22.825 19.0187 22.5977 18.7383 22.5977C18.4578 22.5977 18.2305 22.825 18.2305 23.1055C18.2305 23.3859 18.4578 23.6133 18.7383 23.6133Z" />
    <path d="M19.8741 21.7306C20.1195 21.866 20.4285 21.7768 20.564 21.5312C21.2632 20.2635 21.6328 18.8237 21.6328 17.3672C21.6328 13.105 19.4984 10.8106 17.4343 8.59163C15.4151 6.42093 13.5078 4.37064 13.5078 0.507812C13.5078 0.227398 13.2805 0 13 0C12.7195 0 12.4922 0.227398 12.4922 0.507812C12.4922 4.37064 10.5849 6.42093 8.56568 8.59163C6.50157 10.8106 4.36719 13.105 4.36719 17.3672C4.36719 22.1273 8.23987 26 13 26C14.4564 26 15.8963 25.6304 17.164 24.9312C17.4096 24.7957 17.4989 24.4869 17.3634 24.2412C17.228 23.9957 16.919 23.9066 16.6735 24.0418C15.5556 24.6585 14.2853 24.9844 13 24.9844C8.79988 24.9844 5.38281 21.5673 5.38281 17.3672C5.38281 13.5044 7.29006 11.4541 9.30932 9.28337C10.7599 7.72403 12.2452 6.12732 13 3.83657C13.7548 6.12727 15.2401 7.72403 16.6907 9.28337C18.7099 11.4541 20.6172 13.5044 20.6172 17.3672C20.6172 18.6526 20.2913 19.9229 19.6746 21.0407C19.5392 21.2863 19.6285 21.5952 19.8741 21.7306Z" />
  </symbol>
  <symbol id="user" viewBox="0 0 26 26">
    <path d="M22.1924 16.8076C20.7765 15.3917 19.0912 14.3435 17.2524 13.709C19.2218 12.3526 20.5156 10.0825 20.5156 7.51562C20.5156 3.37152 17.1441 0 13 0C8.85589 0 5.48438 3.37152 5.48438 7.51562C5.48438 10.0825 6.77823 12.3526 8.74768 13.709C6.90889 14.3435 5.22356 15.3917 3.80763 16.8076C1.35225 19.263 0 22.5276 0 26H2.03125C2.03125 19.9518 6.9518 15.0312 13 15.0312C19.0482 15.0312 23.9688 19.9518 23.9688 26H26C26 22.5276 24.6477 19.263 22.1924 16.8076ZM13 13C9.97593 13 7.51562 10.5398 7.51562 7.51562C7.51562 4.4915 9.97593 2.03125 13 2.03125C16.0241 2.03125 18.4844 4.4915 18.4844 7.51562C18.4844 10.5398 16.0241 13 13 13Z" />
  </symbol>
  <symbol id="angle-left" viewBox="0 0 9 15">
    <path d="M2.89543 13.9866L8.5257 8.3504C8.96261 7.91075 8.96224 7.201 8.52486 6.76181L2.88866 1.13154C2.46712 0.77013 1.84407 0.770458 1.42291 1.13232C0.951037 1.53704 0.896242 2.24909 1.30097 2.72097L6.13677 7.55174L1.30601 12.3988C0.869092 12.8385 0.869466 13.5482 1.30684 13.9874C1.74649 14.4243 2.4563 14.424 2.89543 13.9866Z"/>
  </symbol>
  <symbol id="angle-right" viewBox="0 0 9 15">
    <path d="M6.19987 1.27254L0.636481 6.97536C0.204784 7.42018 0.213568 8.12991 0.656142 8.56391L6.35897 14.1273C6.78478 14.4837 7.40782 14.476 7.82468 14.1092C8.29175 13.6988 8.33811 12.9862 7.9278 12.5191L3.03483 7.7457L7.80808 2.84143C8.23978 2.39661 8.23099 1.68687 7.78842 1.25288C7.3436 0.82118 6.63381 0.829965 6.19987 1.27254Z"/>
  </symbol>
  <symbol id="hand" viewBox="0 0 34 34">
    <path d="M31.875 24.2356V9.03125C31.875 7.56659 30.6834 6.375 29.2188 6.375H26.5625V3.71875C26.5625 2.25409 25.3709 1.0625 23.9062 1.0625H17.5312C16.0666 1.0625 14.875 2.25409 14.875 3.71875V6.375H12.2188C10.7541 6.375 9.5625 7.56659 9.5625 9.03125V25.2801L9.34256 25.5H6.375V24.9688C6.375 24.675 6.137 24.4375 5.84375 24.4375H1.59375C1.3005 24.4375 1.0625 24.675 1.0625 24.9688V32.4062C1.0625 32.7 1.3005 32.9375 1.59375 32.9375H5.84375C6.137 32.9375 6.375 32.7 6.375 32.4062H23.9062C23.9976 32.4062 24.0874 32.3829 24.1666 32.3377L31.8123 28.0373C32.5061 27.6468 32.9375 26.9099 32.9375 26.1136C32.9375 25.3172 32.5093 24.624 31.875 24.2356ZM5.3125 31.875H2.125V25.5H5.3125V31.875ZM15.9375 3.71875C15.9375 2.84006 16.6526 2.125 17.5312 2.125H23.9062C24.7849 2.125 25.5 2.84006 25.5 3.71875V6.375H24.4375V3.71875C24.4375 3.42497 24.1995 3.1875 23.9062 3.1875H17.5312C17.238 3.1875 17 3.42497 17 3.71875V6.375H15.9375V3.71875ZM18.0625 6.375V4.25H23.375V6.375H18.0625ZM10.625 9.03125C10.625 8.15256 11.3401 7.4375 12.2188 7.4375H29.2188C30.0974 7.4375 30.8125 8.15256 30.8125 9.03125V23.9147C30.7843 23.9137 30.7583 23.9062 30.7302 23.9062H30.6494C30.3317 23.9062 30.0119 23.9764 29.7245 24.1092L23.2581 27.0938H20.8452C21.1002 26.7134 21.25 26.257 21.25 25.7656C21.25 24.4476 20.1774 23.375 18.8594 23.375H11.6875C11.5467 23.375 11.4112 23.4308 11.3119 23.5307L10.625 24.2176V9.03125ZM31.2912 27.1113L23.7671 31.3438H6.375V26.5625H9.5625C9.70328 26.5625 9.83875 26.5067 9.93809 26.4068L11.9074 24.4375H18.8594C19.5914 24.4375 20.1875 25.033 20.1875 25.7656C20.1875 26.4982 19.5914 27.0938 18.8594 27.0938H14.3438V28.1562H18.8594H23.375C23.452 28.1562 23.528 28.1398 23.5976 28.1074L30.1702 25.0734C30.3184 25.0049 30.4842 24.9688 30.6494 24.9688H30.7302C31.3613 24.9688 31.875 25.4825 31.875 26.1136C31.875 26.5269 31.6513 26.9083 31.2912 27.1113Z"/>
    <path d="M20.7188 22.3125C24.234 22.3125 27.0938 19.4528 27.0938 15.9375C27.0938 12.4222 24.234 9.5625 20.7188 9.5625C17.2035 9.5625 14.3438 12.4222 14.3438 15.9375C14.3438 19.4528 17.2035 22.3125 20.7188 22.3125ZM20.7188 10.625C23.6481 10.625 26.0312 13.0082 26.0312 15.9375C26.0312 18.8668 23.6481 21.25 20.7188 21.25C17.7894 21.25 15.4062 18.8668 15.4062 15.9375C15.4062 13.0082 17.7894 10.625 20.7188 10.625Z"/>
    <path d="M17.5312 17.5312H19.125V19.125C19.125 19.4188 19.363 19.6562 19.6562 19.6562H21.7812C22.0745 19.6562 22.3125 19.4188 22.3125 19.125V17.5312H23.9062C24.1995 17.5312 24.4375 17.2938 24.4375 17V14.875C24.4375 14.5812 24.1995 14.3438 23.9062 14.3438H22.3125V12.75C22.3125 12.4562 22.0745 12.2188 21.7812 12.2188H19.6562C19.363 12.2188 19.125 12.4562 19.125 12.75V14.3438H17.5312C17.238 14.3438 17 14.5812 17 14.875V17C17 17.2938 17.238 17.5312 17.5312 17.5312ZM18.0625 15.4062H19.6562C19.9495 15.4062 20.1875 15.1688 20.1875 14.875V13.2812H21.25V14.875C21.25 15.1688 21.488 15.4062 21.7812 15.4062H23.375V16.4688H21.7812C21.488 16.4688 21.25 16.7062 21.25 17V18.5938H20.1875V17C20.1875 16.7062 19.9495 16.4688 19.6562 16.4688H18.0625V15.4062Z"/>
  </symbol>
  <symbol id="stethoscope" viewBox="0 0 34 34">
    <path d="M28.4425 10.3339C26.9571 10.3339 25.7485 11.5424 25.7485 13.0279C25.7485 14.5134 26.9571 15.7219 28.4425 15.7219C29.928 15.7219 31.1365 14.5134 31.1365 13.0279C31.1365 11.5425 29.928 10.3339 28.4425 10.3339ZM28.4425 14.7258C27.5063 14.7258 26.7446 13.9642 26.7446 13.0279C26.7446 12.0917 27.5063 11.33 28.4425 11.33C29.3788 11.33 30.1404 12.0916 30.1404 13.0279C30.1404 13.9642 29.3788 14.7258 28.4425 14.7258Z" />
    <path d="M33.1913 10.8773C33.0776 10.6267 32.7825 10.5158 32.5319 10.6294C32.2814 10.743 32.1705 11.0382 32.2841 11.2887C32.5333 11.8381 32.6597 12.4232 32.6597 13.0278C32.6597 14.9644 31.347 16.5992 29.565 17.0918C28.8485 17.2899 28.0362 17.3087 27.3207 17.0918C25.5387 16.5992 24.226 14.9644 24.226 13.0278C24.226 10.7027 26.1177 8.81105 28.4428 8.81105C29.4586 8.81105 30.4405 9.17847 31.2076 9.84566C31.4152 10.0261 31.7298 10.0042 31.9103 9.79671C32.0908 9.5892 32.0689 9.27456 31.8613 9.09407C30.9129 8.26924 29.6988 7.81495 28.4427 7.81495C25.5683 7.81495 23.2298 10.1535 23.2298 13.0278C23.2298 15.2737 24.6575 17.1924 26.653 17.9241V23.2112C26.653 27.1863 23.419 30.4204 19.4438 30.4204C15.4684 30.4204 12.2341 27.1864 12.2341 23.2112V21.4887V16.9125C12.9652 16.6443 13.6359 16.2143 14.1841 15.6486L18.651 11.0386C19.8545 9.90662 20.5445 8.31087 20.5445 6.65855C20.5445 5.16322 19.99 3.72904 18.983 2.62013C18.0832 1.62934 16.8911 0.972984 15.5899 0.740762C15.5307 0.322801 15.1714 0 14.7372 0C13.3942 0 12.3016 1.09265 12.3016 2.43565C12.3016 3.77871 13.3942 4.8713 14.7372 4.8713C15.0624 4.8713 15.346 4.69027 15.4929 4.42378C16.3692 4.80144 16.9651 5.67402 16.9651 6.65862C16.9651 7.33537 16.68 7.98681 16.1828 8.44608C16.1586 8.46839 11.6149 13.1563 11.6135 13.1577C10.9831 13.8083 9.90603 13.8081 9.27577 13.1577C9.27577 13.1577 4.73093 8.46859 4.70642 8.44601C4.20931 7.98681 3.92422 7.33537 3.92422 6.65862C3.92422 5.67402 4.52015 4.80137 5.39645 4.42372C5.54334 4.69021 5.8269 4.87123 6.15209 4.87123C7.49509 4.87123 8.58774 3.77858 8.58774 2.43558C8.58787 1.09265 7.49522 0 6.15215 0C5.71799 0 5.35873 0.322801 5.29936 0.740828C3.9982 0.973051 2.80601 1.62934 1.90627 2.62019C0.899285 3.72911 0.344727 5.16335 0.344727 6.65862C0.344727 8.31094 1.03475 9.90668 2.23823 11.0386L6.70512 15.6486C7.25317 16.2141 7.92374 16.6441 8.65467 16.9123V21.4887V23.2112C8.65467 25.269 9.23911 27.2717 10.3448 29.0027C10.4929 29.2346 10.8009 29.3024 11.0326 29.1544C11.2644 29.0063 11.3323 28.6984 11.1843 28.4666C10.1811 26.8959 9.65083 25.0787 9.65083 23.2112V21.9867H11.2382V23.2112C11.2382 27.7355 14.9194 31.4164 19.444 31.4164C23.9684 31.4164 27.6493 27.7356 27.6493 23.2112V18.1803C28.1731 18.2609 28.7129 18.2609 29.2366 18.1803V23.2112C29.2366 28.611 24.8437 33.0039 19.444 33.0039C16.747 33.0039 14.2325 31.9262 12.3635 29.9693C12.1735 29.7704 11.8583 29.7631 11.6594 29.9531C11.4605 30.1431 11.4532 30.4584 11.6432 30.6573C13.7018 32.8129 16.4722 34 19.444 34C25.3929 34 30.2327 29.1602 30.2327 23.2113V17.9242C32.2282 17.1924 33.6558 15.2738 33.6558 13.0279C33.6558 12.2804 33.4995 11.5569 33.1913 10.8773ZM14.6035 3.86909C13.8722 3.80143 13.2977 3.18438 13.2977 2.43565C13.2977 1.68698 13.8721 1.06994 14.6035 1.00227V3.86909ZM6.2859 1.00227C7.01729 1.06994 7.59177 1.68698 7.59177 2.43565C7.59177 3.18438 7.01729 3.80143 6.2859 3.86909V1.00227ZM11.2381 20.9908H9.65077V17.1703C10.1763 17.2525 10.7126 17.2522 11.2381 17.1703V20.9908ZM11.5989 16.0716C10.8478 16.2981 10.0424 16.279 9.29011 16.0714C9.28825 16.0709 9.28633 16.0707 9.28447 16.0702C8.58222 15.8678 7.93456 15.4859 7.42051 14.9554C7.42051 14.9555 2.93404 10.3256 2.9282 10.3202C1.91942 9.37523 1.34082 8.04067 1.34082 6.65862C1.34082 5.41145 1.80354 4.215 2.64371 3.28983C3.35207 2.50976 4.27664 1.97698 5.2898 1.75645V3.39987C3.89965 3.85555 2.9282 5.16607 2.9282 6.65862C2.9282 7.61241 3.33002 8.53061 4.03061 9.17768C4.04136 9.18757 8.55905 13.8494 8.56051 13.8509C9.57646 14.8994 11.3133 14.899 12.329 13.8509C12.329 13.8509 16.8481 9.1877 16.8588 9.17774C17.5594 8.53061 17.9612 7.61248 17.9612 6.65862C17.9612 5.16607 16.9898 3.85555 15.5996 3.3998V1.75651C16.6127 1.97705 17.5373 2.50976 18.2457 3.28983C19.0859 4.21507 19.5486 5.41145 19.5486 6.65862C19.5486 8.04067 18.9701 9.37523 17.9612 10.3201C17.9554 10.3256 17.9496 10.3312 17.944 10.337L13.469 14.9554C12.9549 15.4859 12.3073 15.8677 11.6051 16.0702C11.603 16.0707 11.6009 16.071 11.5989 16.0716Z" />
  </symbol>
  <symbol id="rehabilitation" viewBox="0 0 34 34">
    <path d="M13.6749 0C11.2296 0 9.24023 1.9894 9.24023 4.43468C9.24023 6.87997 11.2296 8.86937 13.6749 8.86937C16.1202 8.86937 18.1096 6.87997 18.1096 4.43468C18.1096 1.9894 16.1202 0 13.6749 0ZM13.6749 6.65199C12.4523 6.65199 11.4576 5.65729 11.4576 4.43468C11.4576 3.21208 12.4523 2.21738 13.6749 2.21738C14.8975 2.21738 15.8922 3.21208 15.8922 4.43468C15.8923 5.65729 14.8976 6.65199 13.6749 6.65199Z" />
    <path d="M24.5443 27.4204C24.6845 27.0528 24.7547 26.6546 24.7547 26.2384V20.9962C24.7547 19.1623 23.27 17.6703 21.4361 17.6703H15.8007C15.8617 16.8689 15.8854 16.0727 15.8854 15.2876V12.1955C15.8854 9.25094 12.3052 7.75441 10.2149 9.84468L5.78026 14.2794C4.48016 15.5795 4.48003 17.6824 5.78026 18.9827L8.43944 21.6418C7.76595 24.3383 6.70889 26.8124 5.36496 28.8281C4.34442 30.358 4.75481 32.4207 6.28741 33.4407C7.82027 34.4623 9.88258 34.0442 10.8993 32.5183C12.4603 30.1777 13.7234 27.3892 14.5871 24.3915H18.1097L18.1101 26.2386C18.1101 26.6547 18.1877 27.0528 18.3278 27.4203C15.6932 27.8476 13.6749 30.1377 13.6749 32.8912C13.6749 33.5035 14.1713 33.9999 14.7836 33.9999H28.0876C28.6998 33.9999 29.1962 33.5035 29.1962 32.8912C29.1961 30.1379 27.1784 27.8482 24.5443 27.4204ZM9.05436 31.2883C8.71449 31.7984 8.02626 31.9348 7.51646 31.595C7.00606 31.2554 6.86833 30.5699 7.20966 30.0582C8.47789 28.1561 9.51071 25.8972 10.2432 23.4442C10.7989 23.9871 11.5109 24.3127 12.277 24.3784C11.4857 26.9287 10.3866 29.2905 9.05436 31.2883ZM13.6754 15.2875C13.6754 15.9812 13.6488 16.6847 13.5974 17.3931L12.0513 15.847C11.6184 15.4141 10.9164 15.4141 10.4834 15.847C10.0505 16.2799 10.0505 16.9819 10.4834 17.4149L13.3503 20.2818C13.5598 20.4914 13.6752 20.7697 13.6752 21.0656C13.6752 21.3614 13.5598 21.6398 13.3503 21.8493C12.9181 22.2815 12.215 22.2815 11.7827 21.8493L7.34805 17.4146C6.91448 16.9809 6.91455 16.2807 7.34805 15.847C12.3613 10.8337 11.7156 11.4789 11.7938 11.4023C12.4967 10.7185 13.6754 11.2232 13.6754 12.1953V15.2875ZM15.7016 22.1813C15.9617 21.4422 15.9523 20.6144 15.6754 19.8801H21.436C22.0474 19.8801 22.5447 20.3848 22.5447 20.9961V26.2383C22.5447 26.8496 22.0474 27.3469 21.436 27.3469C20.8247 27.3469 20.32 26.8496 20.32 26.2381L20.3194 23.2823C20.3193 22.6701 19.8303 22.1813 19.2181 22.1813H15.7016V22.1813ZM16.0821 31.7897C16.5396 30.4992 17.7727 29.565 19.2181 29.565H23.6528C25.0983 29.565 26.3312 30.4991 26.7889 31.7897H16.0821Z" />
  </symbol>
  <symbol id="surgery" viewBox="0 0 34 34">
    <path d="M20.1275 11.8369C20.353 11.9949 20.6635 11.9399 20.8212 11.7147L21.8806 10.2014C22.0385 9.97595 21.9838 9.66545 21.7584 9.50774C21.533 9.35002 21.2225 9.40476 21.0648 9.63017L20.0051 11.1433C19.8474 11.3687 19.9021 11.6792 20.1275 11.8369Z" />
    <path d="M22.6893 10.6239L22.3295 12.4359C22.2685 12.744 22.5043 13.0309 22.8187 13.0309C23.0516 13.0309 23.2597 12.8667 23.3066 12.6299L23.6661 10.8177C23.7198 10.5479 23.5445 10.2857 23.2747 10.2323C23.0047 10.1788 22.7427 10.3539 22.6893 10.6239Z" />
    <path d="M20.5584 8.33065C20.416 8.09537 20.1097 8.02041 19.8744 8.16282L18.2946 9.12052C18.0594 9.26319 17.9844 9.56955 18.1268 9.80482C18.2697 10.0401 18.5761 10.1148 18.8111 9.97239L20.3909 9.01495C20.6261 8.87228 20.7011 8.56593 20.5584 8.33065Z" />
    <path d="M5.55525 10.3713C5.73839 10.4616 5.96121 10.4647 6.15083 10.3713C6.61568 10.142 8.13213 9.27507 8.13213 7.75058C8.13213 6.54178 6.72333 5.9532 5.85356 6.68315C5.51738 6.40015 5.06058 6.29198 4.60818 6.41156C3.98952 6.57472 3.57422 7.11298 3.57422 7.75058C3.57422 9.27897 5.09119 10.1433 5.55525 10.3713ZM5.30441 7.55785C5.39728 7.72179 5.60117 7.86498 5.83722 7.87068C6.07509 7.87821 6.30025 7.73476 6.39908 7.56174C6.60193 7.2061 7.13603 7.35292 7.13603 7.75084C7.13603 8.59363 6.24655 9.18299 5.85278 9.4027C5.45901 9.18402 4.57031 8.59623 4.57031 7.75084C4.57031 7.34955 5.10727 7.21077 5.30441 7.55785Z" />
    <path d="M9.37256 7.14642H11.3406C11.6158 7.14642 11.8387 6.9236 11.8387 6.64838C11.8387 6.37341 11.6158 6.15033 11.3406 6.15033H9.37256C9.09734 6.15033 8.87451 6.37341 8.87451 6.64838C8.87451 6.9236 9.09734 7.14642 9.37256 7.14642Z" />
    <path d="M9.37256 8.90027H11.3406C11.6158 8.90027 11.8387 8.67744 11.8387 8.40222C11.8387 8.127 11.6158 7.90417 11.3406 7.90417H9.37256C9.09734 7.90417 8.87451 8.127 8.87451 8.40222C8.87451 8.67718 9.09734 8.90027 9.37256 8.90027Z" />
    <path d="M9.37256 10.6541H11.3406C11.6158 10.6541 11.8387 10.4312 11.8387 10.156C11.8387 9.88078 11.6158 9.65796 11.3406 9.65796H9.37256C9.09734 9.65796 8.87451 9.88078 8.87451 10.156C8.87451 10.4312 9.09734 10.6541 9.37256 10.6541Z" />
    <path d="M32.9224 1.26222C33.1976 1.26222 33.4205 1.0394 33.4205 0.764173C33.4205 0.48895 33.1976 0.266126 32.9224 0.266126H28.0275C28.0198 0.266126 28.0122 0.266904 28.0045 0.267163C27.8387 0.258603 27.6724 0.332532 27.5702 0.478574L25.8509 2.93379L23.6702 1.40671C22.5166 0.598935 21.0868 0.325009 19.7128 0.640439L19.5403 0.519559C18.9034 0.0739108 18.0251 0.230847 17.5813 0.86482L17.1849 1.43083C16.7403 2.06584 16.8952 2.94494 17.5304 3.38955L17.6663 3.48475C17.2108 5.51793 19.4502 7.07614 21.1978 5.95761L21.4761 6.15242C21.0212 8.18248 23.2561 9.74614 25.0074 8.62527L25.286 8.82008C24.8304 10.8533 27.0698 12.4112 28.8172 11.2927L28.9536 11.3884C29.5889 11.833 30.4677 11.6781 30.9123 11.0429L31.3087 10.4769C31.7533 9.84186 31.5984 8.96275 30.9634 8.51814L30.7461 8.36587C30.5725 6.96693 29.826 5.71715 28.6724 4.90912L26.667 3.50525L28.2377 1.26222H32.9224ZM18.6147 4.14908L20.2497 5.29406C19.4663 5.47954 18.7076 4.94647 18.6147 4.14908ZM22.4243 6.81648L24.0595 7.96147C23.2779 8.1472 22.5174 7.61569 22.4243 6.81648ZM26.2341 9.48414C27.2247 10.1778 26.8833 9.93861 27.8693 10.6291C27.0875 10.8149 26.3272 10.2828 26.2341 9.48414ZM30.4926 9.90541L30.0963 10.4714C29.9666 10.6566 29.7103 10.702 29.5248 10.5723C29.3647 10.4603 18.2451 2.67387 18.1016 2.57374C17.9177 2.44482 17.8721 2.18646 18.001 2.00229L18.3973 1.43628C18.5268 1.25158 18.7854 1.20723 18.9688 1.33563L30.392 9.33395C30.5761 9.46287 30.6215 9.72149 30.4926 9.90541ZM29.503 7.49559C28.9788 7.12828 21.1991 1.68115 20.9558 1.51072C21.7177 1.53407 22.4613 1.77635 23.099 2.22278L28.101 5.72519C28.7383 6.17161 29.2205 6.78769 29.503 7.49559Z" />
    <path d="M32.5935 20.8858H18.1621C17.8869 20.8858 17.6641 21.1089 17.6641 21.3839C17.6641 21.6591 17.8869 21.8822 18.1621 21.8822H32.5935C32.8197 21.8822 33.0039 22.0661 33.0039 22.2923V23.2007C33.0039 23.4269 32.8197 23.6111 32.5935 23.6111C32.3647 23.6111 1.80698 23.6111 1.40646 23.6111C1.18027 23.6111 0.996094 23.4272 0.996094 23.2007V22.2923C0.996094 22.0661 1.18027 21.8822 1.40646 21.8822H15.8379C16.1131 21.8822 16.3359 21.6591 16.3359 21.3839C16.3359 21.1089 16.1131 20.8858 15.8379 20.8858H10.1698C10.2094 20.7561 10.2312 20.6184 10.2312 20.4757V19.5673C10.2312 18.7917 9.60037 18.1608 8.82477 18.1608H1.40646C0.630859 18.1608 0 18.7917 0 19.5673V20.4757C0 20.822 0.126328 21.1387 0.334625 21.3841C0.126328 21.6293 0 21.9462 0 22.2923V23.2007C0 23.953 0.594025 24.5672 1.3372 24.6038V25.0427C1.3372 25.8183 1.96832 26.4492 2.74367 26.4492H4.11926V32.7671C4.11926 33.2903 4.54494 33.716 5.06841 33.716H6.00821C6.53142 33.716 6.95735 33.2903 6.95735 32.7671V26.4492H27.0426V32.7671C27.0426 33.2903 27.4683 33.716 27.9918 33.716H28.9316C29.4551 33.716 29.8807 33.2903 29.8807 32.7671V26.4492H31.2561C32.0317 26.4492 32.6625 25.8183 32.6625 25.0427V24.6038C33.406 24.5672 34 23.953 34 23.2007V22.2923C34 21.5169 33.3691 20.8858 32.5935 20.8858ZM0.996094 19.5673C0.996094 19.3411 1.18027 19.1569 1.40646 19.1569H8.82477C9.05096 19.1569 9.23514 19.3411 9.23514 19.5673V20.4757C9.23514 20.7019 9.05096 20.8861 8.82477 20.8861H1.40646C1.18027 20.8861 0.996094 20.7019 0.996094 20.4757V19.5673ZM5.961 32.7199H5.11536V26.4492H5.961V32.7199ZM28.8846 32.7199H28.0387V26.4492H28.8846V32.7199ZM31.6664 25.0427C31.6664 25.2689 31.4825 25.4531 31.2561 25.4531C30.3453 25.4531 3.69514 25.4531 2.74367 25.4531C2.51747 25.4531 2.3333 25.2689 2.3333 25.0427V24.6072H31.6664V25.0427Z" />
    <path d="M15.2044 7.73814C15.4797 7.73814 15.7025 7.51506 15.7025 7.2401V4.50836C15.7025 3.42485 14.821 2.54315 13.7375 2.54315H1.96495C0.881439 2.54315 0 3.42459 0 4.50836V12.2963C0 13.3798 0.881439 14.2613 1.96495 14.2613H13.7375C14.821 14.2613 15.7027 13.3798 15.7027 12.2963V9.56432C15.7027 9.28935 15.4797 9.06627 15.2044 9.06627C14.9295 9.06627 14.7064 9.28935 14.7064 9.56432V12.2963C14.7064 12.8304 14.2716 13.2652 13.7375 13.2652H1.96495C1.43085 13.2652 0.996094 12.8304 0.996094 12.2963V4.50836C0.996094 3.974 1.43085 3.53925 1.96495 3.53925H13.7375C14.2716 3.53925 14.7064 3.974 14.7064 4.50836V7.2401C14.7064 7.51506 14.9295 7.73814 15.2044 7.73814Z" />
    <path d="M2.30908 4.35431C2.03386 4.35431 1.81104 4.57739 1.81104 4.85236V11.9521C1.81104 12.2273 2.03386 12.4502 2.30908 12.4502H13.3932C13.6684 12.4502 13.8913 12.2273 13.8913 11.9521V4.85236C13.8913 4.57739 13.6684 4.35431 13.3932 4.35431H2.30908ZM12.8952 11.4541H2.80713V5.3504H12.8952V11.4541Z" />
  </symbol>
  <symbol id="dental" viewBox="0 0 34 34">
    <path d="M9.28752 9.20285C9.55125 9.12448 9.70148 8.84726 9.62318 8.58353C9.54488 8.31979 9.26766 8.16956 9.00386 8.24786C8.10261 8.51558 7.30098 9.0028 6.68565 9.65672C4.97254 11.4773 5.27745 13.9273 5.35602 14.3999C5.39653 14.6436 5.6076 14.8164 5.84676 14.8164C6.15014 14.8164 6.38877 14.5378 6.33876 14.2366C6.27374 13.8452 6.01984 11.818 7.41116 10.3394C8.03633 9.67506 8.77659 9.3546 9.28752 9.20285ZM20.3522 6.66447C19.712 7.30457 19.7044 8.37771 20.3521 9.01921L21.6449 10.3122C22.0324 10.6994 22.5482 10.9128 23.0972 10.9128C23.6464 10.9128 24.1622 10.6994 24.5497 10.312L28.1938 6.66785C28.8597 6.00749 28.8239 4.88355 28.1359 4.25779C27.4778 3.65906 26.4586 3.69346 25.8157 4.33636L23.0972 7.05479L22.7071 6.66466C22.0683 6.01931 20.9929 6.02383 20.3522 6.66447ZM23.0972 8.16066C23.2927 8.16066 23.4764 8.08455 23.6145 7.94641L26.5201 5.04082C26.7817 4.77914 27.2058 4.75849 27.4654 4.99466C27.7434 5.2475 27.7574 5.69833 27.4893 5.96339L23.8453 9.60751C23.646 9.80682 23.3803 9.91654 23.0972 9.91654C22.8142 9.91654 22.5485 9.80682 22.3493 9.60771L21.0566 8.31488C20.798 8.05885 20.7992 7.62622 21.0566 7.369C21.3141 7.11157 21.7462 7.11018 22.0025 7.369L22.58 7.94647C22.7181 8.08455 22.9018 8.16066 23.0971 8.16066H23.0972ZM24.7435 0.000455653C24.4684 -0.0150854 24.2323 0.191598 24.215 0.466157C24.1977 0.740717 24.4061 0.977353 24.6806 0.994754C28.0336 1.20682 30.6601 4.0068 30.6601 7.36906C30.6601 10.9581 27.7246 13.7563 24.273 13.7563C20.7511 13.7563 17.8859 10.891 17.8859 7.36906C17.8859 4.53367 19.7903 2.00798 22.5172 1.22721C22.7816 1.15149 22.9347 0.875738 22.8589 0.611274C22.7832 0.346876 22.5074 0.193524 22.2429 0.269503C19.4315 1.07445 17.3779 3.48458 16.9666 6.32176C16.5437 6.61299 16.0964 6.94162 15.675 7.15275C14.9868 7.49751 14.4033 7.52866 13.7242 7.25722C13.2181 7.05459 12.7993 6.75452 12.3558 6.43679C11.6271 5.91477 10.8736 5.37495 9.73509 5.29147C8.37239 5.19231 6.83607 5.6434 5.5202 6.52938C3.76166 7.71329 2.62025 9.86965 2.38866 12.4455C2.28267 13.6207 2.36449 14.7363 2.63194 15.7613C2.82162 16.4892 3.15117 17.1638 3.46983 17.8161C3.76146 18.413 4.03682 18.9769 4.21189 19.5745C4.56003 20.7634 4.51594 21.9443 4.46918 23.1944C4.45198 23.6551 4.43418 24.1317 4.4369 24.6124C4.45184 27.3583 4.47044 30.7756 6.66021 32.75C7.53343 33.5373 8.92482 34.3617 10.0616 33.8272C10.9011 33.4325 11.0323 32.551 11.214 31.331C11.3082 30.6986 11.4254 29.9114 11.6609 28.9826C11.715 28.769 11.7694 28.5358 11.827 28.289C11.9061 27.9501 12.0259 27.4667 11.5363 27.3514C11.0567 27.2384 10.9395 27.7086 10.8568 28.0627C10.8003 28.3048 10.747 28.5335 10.6952 28.7379C10.4474 29.7152 10.326 30.5298 10.2286 31.1844C10.0661 32.2757 9.97983 32.7649 9.63792 32.9257C9.08435 33.1856 8.03433 32.6483 7.32741 32.0103C5.46421 30.3304 5.44701 27.1569 5.43313 24.6069C5.43047 24.1476 5.44794 23.682 5.46474 23.2317C5.51236 21.957 5.56164 20.639 5.168 19.2947C4.96908 18.6157 4.66198 17.987 4.36497 17.379C4.05415 16.7427 3.76053 16.1417 3.59589 15.5099C3.35759 14.5965 3.2852 13.5956 3.3809 12.535C3.58553 10.2591 4.56807 8.37146 6.07662 7.35591C7.21112 6.59214 8.51797 6.20189 9.66256 6.28517C10.5214 6.34813 11.1026 6.76462 11.7758 7.24679C12.2478 7.58498 12.736 7.93465 13.3542 8.18225C14.2992 8.56001 15.1785 8.51585 16.1214 8.04351C16.3891 7.90928 16.6449 7.74995 16.8931 7.58345C17.007 11.5559 20.2737 14.7524 24.2731 14.7524C24.82 14.7524 25.3529 14.6921 25.8662 14.5788C25.7202 15.5509 25.4201 16.4647 24.9841 17.2539C23.8139 19.373 23.8382 21.3462 23.8639 23.4353C23.8686 23.8153 23.8735 24.2083 23.8713 24.6094C23.8568 27.1585 23.8387 30.331 21.9762 32.0104C21.2694 32.6483 20.2193 33.1856 19.666 32.9257C19.3239 32.7648 19.2377 32.2756 19.0752 31.1843C18.9777 30.5297 18.8564 29.7152 18.6087 28.7379C18.19 27.0863 17.5084 23.897 15.7243 22.9602C15.1286 22.6474 14.4809 22.6204 13.7993 22.8795C12.8704 23.2323 12.1552 24.0688 11.613 25.4364C11.5116 25.6922 11.6367 25.9817 11.8924 26.083C12.1482 26.1846 12.4377 26.0594 12.5391 25.8036C12.9725 24.7106 13.5005 24.0587 14.1533 23.8107C14.5623 23.6552 14.9247 23.6654 15.2613 23.8423C16.6103 24.5507 17.2856 27.5726 17.643 28.9825C17.8785 29.9114 17.9957 30.6985 18.0899 31.3309C18.2716 32.551 18.4028 33.4325 19.2424 33.8272C20.3939 34.3686 21.7775 33.531 22.6436 32.7501C24.8325 30.7763 24.8519 27.36 24.8676 24.6123C24.8698 24.2048 24.8649 23.8074 24.8602 23.423C24.8351 21.3845 24.8133 19.624 25.8562 17.7354C26.4181 16.7185 26.7793 15.5248 26.9095 14.2654C29.6825 13.2018 31.6566 10.5118 31.6566 7.36893C31.6563 3.48233 28.6198 0.245726 24.7435 0.000455653ZM6.13819 15.7114C5.86396 15.7327 5.65887 15.9724 5.68019 16.2466C5.70257 16.5346 5.74853 16.8226 5.81667 17.1027C5.87206 17.3305 6.07582 17.4832 6.30024 17.4832C6.61617 17.4832 6.85998 17.1768 6.7846 16.8672C6.72908 16.6389 6.69169 16.4042 6.67343 16.1695C6.65204 15.8951 6.41188 15.6894 6.13819 15.7114Z" />
  </symbol>
  <symbol id="arrow-right-more" viewBox="0 0 22 22">
    <path d="M21.8657 10.676L14.9907 3.80104C14.8117 3.62199 14.5216 3.62199 14.3426 3.80104C14.1636 3.98009 14.1636 4.27013 14.3426 4.44913L20.4353 10.5418H0.458348C0.205004 10.5418 0 10.7468 0 11.0001C0 11.2534 0.205004 11.4585 0.458348 11.4585H20.4353L14.3426 17.551C14.1636 17.7301 14.1636 18.0201 14.3426 18.1991C14.4321 18.2886 14.5494 18.3334 14.6667 18.3334C14.784 18.3334 14.9012 18.2886 14.9908 18.1991L21.8658 11.3241C22.0448 11.1451 22.0448 10.8551 21.8657 10.676Z"/>
  </symbol>
  <symbol id="isntagram" viewBox="0 0 39 39">
    <path d="M28.443 0H10.5569C4.73574 0 0 4.73574 0 10.5569V28.4433C0 34.2642 4.73574 38.9999 10.5569 38.9999H28.4433C34.2642 38.9999 38.9999 34.2642 38.9999 28.4433V10.5569C38.9999 4.73574 34.2642 0 28.443 0V0ZM36.7136 28.4433C36.7136 33.0035 33.0035 36.7136 28.443 36.7136H10.5569C5.99644 36.7136 2.28634 33.0035 2.28634 28.4433V10.5569C2.28634 5.99644 5.99644 2.28634 10.5569 2.28634H28.4433C33.0035 2.28634 36.7136 5.99644 36.7136 10.5569V28.4433Z"/>
    <path d="M19.4997 8.83618C13.6196 8.83618 8.83594 13.6198 8.83594 19.4999C8.83594 25.38 13.6196 30.1637 19.4997 30.1637C25.3798 30.1637 30.1634 25.38 30.1634 19.4999C30.1634 13.6198 25.3798 8.83618 19.4997 8.83618ZM19.4997 27.8773C14.8806 27.8773 11.1223 24.1193 11.1223 19.4999C11.1223 14.8808 14.8806 11.1225 19.4997 11.1225C24.1191 11.1225 27.8771 14.8808 27.8771 19.4999C27.8771 24.1193 24.1191 27.8773 19.4997 27.8773Z"/>
    <path d="M30.4191 5.04907C28.6814 5.04907 27.2681 6.46271 27.2681 8.20008C27.2681 9.93775 28.6814 11.3514 30.4191 11.3514C32.1567 11.3514 33.5704 9.93775 33.5704 8.20008C33.5704 6.46241 32.1567 5.04907 30.4191 5.04907ZM30.4191 9.06475C29.9424 9.06475 29.5544 8.67675 29.5544 8.20008C29.5544 7.72312 29.9424 7.33541 30.4191 7.33541C30.896 7.33541 31.284 7.72312 31.284 8.20008C31.284 8.67675 30.896 9.06475 30.4191 9.06475Z"/>
  </symbol>
  <symbol id="email" viewBox="0 0 35 35">
    <path d="M34.9934 13.381C34.9898 13.3408 34.9818 13.3011 34.9695 13.2626C34.9615 13.2282 34.9504 13.1946 34.9363 13.1622C34.92 13.1306 34.9004 13.1006 34.878 13.0729C34.8555 13.0401 34.8294 13.0098 34.8004 12.9825C34.791 12.9744 34.787 12.9632 34.7771 12.9551L29.1669 8.59798V4.0822C29.1669 3.11569 28.3833 2.33212 27.4168 2.33212H21.0949L18.5636 0.366752C17.9383 -0.120949 17.0614 -0.120949 16.4361 0.366752L13.9043 2.33212H7.58234C6.61582 2.33212 5.83225 3.11562 5.83225 4.0822V8.59805L0.22383 12.9552C0.213917 12.9634 0.209815 12.9744 0.200518 12.9826C0.171464 13.0098 0.145418 13.0401 0.122926 13.073C0.100503 13.1007 0.0809514 13.1306 0.0646126 13.1623C0.0504615 13.1946 0.0393867 13.2283 0.0313883 13.2627C0.0192197 13.3006 0.0112212 13.3397 0.00746129 13.3793C0.00746129 13.3916 0.000488281 13.4021 0.000488281 13.4143V33.2503C0.00130864 33.6214 0.121354 33.9823 0.342918 34.2799C0.346404 34.2852 0.34702 34.2916 0.351053 34.2963C0.355155 34.3009 0.363905 34.3062 0.369716 34.3126C0.697448 34.7438 1.20716 34.9981 1.7488 35.0004H33.2504C33.7942 34.9988 34.306 34.7433 34.6341 34.3097C34.6388 34.3039 34.6458 34.3021 34.6499 34.2963C34.654 34.2905 34.6545 34.2853 34.6581 34.28C34.8796 33.9823 34.9997 33.6214 35.0005 33.2504V13.416C35.0004 13.4038 34.9941 13.3932 34.9934 13.381ZM17.1495 1.28726C17.3532 1.12537 17.6417 1.12537 17.8454 1.28726L19.1912 2.33205H15.8078L17.1495 1.28726ZM1.89578 33.8337L17.1496 21.985C17.3534 21.8234 17.6417 21.8234 17.8455 21.985L33.1034 33.8337H1.89578ZM33.8337 32.9242L18.5636 21.0644C17.9381 20.5771 17.0615 20.5771 16.4361 21.0644L1.16539 32.9242V14.3044L10.725 21.7278C10.9797 21.9253 11.3463 21.8789 11.5438 21.6242C11.7413 21.3695 11.6949 21.0029 11.4402 20.8054L1.72836 13.2643L5.83232 10.075V14.5827C5.83232 14.9049 6.09353 15.166 6.41566 15.166C6.73785 15.166 6.999 14.9048 6.999 14.5827V4.08214C6.999 3.75994 7.26014 3.4988 7.58234 3.4988H27.4167C27.7388 3.4988 28 3.75994 28 4.08214V14.5827C28 14.9049 28.2611 15.166 28.5833 15.166C28.9055 15.166 29.1667 14.9048 29.1667 14.5827V10.075L33.2706 13.2643L23.5419 20.8189C23.3746 20.9457 23.2882 21.1527 23.316 21.3608C23.3437 21.569 23.4812 21.7462 23.676 21.8248C23.8707 21.9033 24.0927 21.8712 24.2571 21.7405L33.8336 14.3044V32.9242H33.8337Z"/>
    <path d="M24.4997 13.9983V11.6649C24.4997 7.79871 21.3656 4.66455 17.4994 4.66455C13.6332 4.66455 10.499 7.79871 10.499 11.6649C10.499 15.5311 13.6332 18.6653 17.4994 18.6653C17.8216 18.6653 18.0827 18.4041 18.0827 18.0819C18.0827 17.7597 17.8216 17.4986 17.4994 17.4986C14.2776 17.4986 11.6658 14.8868 11.6658 11.665C11.6658 8.44317 14.2776 5.83137 17.4994 5.83137C20.7212 5.83137 23.333 8.44317 23.333 11.665V13.9984C23.333 14.6428 22.8106 15.1652 22.1662 15.1652C21.5218 15.1652 20.9995 14.6428 20.9995 13.9984V11.665C20.9995 11.3428 20.7383 11.0816 20.4161 11.0816C20.0939 11.0816 19.8328 11.3428 19.8328 11.665C19.8328 12.9537 18.7881 13.9984 17.4994 13.9984C16.2107 13.9984 15.1659 12.9537 15.1659 11.665C15.1659 10.3763 16.2107 9.33155 17.4994 9.33155C17.8216 9.33155 18.0827 9.0704 18.0827 8.74821C18.0827 8.42601 17.8216 8.16487 17.4994 8.16487C15.9328 8.16138 14.5547 9.19919 14.1254 10.7058C13.6961 12.2124 14.32 13.8207 15.6531 14.6435C16.9862 15.4664 18.7036 15.3032 19.8579 14.2441C19.9849 15.4778 21.0572 16.3951 22.2956 16.3295C23.5342 16.2639 24.5036 15.2386 24.4997 13.9983Z"/>
  </symbol>
  <symbol id="facebook" viewBox="0 0 26 27">
    <path d="M14.7031 26.1462H10.5461C9.85177 26.1462 9.28695 25.5902 9.28695 24.9067V15.677H6.8617C6.16736 15.677 5.60254 15.1208 5.60254 14.4375V10.4826C5.60254 9.79908 6.16736 9.24308 6.8617 9.24308H9.28695V7.26259C9.28695 5.29886 9.91337 3.62814 11.0983 2.43135C12.2885 1.22909 13.9519 0.59375 15.9086 0.59375L19.0788 0.598819C19.772 0.599988 20.3358 1.15599 20.3358 1.83831V5.51038C20.3358 6.19388 19.7712 6.74987 19.0771 6.74987L16.9425 6.75065C16.2916 6.75065 16.1258 6.87912 16.0904 6.9185C16.0319 6.98381 15.9624 7.16843 15.9624 7.67822V9.24289H18.9167C19.1391 9.24289 19.3545 9.29689 19.5397 9.39865C19.9392 9.61836 20.1875 10.0338 20.1875 10.4828L20.1859 14.4377C20.1859 15.1208 19.6211 15.6768 18.9268 15.6768H15.9624V24.9067C15.9624 25.5902 15.3974 26.1462 14.7031 26.1462ZM10.8087 24.6482H14.4405V15.0064C14.4405 14.55 14.8177 14.1788 15.2812 14.1788H18.6641L18.6655 10.7411H15.281C14.8175 10.7411 14.4405 10.3699 14.4405 9.91352V7.67822C14.4405 7.09298 14.5009 6.42743 14.9496 5.92719C15.4919 5.32245 16.3464 5.25266 16.9422 5.25266L18.8141 5.25188V2.09642L15.9074 2.09174C12.7628 2.09174 10.8087 4.07321 10.8087 7.26259V9.91352C10.8087 10.3697 10.4316 10.7411 9.96822 10.7411H7.12431V14.1788H9.96822C10.4316 14.1788 10.8087 14.55 10.8087 15.0064V24.6482ZM19.0759 2.09681H19.0761H19.0759Z"/>
  </symbol>
  <symbol id="youtube" viewBox="0 0 32 31">
    <path d="M20.9008 14.0335L13.9931 10.3057C13.5959 10.0913 13.1265 10.0993 12.7371 10.3269C12.3476 10.5546 12.1152 10.9569 12.1152 11.4035V18.7952C12.1152 19.2397 12.3462 19.6413 12.7331 19.8693C12.9351 19.9883 13.1591 20.0481 13.3836 20.0481C13.5892 20.0481 13.7953 19.998 13.985 19.8973L20.8929 16.2337C21.303 16.016 21.559 15.5956 21.5609 15.1361C21.5626 14.6766 21.3097 14.2542 20.9008 14.0335ZM13.9475 17.8654V12.3409L19.1103 15.1271L13.9475 17.8654Z"/>
    <path d="M31.492 9.24732L31.4906 9.2332C31.4641 8.98498 31.2005 6.77707 30.1122 5.65406C28.8543 4.33317 27.4283 4.17271 26.7424 4.09577C26.6857 4.08942 26.6337 4.08354 26.5871 4.07742L26.5325 4.07177C22.3989 3.77531 16.1563 3.73485 16.0938 3.73461L16.0883 3.73438L16.0828 3.73461C16.0203 3.73485 9.77764 3.77531 5.60682 4.07177L5.55171 4.07742C5.50734 4.0833 5.45844 4.08871 5.40524 4.09483C4.72728 4.172 3.31649 4.3327 2.05503 5.70135C1.01852 6.81236 0.718904 8.97298 0.688131 9.21579L0.684553 9.24732C0.67525 9.35061 0.45459 11.8096 0.45459 14.2782V16.5858C0.45459 19.0544 0.67525 21.5134 0.684553 21.6169L0.686223 21.6324C0.712702 21.8767 0.976062 24.0441 2.05932 25.1676C3.24206 26.4442 4.73753 26.6132 5.54193 26.704C5.66908 26.7183 5.77857 26.7306 5.85324 26.7435L5.92552 26.7534C8.31222 26.9774 15.7953 27.0877 16.1126 27.0922L16.1221 27.0924L16.1317 27.0922C16.1942 27.092 22.4366 27.0515 26.5702 26.755L26.6248 26.7494C26.6771 26.7426 26.7358 26.7365 26.8002 26.7299C27.4743 26.6593 28.8775 26.5127 30.1215 25.1626C31.158 24.0514 31.4579 21.8908 31.4884 21.6482L31.492 21.6167C31.5013 21.5131 31.7222 19.0544 31.7222 16.5858V14.2782C31.722 11.8096 31.5013 9.35084 31.492 9.24732ZM29.8896 16.5858C29.8896 18.8707 29.6873 21.2237 29.6683 21.4397C29.5905 22.0348 29.2744 23.4018 28.7694 23.9432C27.9908 24.7881 27.1909 24.8718 26.6069 24.9328C26.5363 24.9401 26.471 24.9471 26.4118 24.9544C22.4137 25.2396 16.4067 25.2833 16.13 25.285C15.8197 25.2805 8.44605 25.1692 6.1321 24.9572C6.01354 24.9382 5.88544 24.9236 5.75042 24.9085C5.06554 24.8311 4.12804 24.7252 3.40714 23.9432L3.3902 23.9253C2.89401 23.4154 2.587 22.1371 2.50899 21.4468C2.49444 21.2835 2.2869 18.9027 2.2869 16.5858V14.2782C2.2869 11.9959 2.48871 9.64542 2.50828 9.42496C2.60107 8.72405 2.92312 7.43986 3.40714 6.92083C4.20962 6.05028 5.05576 5.95381 5.6154 5.89005C5.66884 5.88393 5.7187 5.87828 5.76474 5.8724C9.82106 5.58583 15.8712 5.54324 16.0883 5.54159C16.3054 5.543 22.3533 5.58583 26.3736 5.8724C26.423 5.87852 26.4769 5.88464 26.5349 5.89122C27.1105 5.95593 27.9805 6.05381 28.7789 6.89377L28.7863 6.90153C29.2825 7.4114 29.5895 8.71205 29.6675 9.41625C29.6814 9.57036 29.8896 11.9564 29.8896 14.2782V16.5858Z"/>
  </symbol>
  <symbol id="call-center" viewBox="0 0 46 46">
    <path d="M37.3308 40.0645L35.6132 34.9111C35.013 33.1119 33.4816 31.7838 31.6149 31.444L26.6566 30.5418V30.1575C27.5194 29.6567 28.2703 28.9867 28.8683 28.1936H30.3662C31.5934 28.1936 32.592 27.1949 32.592 25.9678V17.0645C32.592 11.7463 28.2651 7.41937 22.9469 7.41937C17.6287 7.41937 13.3017 11.7463 13.3017 17.0645V22.2581C13.3017 23.6885 14.3189 24.8853 15.6677 25.1642C16.084 27.2966 17.4165 29.101 19.2372 30.1575V30.5418L14.2781 31.444C12.4121 31.7838 10.88 33.1119 10.2805 34.9111L9.98378 35.8021L7.45674 33.2751C7.16739 32.9857 7.16739 32.5146 7.45674 32.2252L10.3874 29.2953L4.88668 23.7946L1.57468 27.1066C0.59384 28.0875 0.0537109 29.3918 0.0537109 30.7792C0.0537109 32.1666 0.59384 33.4702 1.57468 34.451L11.6019 44.4783C12.5828 45.4591 13.8871 46 15.2745 46C16.6619 46 17.9655 45.4591 18.9234 44.5006L22.5373 41.1893L21.4103 40.0645H37.3308ZM31.1082 25.9678C31.1082 26.3773 30.775 26.7097 30.3662 26.7097H29.7423C29.9574 26.2193 30.1206 25.7021 30.226 25.1642C30.5436 25.0982 30.8359 24.9721 31.1082 24.8133V25.9678ZM30.3662 23.5357V20.9805C30.8077 21.2379 31.1082 21.7113 31.1082 22.2581C31.1082 22.8049 30.8077 23.2782 30.3662 23.5357ZM15.5275 23.5357C15.0861 23.2782 14.7856 22.8049 14.7856 22.2581C14.7856 21.7113 15.0861 21.2379 15.5275 20.9805V23.5357ZM15.5275 18.5484V19.3957C15.2634 19.4647 15.0156 19.5686 14.7856 19.7029V17.0645C14.7856 12.5647 18.447 8.90324 22.9469 8.90324C27.4467 8.90324 31.1082 12.5647 31.1082 17.0645V19.7029C30.8782 19.5686 30.6304 19.464 30.3662 19.3957V18.5484H29.6243C27.4304 18.5484 25.3678 17.6937 23.8157 16.1423L22.9469 15.2735L22.0781 16.1423C20.5259 17.6937 18.4634 18.5484 16.2695 18.5484H15.5275ZM17.0114 23.742V20.0041C19.2394 19.8364 21.3168 18.9171 22.9469 17.3672C24.5769 18.9171 26.6543 19.8371 28.8824 20.0041V23.742C28.8824 24.8237 28.5871 25.8357 28.0796 26.7097H22.9469V28.1936H26.8598C25.8137 29.1143 24.4463 29.6774 22.9469 29.6774C19.6742 29.6774 17.0114 27.0146 17.0114 23.742ZM25.1727 30.8193V30.8541L22.9469 33.08L20.7211 30.8541V30.8193C21.4244 31.0404 22.1715 31.1613 22.9469 31.1613C23.7222 31.1613 24.4693 31.0404 25.1727 30.8193ZM11.6873 35.38C12.1154 34.0949 13.2097 33.146 14.543 32.9026L19.7291 31.9604L22.9469 35.1781L26.1639 31.9611L31.3493 32.9034C32.6826 33.1467 33.7769 34.0949 34.205 35.3807L35.2726 38.5807H19.9265L17.0366 35.6908L13.8255 38.5955C13.5458 38.8767 13.0569 38.8767 12.7764 38.5955L11.156 36.9751L11.6873 35.38ZM4.88594 25.8928L8.28845 29.2953L7.48271 30.1011L4.08019 26.6986L4.88594 25.8928ZM17.8958 43.4307C17.1954 44.1296 16.2635 44.5161 15.273 44.5161C14.2825 44.5161 13.3507 44.1296 12.6495 43.4292L2.62229 33.4027C1.9219 32.7023 1.5361 31.7704 1.5361 30.78C1.5361 29.7887 1.9219 28.8569 2.62229 28.1565L3.03036 27.7484L6.43287 31.1509L6.40616 31.1776C5.53884 32.0457 5.53884 33.4576 6.40616 34.3257L11.7266 39.6461C12.1473 40.066 12.7059 40.2982 13.301 40.2982C13.896 40.2982 14.4547 40.0668 14.8479 39.6721L14.9035 39.6223L18.3216 43.0404L17.8958 43.4307ZM19.4167 42.0359L16.0061 38.6252L16.9862 37.7393L20.3909 41.1441L19.4167 42.0359Z" fill="white"/>
    <path d="M43.7213 0H33.3342C32.107 0 31.1084 0.998645 31.1084 2.22581V8.16129C31.1084 9.38845 32.107 10.3871 33.3342 10.3871H35.3159L34.5488 14.8617L41.7084 10.3871H43.7213C44.9485 10.3871 45.9471 9.38845 45.9471 8.16129V2.22581C45.9471 0.998645 44.9485 0 43.7213 0ZM44.4632 8.16129C44.4632 8.5701 44.1301 8.90323 43.7213 8.90323H41.2826L36.5705 11.848L37.0758 8.90323H33.3342C32.9254 8.90323 32.5923 8.5701 32.5923 8.16129V2.22581C32.5923 1.817 32.9254 1.48387 33.3342 1.48387H43.7213C44.1301 1.48387 44.4632 1.817 44.4632 2.22581V8.16129Z" fill="white"/>
    <path d="M42.9794 2.96774H34.0762V4.45161H42.9794V2.96774Z" fill="white"/>
    <path d="M40.0117 5.93549H34.0762V7.41936H40.0117V5.93549Z" fill="white"/>
    <path d="M42.979 5.93549H41.4951V7.41936H42.979V5.93549Z" fill="white"/>
    <path d="M22.9466 2.2258C13.2525 2.2258 4.90202 8.93141 2.73112 18.285L1.32515 15.9412L0.0527344 16.7047L2.66064 21.0502L7.00615 18.4423L6.2427 17.1699L4.23206 18.3763C6.3347 9.81951 14.0293 3.70967 22.9466 3.70967C24.8957 3.70967 26.8188 3.99903 28.6625 4.57032L29.1017 3.15322C27.1156 2.53741 25.0448 2.2258 22.9466 2.2258Z" fill="white"/>
    <path d="M45.5862 16.4279L41.2406 13.82L38.6335 18.1663L39.9059 18.9297L41.2043 16.7655C41.8876 18.765 42.2371 20.8566 42.2371 23C42.2371 27.4123 40.7087 31.7259 37.9346 35.1455L39.0868 36.0803C42.0753 32.3974 43.7209 27.7514 43.7209 23C43.7209 20.7304 43.3552 18.5143 42.6422 16.3923L44.8227 17.7004L45.5862 16.4279Z" fill="white"/>
  </symbol>
  <symbol id="countdown-ico" viewBox="0 0 60 60">
    <path d="M44.2271 14.6855L46.5985 10.5605C46.7068 10.3719 46.7359 10.148 46.6792 9.93796C46.6225 9.72795 46.4847 9.54907 46.2961 9.44064L42.9432 7.51455C42.7545 7.40621 42.5305 7.37725 42.3205 7.43403C42.1105 7.49082 41.9317 7.62871 41.8233 7.81736L39.4557 11.9381C37.3208 11.0173 35.0624 10.4149 32.7525 10.1503V7.64298H34.4166C34.6342 7.64298 34.8428 7.55656 34.9966 7.40272C35.1505 7.24888 35.2369 7.04023 35.2369 6.82267V2.95642C35.237 2.84868 35.2158 2.74198 35.1746 2.64243C35.1334 2.54288 35.073 2.45242 34.9968 2.37624C34.9206 2.30005 34.8301 2.23963 34.7306 2.19843C34.631 2.15722 34.5243 2.13605 34.4166 2.13611H25.5816C25.4739 2.13605 25.3672 2.15722 25.2676 2.19843C25.1681 2.23963 25.0776 2.30005 25.0014 2.37624C24.9252 2.45242 24.8648 2.54288 24.8236 2.64243C24.7824 2.74198 24.7612 2.84868 24.7613 2.95642V6.82267C24.7613 7.04023 24.8477 7.24888 25.0015 7.40272C25.1554 7.55656 25.364 7.64298 25.5816 7.64298H27.2457V10.148C24.9358 10.4126 22.6774 11.015 20.5425 11.9358L18.1749 7.81501C18.1213 7.72156 18.0498 7.63958 17.9645 7.57378C17.8792 7.50797 17.7817 7.45963 17.6777 7.4315C17.5737 7.40338 17.4652 7.39603 17.3583 7.40988C17.2515 7.42373 17.1484 7.4585 17.055 7.5122L13.7021 9.4383C13.5135 9.54672 13.3757 9.72561 13.319 9.93561C13.2623 10.1456 13.2913 10.3695 13.3997 10.5581L15.7711 14.6855C11.7187 17.6803 8.71459 21.8774 7.18666 26.6791C5.65873 31.4808 5.6849 36.6422 7.26145 41.4282C8.838 46.2142 11.8845 50.3806 15.9671 53.3342C20.0497 56.2877 24.9602 57.8777 29.9991 57.8777C35.038 57.8777 39.9485 56.2877 44.0311 53.3342C48.1137 50.3806 51.1602 46.2142 52.7367 41.4282C54.3133 36.6422 54.3395 31.4808 52.8115 26.6791C51.2836 21.8774 48.2795 17.6803 44.2271 14.6855ZM42.8372 9.34173L44.7671 10.4531L42.8696 13.756C42.2446 13.3566 41.6019 12.986 40.9416 12.6441L42.8372 9.34173ZM26.4019 3.77673H33.5963V6.00236H26.4019V3.77673ZM28.8863 7.64298H31.1119V10.0135C30.743 9.99611 30.3741 9.98439 29.9991 9.98439C29.6241 9.98439 29.2552 9.99564 28.8863 10.013V7.64298ZM15.2311 10.4531L17.161 9.34455L19.0566 12.6441C18.3957 12.9853 17.753 13.356 17.1286 13.756L15.2311 10.4531ZM29.9991 56.2233C25.5888 56.2233 21.2775 54.9155 17.6104 52.4652C13.9434 50.015 11.0853 46.5323 9.39755 42.4577C7.70982 38.3831 7.26825 33.8995 8.1287 29.5739C8.98914 25.2483 11.113 21.2751 14.2316 18.1565C17.3502 15.038 21.3235 12.9142 25.6491 12.0539C29.9747 11.1935 34.4583 11.6352 38.5328 13.323C42.6074 15.0108 46.09 17.869 48.5402 21.5361C50.9904 25.2032 52.2981 29.5145 52.298 33.9249C52.2912 39.8368 49.9396 45.5046 45.7592 49.6849C41.5788 53.8652 35.911 56.2166 29.9991 56.2233Z" fill="black"/>
    <path d="M46.1278 43.1536C47.7501 40.3304 48.5996 37.1294 48.5907 33.8733C48.5818 30.6171 47.7148 27.4209 46.0771 24.6066C46.0663 24.5785 46.0537 24.5511 46.0396 24.5245C46.0251 24.5027 46.0094 24.4815 45.9928 24.4612C44.3788 21.7461 42.1042 19.4834 39.3806 17.8837C39.3582 17.8653 39.3347 17.8482 39.3102 17.8326C39.2837 17.8188 39.2563 17.8066 39.2282 17.7961C36.4052 16.1737 33.2044 15.3241 29.9484 15.3329C26.6925 15.3417 23.4963 16.2086 20.6821 17.8462C20.6536 17.8575 20.6258 17.8703 20.5987 17.8847C20.5771 17.8992 20.5563 17.9149 20.5363 17.9316C17.8208 19.5455 15.5576 21.8201 13.9574 24.5437C13.9186 24.5881 13.8889 24.6397 13.8702 24.6956C12.2479 27.5187 11.3984 30.7196 11.4073 33.9757C11.4162 37.2317 12.2832 40.4279 13.9209 43.2422C13.9318 43.2703 13.9443 43.2979 13.9584 43.3247C13.9687 43.3425 13.9842 43.3556 13.9954 43.3715C15.6096 46.0932 17.8872 48.3613 20.6156 49.964C20.6385 49.9827 20.6624 50.0001 20.6873 50.0161C20.7079 50.0278 20.7304 50.0325 20.7515 50.0428C23.5796 51.6717 26.7879 52.5247 30.0516 52.5154C33.3153 52.5061 36.5186 51.6348 39.3374 49.9898C39.3576 49.98 39.3792 49.9758 39.3988 49.964C39.4185 49.9523 39.4401 49.9336 39.4612 49.9172C42.1829 48.2997 44.4501 46.0187 46.0509 43.2872C46.0635 43.2689 46.0795 43.2553 46.0907 43.2356C46.1049 43.2091 46.1172 43.1817 46.1278 43.1536ZM39.2629 48.1092L38.2087 46.3125C38.0987 46.1248 37.9186 45.9884 37.708 45.9335C37.4975 45.8785 37.2738 45.9095 37.086 46.0195C36.8983 46.1295 36.762 46.3096 36.707 46.5202C36.6521 46.7307 36.683 46.9544 36.7931 47.1422L37.8487 48.9431C35.6728 50.0868 33.2728 50.7399 30.8174 50.8565V48.7636C30.8174 48.546 30.731 48.3374 30.5772 48.1835C30.4233 48.0297 30.2147 47.9433 29.9971 47.9433C29.7796 47.9433 29.5709 48.0297 29.4171 48.1835C29.2632 48.3374 29.1768 48.546 29.1768 48.7636V50.8565C26.7542 50.7403 24.3854 50.1017 22.2327 48.9844L23.2781 47.1783C23.3836 46.9902 23.4108 46.7681 23.3539 46.5601C23.2969 46.3521 23.1603 46.1749 22.9736 46.0668C22.7869 45.9588 22.5652 45.9286 22.3565 45.9828C22.1477 46.0371 21.9687 46.1713 21.8582 46.3565L20.8143 48.1608C18.8199 46.8691 17.1169 45.1755 15.8142 43.1883L17.6127 42.1345C17.7994 42.024 17.9348 41.8441 17.9891 41.6341C18.0435 41.4241 18.0125 41.2011 17.9028 41.0139C17.7932 40.8267 17.6139 40.6906 17.4041 40.6353C17.1943 40.58 16.9712 40.6101 16.7835 40.7189L14.9826 41.7745C13.8387 39.5987 13.1854 37.1987 13.0687 34.7433H15.1617C15.3792 34.7433 15.5879 34.6568 15.7417 34.503C15.8955 34.3492 15.982 34.1405 15.982 33.923C15.982 33.7054 15.8955 33.4967 15.7417 33.3429C15.5879 33.1891 15.3792 33.1026 15.1617 33.1026H13.0687C13.1843 30.6796 13.8225 28.3101 14.9395 26.1567L16.746 27.2016C16.934 27.3049 17.1549 27.3306 17.3616 27.273C17.5682 27.2154 17.7441 27.0792 17.8515 26.8935C17.9589 26.7078 17.9893 26.4875 17.9362 26.2797C17.883 26.0718 17.7506 25.8931 17.5673 25.7817L15.7635 24.7378C17.0551 22.7441 18.7484 21.0418 20.7351 19.7395L21.7893 21.5381C21.8998 21.7248 22.0797 21.8602 22.2897 21.9145C22.4997 21.9689 22.7227 21.9378 22.9099 21.8282C23.0971 21.7186 23.2332 21.5392 23.2885 21.3295C23.3438 21.1197 23.3138 20.8966 23.2049 20.7089L22.1493 18.908C24.3251 17.764 26.7251 17.1109 29.1806 16.9945V19.087C29.1806 19.3046 29.267 19.5132 29.4208 19.6671C29.5747 19.8209 29.7833 19.9073 30.0009 19.9073C30.2184 19.9073 30.4271 19.8209 30.5809 19.6671C30.7348 19.5132 30.8212 19.3046 30.8212 19.087V16.9945C33.2442 17.11 35.6137 17.7481 37.7671 18.8648L36.7199 20.6719C36.6643 20.7652 36.6277 20.8686 36.6123 20.9761C36.597 21.0837 36.6031 21.1932 36.6304 21.2984C36.6578 21.4035 36.7057 21.5022 36.7714 21.5887C36.8372 21.6751 36.9195 21.7477 37.0135 21.8021C37.1075 21.8565 37.2114 21.8917 37.3192 21.9057C37.4269 21.9196 37.5364 21.912 37.6411 21.8833C37.7459 21.8546 37.844 21.8054 37.9296 21.7385C38.0152 21.6716 38.0866 21.5883 38.1398 21.4936L39.1837 19.6875C41.1782 20.9795 42.8812 22.6734 44.1838 24.6609L42.3853 25.7147C42.2918 25.7689 42.21 25.841 42.1445 25.9269C42.0789 26.0128 42.031 26.1108 42.0035 26.2152C41.976 26.3197 41.9693 26.4286 41.984 26.5356C41.9987 26.6426 42.0343 26.7457 42.0889 26.8389C42.1435 26.9322 42.216 27.0137 42.3022 27.0788C42.3884 27.1439 42.4866 27.1914 42.5912 27.2185C42.6957 27.2455 42.8046 27.2517 42.9116 27.2366C43.0186 27.2214 43.1215 27.1853 43.2145 27.1303L45.0159 26.0747C46.1593 28.2506 46.8125 30.6506 46.9293 33.1059H44.8363C44.6188 33.1059 44.4101 33.1924 44.2563 33.3462C44.1025 33.5 44.016 33.7087 44.016 33.9262C44.016 34.1438 44.1025 34.3524 44.2563 34.5063C44.4101 34.6601 44.6188 34.7465 44.8363 34.7465H46.9293C46.8134 37.169 46.1752 39.5378 45.0585 41.6906L43.2524 40.6453C43.0641 40.5363 42.8402 40.5066 42.6299 40.5628C42.4197 40.6189 42.2404 40.7563 42.1314 40.9446C42.0225 41.1329 41.9928 41.3569 42.0489 41.5671C42.105 41.7773 42.2424 41.9566 42.4307 42.0656L44.2345 43.1095C42.9431 45.1037 41.2498 46.8066 39.2629 48.1092Z" fill="black"/>
    <path d="M42.3717 33.9249C42.3717 33.7073 42.2852 33.4987 42.1314 33.3448C41.9776 33.191 41.7689 33.1046 41.5513 33.1046H33.6529C33.4963 32.413 33.1471 31.7799 32.6457 31.2784C32.1444 30.777 31.5113 30.4277 30.8198 30.271V22.373C30.8198 22.1554 30.7333 21.9468 30.5795 21.7929C30.4257 21.6391 30.217 21.5527 29.9995 21.5527C29.7819 21.5527 29.5732 21.6391 29.4194 21.7929C29.2656 21.9468 29.1791 22.1554 29.1791 22.373V30.271C28.5247 30.4175 27.9216 30.7371 27.4328 31.1964C26.944 31.6556 26.5875 32.2377 26.4005 32.8818C26.2135 33.5259 26.2029 34.2084 26.3697 34.858C26.5365 35.5076 26.8747 36.1005 27.3489 36.5747C27.8232 37.049 28.416 37.3872 29.0656 37.5541C29.7152 37.721 30.3977 37.7105 31.0418 37.5235C31.6859 37.3366 32.268 36.9802 32.7273 36.4914C33.1866 36.0027 33.5063 35.3996 33.6529 34.7452H41.5513C41.7689 34.7451 41.9774 34.6586 42.1313 34.5048C42.2851 34.351 42.3715 34.1424 42.3717 33.9249ZM29.9995 36.031C29.5828 36.031 29.1754 35.9076 28.8289 35.6761C28.4824 35.4447 28.2124 35.1157 28.0529 34.7308C27.8934 34.3458 27.8516 33.9222 27.9329 33.5135C28.0141 33.1049 28.2148 32.7295 28.5094 32.4348C28.8041 32.1402 29.1795 31.9396 29.5881 31.8583C29.9968 31.777 30.4204 31.8188 30.8054 31.9783C31.1903 32.1378 31.5193 32.4078 31.7507 32.7543C31.9822 33.1008 32.1056 33.5082 32.1056 33.9249C32.1047 34.4832 31.8825 35.0184 31.4877 35.4131C31.093 35.8079 30.5578 36.0301 29.9995 36.031Z" fill="#F18D2A"/>
  </symbol>
  <symbol id="advertaisment" viewBox="0 0 24 24">
    <path d="M3.75 20.625V19.5H10.875V18.75H1.875C1.77554 18.75 1.68016 18.7105 1.60984 18.6402C1.53951 18.5698 1.5 18.4745 1.5 18.375V4.5H18.75V10.875H19.5V6.375H21V10.125H21.75V4.125C21.75 3.82663 21.6315 3.54048 21.4205 3.3295C21.2095 3.11853 20.9234 3 20.625 3H19.5V1.875C19.5 1.57663 19.3815 1.29048 19.1705 1.0795C18.9595 0.868526 18.6734 0.75 18.375 0.75H1.875C1.57663 0.75 1.29048 0.868526 1.0795 1.0795C0.868526 1.29048 0.75 1.57663 0.75 1.875V18.375C0.75 18.6734 0.868526 18.9595 1.0795 19.1705C1.29048 19.3815 1.57663 19.5 1.875 19.5H3V20.625C3 20.9234 3.11853 21.2095 3.3295 21.4205C3.54048 21.6315 3.82663 21.75 4.125 21.75H13.5V21H4.125C4.02554 21 3.93016 20.9605 3.85984 20.8902C3.78951 20.8198 3.75 20.7245 3.75 20.625ZM20.625 3.75C20.7245 3.75 20.8198 3.78951 20.8902 3.85984C20.9605 3.93016 21 4.02554 21 4.125V5.625H19.5V3.75H20.625ZM1.875 1.5H18.375C18.4745 1.5 18.5698 1.53951 18.6402 1.60984C18.7105 1.68016 18.75 1.77554 18.75 1.875V3.75H1.5V1.875C1.5 1.77554 1.53951 1.68016 1.60984 1.60984C1.68016 1.53951 1.77554 1.5 1.875 1.5Z" fill="white"/>
    <path d="M21 20.625C21 20.7245 20.9605 20.8198 20.8902 20.8902C20.8198 20.9605 20.7245 21 20.625 21H18.375V21.75H20.625C20.9234 21.75 21.2095 21.6315 21.4205 21.4205C21.6315 21.2095 21.75 20.9234 21.75 20.625V19.125H21V20.625Z" fill="white"/>
    <path d="M3 2.25H3.75V3H3V2.25Z" fill="white"/>
    <path d="M4.5 2.25H5.25V3H4.5V2.25Z" fill="white"/>
    <path d="M6 2.25H6.75V3H6V2.25Z" fill="white"/>
    <path d="M7.875 10.5C7.97446 10.5 8.06984 10.4605 8.14017 10.3902C8.21049 10.3198 8.25 10.2245 8.25 10.125V6.375C8.25 6.27554 8.21049 6.18016 8.14017 6.10983C8.06984 6.03951 7.97446 6 7.875 6H3.375C3.27554 6 3.18016 6.03951 3.10984 6.10983C3.03951 6.18016 3 6.27554 3 6.375V10.125C3 10.2245 3.03951 10.3198 3.10984 10.3902C3.18016 10.4605 3.27554 10.5 3.375 10.5H7.875ZM3.75 6.75H7.5V9.75H3.75V6.75Z" fill="white"/>
    <path d="M9.75 6H10.5V6.75H9.75V6Z" fill="white"/>
    <path d="M11.25 6H12V6.75H11.25V6Z" fill="white"/>
    <path d="M12.75 6H15.75V6.75H12.75V6Z" fill="white"/>
    <path d="M9.75 7.5H15.75V8.25H9.75V7.5Z" fill="white"/>
    <path d="M9.75 9H15.75V9.75H9.75V9Z" fill="white"/>
    <path d="M9.75 10.5H15.75V11.25H9.75V10.5Z" fill="white"/>
    <path d="M3 12H9.75V12.75H3V12Z" fill="white"/>
    <path d="M3 13.5H9.75V14.25H3V13.5Z" fill="white"/>
    <path d="M3 15H9.75V15.75H3V15Z" fill="white"/>
    <path d="M3 16.5H9.75V17.25H3V16.5Z" fill="white"/>
    <path d="M16.4275 18.9244L19.2643 18.5156C19.4374 18.6978 19.6668 18.8163 19.9156 18.8522C20.1643 18.888 20.4178 18.8391 20.6353 18.7133C20.8937 18.5638 21.0822 18.318 21.1595 18.0298C21.2368 17.7416 21.1967 17.4344 21.0478 17.1758L20.1103 15.552C20.3689 15.4028 20.5576 15.157 20.635 14.8687C20.7124 14.5803 20.672 14.2731 20.5228 14.0145C20.3736 13.7559 20.1278 13.5672 19.8395 13.4898C19.5512 13.4125 19.2439 13.4528 18.9853 13.602L18.0478 11.9783C17.9088 11.7436 17.6892 11.5674 17.4299 11.4826C17.1707 11.3977 16.8894 11.4099 16.6385 11.517C16.3876 11.624 16.1842 11.8186 16.066 12.0644C15.9478 12.3103 15.923 12.5907 15.9962 12.8535L13.6765 15.801L11.7902 16.8885C11.5319 17.0379 11.3434 17.2837 11.266 17.572C11.1887 17.8602 11.2289 18.1673 11.3777 18.426L12.1277 19.725C12.2015 19.8531 12.2999 19.9654 12.4171 20.0555C12.5343 20.1455 12.6682 20.2116 12.811 20.2499C12.9538 20.2882 13.1027 20.298 13.2493 20.2787C13.3959 20.2594 13.5372 20.2115 13.6652 20.1375L14.9777 22.4108C15.0515 22.5389 15.1499 22.6511 15.2671 22.7412C15.3843 22.8313 15.5182 22.8974 15.661 22.9357C15.8038 22.974 15.9527 22.9838 16.0993 22.9645C16.2459 22.9452 16.3872 22.8972 16.5152 22.8233L17.1647 22.4483C17.2928 22.3744 17.4051 22.2761 17.4952 22.1589C17.5852 22.0416 17.6513 21.9078 17.6896 21.765C17.7279 21.6222 17.7377 21.4733 17.7184 21.3267C17.6992 21.1801 17.6512 21.0388 17.5772 20.9108L16.4275 18.9244ZM19.8718 14.3906C19.9216 14.4767 19.9351 14.579 19.9095 14.6751C19.8838 14.7712 19.821 14.8531 19.735 14.9029L19.36 14.2534C19.4461 14.2038 19.5483 14.1904 19.6443 14.2161C19.7403 14.2418 19.8221 14.3046 19.8718 14.3906ZM16.8853 12.2183C16.9714 12.1685 17.0737 12.155 17.1698 12.1806C17.2659 12.2063 17.3478 12.2691 17.3976 12.3551L20.3976 17.5515C20.424 17.5942 20.4416 17.6417 20.4493 17.6914C20.4569 17.741 20.4546 17.7916 20.4423 17.8403C20.4301 17.889 20.4082 17.9347 20.378 17.9748C20.3477 18.0148 20.3097 18.0484 20.2663 18.0735C20.2228 18.0986 20.1747 18.1147 20.1249 18.1209C20.0751 18.1271 20.0246 18.1233 19.9763 18.1095C19.928 18.0958 19.8829 18.0726 19.8438 18.0411C19.8047 18.0097 19.7722 17.9707 19.7485 17.9265L16.7485 12.7301C16.6988 12.6441 16.6854 12.5418 16.711 12.4459C16.7367 12.3499 16.7994 12.268 16.8853 12.2183ZM16.3757 13.5848L18.8218 17.8223L15.6235 18.2828L14.3773 16.125L16.3757 13.5848ZM13.7882 16.6043L14.9132 18.5543L14.2637 18.9293L13.1387 16.9793L13.7882 16.6043ZM12.7757 19.353L12.0257 18.054C11.976 17.9679 11.9625 17.8655 11.9882 17.7695C12.014 17.6734 12.0768 17.5915 12.163 17.5418L12.4877 17.3543L13.6127 19.3043L13.288 19.4918C13.2018 19.5408 13.0998 19.5537 13.0041 19.5277C12.9085 19.5017 12.8271 19.4389 12.7776 19.353H12.7757ZM16.7882 21.8003L16.1387 22.1753C16.0526 22.225 15.9502 22.2385 15.8542 22.2127C15.7581 22.187 15.6762 22.1241 15.6265 22.038L14.314 19.7648L15.5515 19.0523L15.6265 19.0414L16.9243 21.2895C16.9737 21.3753 16.9871 21.4772 16.9617 21.5729C16.9363 21.6685 16.8741 21.7503 16.7886 21.8003H16.7882Z" fill="white"/>
    <path d="M20.9834 13.3163L22.2824 12.5663L22.6574 13.2158L21.3584 13.9658L20.9834 13.3163Z" fill="white"/>
    <path d="M19.7383 12.433L20.1503 10.8961L20.8748 11.0903L20.4627 12.6272L19.7383 12.433Z" fill="white"/>
    <path d="M21.5039 15.4907L21.6981 14.7663L23.235 15.1784L23.0407 15.9028L21.5039 15.4907Z" fill="white"/>
  </symbol>
  <symbol id="done" viewBox="0 0 28 28">
    <path d="M27.589 4.12864C27.0423 3.58188 26.1559 3.58188 25.6091 4.12864L8.83622 20.9017L2.389 14.4545C1.84229 13.9077 0.955918 13.9078 0.409098 14.4545C-0.137668 15.0012 -0.137668 15.8875 0.409098 16.4343L7.84627 23.8714C8.39282 24.4181 9.27985 24.4177 9.82618 23.8714L27.589 6.10855C28.1358 5.56184 28.1357 4.67541 27.589 4.12864Z" fill="white"/>
  </symbol>
  <symbol id="close" viewBox="0 0 56 56">
    <path d="M53,49.5c1,1,1,2.6,0,3.5c-0.5,0.5-1.1,0.7-1.8,0.7S50,53.5,49.5,53L26.9,30.4L4.3,53c-0.5,0.5-1.1,0.7-1.8,0.7
    S1.2,53.5,0.7,53c-1-1-1-2.6,0-3.5l22.6-22.6L0.7,4.3c-1-1-1-2.6,0-3.5c1-1,2.6-1,3.5,0l22.6,22.6L49.5,0.7c1-1,2.6-1,3.5,0
    c1,1,1,2.6,0,3.5L30.4,26.9L53,49.5z"/>
  </symbol>
  <symbol id="document" viewBox="0 0 144 180">
    <path d="M142.903 39.9565C142.707 39.9565 142.707 39.7606 142.511 39.5647C142.315 39.3689 142.315 39.173 142.119 38.9771L108.43 1.17519C108.234 0.979325 107.843 0.78346 107.647 0.587595C107.451 0.587595 107.451 0.39173 107.255 0.39173C106.863 0.195865 106.276 0 105.688 0H23.0331C10.8895 0 0.900391 9.98912 0.900391 22.1328V157.867C0.900391 170.011 10.8895 180 23.0331 180H120.966C133.109 180 143.098 170.011 143.098 157.867V41.3275C143.098 40.9358 142.903 40.3482 142.903 39.9565ZM109.41 13.3188L131.151 37.802H109.41V13.3188ZM135.656 157.671C135.656 165.898 129.192 172.557 120.966 172.557H23.0331C14.8068 172.557 8.34326 165.898 8.34326 157.867V21.9369C8.34326 13.7106 15.0027 7.24701 23.0331 7.24701H101.967V41.3275C101.967 43.2862 103.534 45.049 105.688 45.049H135.656V157.671Z" fill="#5E96C5"/>
    <path d="M27.3425 45.0491H60.052C62.0106 45.0491 63.7734 43.4822 63.7734 41.3276C63.7734 39.1731 62.2065 37.6062 60.052 37.6062H27.3425C25.3839 37.6062 23.6211 39.1731 23.6211 41.3276C23.6211 43.4822 25.3839 45.0491 27.3425 45.0491Z" fill="#5E96C5"/>
    <path d="M60.052 134.951H27.3425C25.3839 134.951 23.6211 136.518 23.6211 138.673C23.6211 140.631 25.188 142.394 27.3425 142.394H60.052C62.0106 142.394 63.7734 140.827 63.7734 138.673C63.7734 136.714 62.0106 134.951 60.052 134.951Z" fill="#5E96C5"/>
    <path d="M23.6211 66.0066C23.6211 67.9652 25.188 69.728 27.3425 69.728H114.698C116.657 69.728 118.42 68.1611 118.42 66.0066C118.42 64.0479 116.853 62.2852 114.698 62.2852H27.3425C25.3839 62.2852 23.6211 63.8521 23.6211 66.0066Z" fill="#5E96C5"/>
    <path d="M114.698 80.6963H27.3425C25.3839 80.6963 23.6211 82.2632 23.6211 84.4177C23.6211 86.3764 25.188 88.1392 27.3425 88.1392H114.698C116.657 88.1392 118.42 86.5722 118.42 84.4177C118.42 82.2632 116.853 80.6963 114.698 80.6963Z" fill="#5E96C5"/>
    <path d="M114.698 98.9121H27.3425C25.3839 98.9121 23.6211 100.479 23.6211 102.634C23.6211 104.592 25.188 106.355 27.3425 106.355H114.698C116.657 106.355 118.42 104.788 118.42 102.634C118.42 100.479 116.853 98.9121 114.698 98.9121Z" fill="#5E96C5"/>
    <path d="M114.698 117.127H27.3425C25.3839 117.127 23.6211 118.694 23.6211 120.849C23.6211 122.808 25.188 124.57 27.3425 124.57H114.698C116.657 124.57 118.42 123.003 118.42 120.849C118.42 118.89 116.853 117.127 114.698 117.127Z" fill="#5E96C5"/>
  </symbol>
</svg>
