<svg width="606" height="617" viewBox="0 0 606 617" fill="none" xmlns="http://www.w3.org/2000/svg">
<g opacity="0.2">
<path d="M268.282 180.923C266.356 182.035 263.891 181.375 262.779 179.448C261.667 177.522 262.328 175.058 264.254 173.945C266.18 172.833 268.645 173.494 269.757 175.42C270.856 177.325 270.208 179.811 268.282 180.923Z" fill="url(#paint0_linear_3:367)"/>
<path d="M186.838 222.494L187.505 223.65L264.556 179.165L263.889 178.009L186.838 222.494Z" fill="url(#paint1_linear_3:367)"/>
<path d="M264.77 393.956C262.844 395.068 260.38 394.408 259.268 392.482C258.155 390.555 258.816 388.091 260.742 386.979C262.668 385.867 265.133 386.527 266.245 388.453C267.357 390.38 266.697 392.844 264.77 393.956Z" fill="url(#paint2_linear_3:367)"/>
<path d="M183.338 435.549L184.005 436.705L261.078 392.207L260.411 391.051L183.338 435.549Z" fill="url(#paint3_linear_3:367)"/>
<path d="M157.74 397.934C155.814 399.046 153.349 398.385 152.237 396.459C151.125 394.533 151.785 392.068 153.711 390.956C155.638 389.844 158.102 390.504 159.214 392.431C160.326 394.357 159.666 396.821 157.74 397.934Z" fill="url(#paint4_linear_3:367)"/>
<path d="M76.2952 439.505L76.9625 440.661L154.014 396.175L153.346 395.019L76.2952 439.505Z" fill="url(#paint5_linear_3:367)"/>
<path d="M155.323 352.87C153.397 353.982 150.932 353.322 149.82 351.395C148.708 349.469 149.368 347.005 151.294 345.893C153.221 344.78 155.685 345.441 156.797 347.367C157.919 349.26 157.271 351.745 155.323 352.87Z" fill="url(#paint6_linear_3:367)"/>
<path d="M73.8997 394.429L74.567 395.585L151.639 351.087L150.972 349.931L73.8997 394.429Z" fill="url(#paint7_linear_3:367)"/>
<path d="M321.466 181.152C319.539 182.264 317.075 181.604 315.963 179.677C314.851 177.751 315.511 175.287 317.437 174.175C319.364 173.062 321.828 173.723 322.94 175.649C324.052 177.575 323.392 180.04 321.466 181.152Z" fill="url(#paint8_linear_3:367)"/>
<path d="M240.021 222.723L240.688 223.879L317.739 179.394L317.072 178.238L240.021 222.723Z" fill="url(#paint9_linear_3:367)"/>
<path d="M65.8773 256.716C63.951 257.828 61.4865 257.168 60.3744 255.242C59.2622 253.315 59.9226 250.851 61.8489 249.739C63.7751 248.626 66.2396 249.287 67.3518 251.213C68.4639 253.139 67.8035 255.604 65.8773 256.716Z" fill="url(#paint10_linear_3:367)"/>
<path d="M-15.5335 298.297L-14.8663 299.452L62.1848 254.967L61.5176 253.811L-15.5335 298.297Z" fill="url(#paint11_linear_3:367)"/>
<path d="M118.047 354.986C116.121 356.098 113.657 355.437 112.544 353.511C111.432 351.585 112.093 349.12 114.019 348.008C115.945 346.896 118.41 347.556 119.522 349.483C120.634 351.409 119.974 353.873 118.047 354.986Z" fill="url(#paint12_linear_3:367)"/>
<path d="M75.1497 374.302L75.817 375.458L114.343 353.215L113.675 352.059L75.1497 374.302Z" fill="url(#paint13_linear_3:367)"/>
<path d="M235.774 111.568C233.848 112.68 231.383 112.02 230.271 110.093C229.159 108.167 229.819 105.703 231.746 104.59C233.672 103.478 236.136 104.139 237.248 106.065C238.348 107.97 237.7 110.456 235.774 111.568Z" fill="url(#paint14_linear_3:367)"/>
<path d="M192.855 130.896L193.522 132.052L232.048 109.809L231.38 108.654L192.855 130.896Z" fill="url(#paint15_linear_3:367)"/>
<path d="M109.92 515.292C107.994 516.404 105.53 515.744 104.417 513.818C103.305 511.892 103.966 509.427 105.892 508.315C107.818 507.203 110.283 507.863 111.395 509.789C112.495 511.694 111.847 514.18 109.92 515.292Z" fill="url(#paint16_linear_3:367)"/>
<path d="M67.0227 534.609L67.6899 535.764L106.215 513.522L105.548 512.366L67.0227 534.609Z" fill="url(#paint17_linear_3:367)"/>
<path d="M147.516 430.148C145.59 431.26 143.125 430.6 142.013 428.673C140.901 426.747 141.561 424.283 143.488 423.17C145.414 422.058 147.878 422.719 148.99 424.645C150.103 426.571 149.442 429.036 147.516 430.148Z" fill="url(#paint18_linear_3:367)"/>
<path d="M104.597 449.476L105.264 450.632L143.79 428.389L143.122 427.234L104.597 449.476Z" fill="url(#paint19_linear_3:367)"/>
<path d="M29.0148 348.172C27.0886 349.284 24.6241 348.624 23.5119 346.697C22.3998 344.771 23.0601 342.307 24.9864 341.195C26.9127 340.082 29.3772 340.743 30.4893 342.669C31.6105 344.562 30.9411 347.06 29.0148 348.172Z" fill="url(#paint20_linear_3:367)"/>
<path d="M-13.8828 367.488L-13.2155 368.644L25.31 346.401L24.6428 345.246L-13.8828 367.488Z" fill="url(#paint21_linear_3:367)"/>
<path d="M338.984 233.934C337.057 235.047 334.593 234.386 333.481 232.46C332.369 230.534 333.029 228.069 334.955 226.957C336.881 225.845 339.346 226.505 340.458 228.432C341.57 230.358 340.91 232.822 338.984 233.934Z" fill="url(#paint22_linear_3:367)"/>
<path d="M257.551 275.527L258.219 276.683L335.291 232.185L334.624 231.029L257.551 275.527Z" fill="url(#paint23_linear_3:367)"/>
<path d="M267.819 432.748C265.892 433.86 263.428 433.2 262.316 431.274C261.204 429.347 261.864 426.883 263.79 425.771C265.717 424.658 268.181 425.319 269.293 427.245C270.405 429.171 269.745 431.636 267.819 432.748Z" fill="url(#paint24_linear_3:367)"/>
<path d="M186.395 474.307L187.063 475.463L264.114 430.977L263.447 429.822L186.395 474.307Z" fill="url(#paint25_linear_3:367)"/>
<path d="M240.115 157.147C238.189 158.259 235.725 157.599 234.612 155.673C233.5 153.746 234.161 151.282 236.087 150.17C238.013 149.058 240.478 149.718 241.59 151.644C242.723 153.558 242.063 156.023 240.115 157.147Z" fill="url(#paint26_linear_3:367)"/>
<path d="M158.704 198.727L159.372 199.883L236.444 155.385L235.777 154.23L158.704 198.727Z" fill="url(#paint27_linear_3:367)"/>
<path d="M281.691 519.797C279.765 520.909 277.3 520.249 276.188 518.322C275.076 516.396 275.736 513.932 277.663 512.82C279.589 511.707 282.054 512.368 283.166 514.294C284.278 516.22 283.617 518.685 281.691 519.797Z" fill="url(#paint28_linear_3:367)"/>
<path d="M200.259 561.39L200.926 562.546L277.999 518.048L277.331 516.892L200.259 561.39Z" fill="url(#paint29_linear_3:367)"/>
<path d="M531.34 213.199C529.413 214.311 526.949 213.65 525.837 211.724C524.725 209.798 525.385 207.333 527.311 206.221C529.238 205.109 531.702 205.769 532.814 207.696C533.948 209.61 533.266 212.086 531.34 213.199Z" fill="url(#paint30_linear_3:367)"/>
<path d="M261.09 363.806L261.757 364.961L527.647 211.449L526.98 210.294L261.09 363.806Z" fill="url(#paint31_linear_3:367)"/>
<path d="M562.873 300.439C560.947 301.551 558.482 300.89 557.37 298.964C556.258 297.038 556.919 294.573 558.845 293.461C560.771 292.349 563.236 293.009 564.348 294.936C565.481 296.85 564.821 299.314 562.873 300.439Z" fill="url(#paint32_linear_3:367)"/>
<path d="M150.387 533.137L151.054 534.293L559.19 298.656L558.523 297.5L150.387 533.137Z" fill="url(#paint33_linear_3:367)"/>
<path d="M293.688 153.156C291.761 154.268 289.297 153.608 288.185 151.682C287.073 149.755 287.733 147.291 289.659 146.179C291.585 145.067 294.05 145.727 295.162 147.653C296.274 149.58 295.614 152.044 293.688 153.156Z" fill="url(#paint34_linear_3:367)"/>
<path d="M23.4373 303.763L24.1046 304.919L289.995 151.407L289.328 150.251L23.4373 303.763Z" fill="url(#paint35_linear_3:367)"/>
<path d="M425.876 202.145C423.95 203.257 421.486 202.597 420.373 200.67C419.261 198.744 419.922 196.28 421.848 195.168C423.774 194.055 426.239 194.716 427.351 196.642C428.484 198.556 427.803 201.033 425.876 202.145Z" fill="url(#paint36_linear_3:367)"/>
<path d="M155.635 352.718L156.302 353.874L422.193 200.362L421.526 199.206L155.635 352.718Z" fill="url(#paint37_linear_3:367)"/>
<path d="M486.577 356.76C484.65 357.872 482.186 357.211 481.074 355.285C479.962 353.359 480.622 350.894 482.548 349.782C484.475 348.67 486.939 349.33 488.051 351.257C489.163 353.183 488.503 355.647 486.577 356.76Z" fill="url(#paint38_linear_3:367)"/>
<path d="M216.327 507.367L216.994 508.522L482.884 355.01L482.217 353.855L216.327 507.367Z" fill="url(#paint39_linear_3:367)"/>
<path d="M176.992 247.356C175.065 248.468 172.601 247.808 171.489 245.881C170.377 243.955 171.037 241.491 172.963 240.378C174.89 239.266 177.354 239.927 178.466 241.853C179.6 243.767 178.939 246.231 176.992 247.356Z" fill="url(#paint40_linear_3:367)"/>
<path d="M25.5162 329.36L26.1835 330.515L173.287 245.585L172.62 244.429L25.5162 329.36Z" fill="url(#paint41_linear_3:367)"/>
<path d="M344.965 357.387C343.039 358.499 340.574 357.839 339.462 355.913C338.35 353.986 339.011 351.522 340.937 350.41C342.863 349.297 345.328 349.958 346.44 351.884C347.552 353.81 346.891 356.275 344.965 357.387Z" fill="url(#paint42_linear_3:367)"/>
<path d="M193.49 439.391L194.157 440.547L341.26 355.616L340.593 354.461L193.49 439.391Z" fill="url(#paint43_linear_3:367)"/>
</g>
<defs>
<linearGradient id="paint0_linear_3:367" x1="246.616" y1="188.76" x2="185.977" y2="223.77" gradientUnits="userSpaceOnUse">
<stop stop-color="#A4FFFF"/>
<stop offset="1" stop-color="#A4FFFF" stop-opacity="0"/>
</linearGradient>
<linearGradient id="paint1_linear_3:367" x1="246.614" y1="188.758" x2="185.977" y2="223.767" gradientUnits="userSpaceOnUse">
<stop stop-color="#A4FFFF"/>
<stop offset="1" stop-color="#A4FFFF" stop-opacity="0"/>
</linearGradient>
<linearGradient id="paint2_linear_3:367" x1="243.112" y1="401.81" x2="182.455" y2="436.83" gradientUnits="userSpaceOnUse">
<stop stop-color="#A4FFFF"/>
<stop offset="1" stop-color="#A4FFFF" stop-opacity="0"/>
</linearGradient>
<linearGradient id="paint3_linear_3:367" x1="243.119" y1="401.806" x2="182.478" y2="436.817" gradientUnits="userSpaceOnUse">
<stop stop-color="#A4FFFF"/>
<stop offset="1" stop-color="#A4FFFF" stop-opacity="0"/>
</linearGradient>
<linearGradient id="paint4_linear_3:367" x1="136.081" y1="405.768" x2="75.4418" y2="440.778" gradientUnits="userSpaceOnUse">
<stop stop-color="#A4FFFF"/>
<stop offset="1" stop-color="#A4FFFF" stop-opacity="0"/>
</linearGradient>
<linearGradient id="paint5_linear_3:367" x1="136.08" y1="405.769" x2="75.4427" y2="440.778" gradientUnits="userSpaceOnUse">
<stop stop-color="#A4FFFF"/>
<stop offset="1" stop-color="#A4FFFF" stop-opacity="0"/>
</linearGradient>
<linearGradient id="paint6_linear_3:367" x1="133.671" y1="360.697" x2="73.0306" y2="395.708" gradientUnits="userSpaceOnUse">
<stop stop-color="#A4FFFF"/>
<stop offset="1" stop-color="#A4FFFF" stop-opacity="0"/>
</linearGradient>
<linearGradient id="paint7_linear_3:367" x1="133.672" y1="360.696" x2="73.0335" y2="395.706" gradientUnits="userSpaceOnUse">
<stop stop-color="#A4FFFF"/>
<stop offset="1" stop-color="#A4FFFF" stop-opacity="0"/>
</linearGradient>
<linearGradient id="paint8_linear_3:367" x1="299.81" y1="188.987" x2="239.187" y2="223.987" gradientUnits="userSpaceOnUse">
<stop stop-color="#A4FFFF"/>
<stop offset="1" stop-color="#A4FFFF" stop-opacity="0"/>
</linearGradient>
<linearGradient id="paint9_linear_3:367" x1="299.804" y1="188.989" x2="239.166" y2="223.998" gradientUnits="userSpaceOnUse">
<stop stop-color="#A4FFFF"/>
<stop offset="1" stop-color="#A4FFFF" stop-opacity="0"/>
</linearGradient>
<linearGradient id="paint10_linear_3:367" x1="44.2278" y1="264.563" x2="-16.411" y2="299.572" gradientUnits="userSpaceOnUse">
<stop stop-color="#A4FFFF"/>
<stop offset="1" stop-color="#A4FFFF" stop-opacity="0"/>
</linearGradient>
<linearGradient id="paint11_linear_3:367" x1="44.227" y1="264.564" x2="-16.41" y2="299.573" gradientUnits="userSpaceOnUse">
<stop stop-color="#A4FFFF"/>
<stop offset="1" stop-color="#A4FFFF" stop-opacity="0"/>
</linearGradient>
<linearGradient id="paint12_linear_3:367" x1="96.3957" y1="362.821" x2="35.7569" y2="397.831" gradientUnits="userSpaceOnUse">
<stop stop-color="#A4FFFF"/>
<stop offset="1" stop-color="#A4FFFF" stop-opacity="0"/>
</linearGradient>
<linearGradient id="paint13_linear_3:367" x1="105.208" y1="357.732" x2="74.8886" y2="375.237" gradientUnits="userSpaceOnUse">
<stop stop-color="#A4FFFF"/>
<stop offset="1" stop-color="#A4FFFF" stop-opacity="0"/>
</linearGradient>
<linearGradient id="paint14_linear_3:367" x1="214.107" y1="119.404" x2="153.468" y2="154.414" gradientUnits="userSpaceOnUse">
<stop stop-color="#A4FFFF"/>
<stop offset="1" stop-color="#A4FFFF" stop-opacity="0"/>
</linearGradient>
<linearGradient id="paint15_linear_3:367" x1="222.92" y1="114.316" x2="192.601" y2="131.821" gradientUnits="userSpaceOnUse">
<stop stop-color="#A4FFFF"/>
<stop offset="1" stop-color="#A4FFFF" stop-opacity="0"/>
</linearGradient>
<linearGradient id="paint16_linear_3:367" x1="88.2636" y1="523.121" x2="27.6246" y2="558.131" gradientUnits="userSpaceOnUse">
<stop stop-color="#A4FFFF"/>
<stop offset="1" stop-color="#A4FFFF" stop-opacity="0"/>
</linearGradient>
<linearGradient id="paint17_linear_3:367" x1="97.077" y1="518.034" x2="66.7576" y2="535.538" gradientUnits="userSpaceOnUse">
<stop stop-color="#A4FFFF"/>
<stop offset="1" stop-color="#A4FFFF" stop-opacity="0"/>
</linearGradient>
<linearGradient id="paint18_linear_3:367" x1="125.844" y1="437.989" x2="65.1869" y2="473.01" gradientUnits="userSpaceOnUse">
<stop stop-color="#A4FFFF"/>
<stop offset="1" stop-color="#A4FFFF" stop-opacity="0"/>
</linearGradient>
<linearGradient id="paint19_linear_3:367" x1="134.664" y1="432.897" x2="104.345" y2="450.402" gradientUnits="userSpaceOnUse">
<stop stop-color="#A4FFFF"/>
<stop offset="1" stop-color="#A4FFFF" stop-opacity="0"/>
</linearGradient>
<linearGradient id="paint20_linear_3:367" x1="7.36038" y1="356" x2="-53.2786" y2="391.01" gradientUnits="userSpaceOnUse">
<stop stop-color="#A4FFFF"/>
<stop offset="1" stop-color="#A4FFFF" stop-opacity="0"/>
</linearGradient>
<linearGradient id="paint21_linear_3:367" x1="16.1712" y1="350.911" x2="-14.145" y2="368.414" gradientUnits="userSpaceOnUse">
<stop stop-color="#A4FFFF"/>
<stop offset="1" stop-color="#A4FFFF" stop-opacity="0"/>
</linearGradient>
<linearGradient id="paint22_linear_3:367" x1="317.327" y1="241.774" x2="256.688" y2="276.784" gradientUnits="userSpaceOnUse">
<stop stop-color="#A4FFFF"/>
<stop offset="1" stop-color="#A4FFFF" stop-opacity="0"/>
</linearGradient>
<linearGradient id="paint23_linear_3:367" x1="317.328" y1="241.775" x2="256.69" y2="276.784" gradientUnits="userSpaceOnUse">
<stop stop-color="#A4FFFF"/>
<stop offset="1" stop-color="#A4FFFF" stop-opacity="0"/>
</linearGradient>
<linearGradient id="paint24_linear_3:367" x1="246.162" y1="440.585" x2="185.523" y2="475.595" gradientUnits="userSpaceOnUse">
<stop stop-color="#A4FFFF"/>
<stop offset="1" stop-color="#A4FFFF" stop-opacity="0"/>
</linearGradient>
<linearGradient id="paint25_linear_3:367" x1="246.163" y1="440.585" x2="185.526" y2="475.594" gradientUnits="userSpaceOnUse">
<stop stop-color="#A4FFFF"/>
<stop offset="1" stop-color="#A4FFFF" stop-opacity="0"/>
</linearGradient>
<linearGradient id="paint26_linear_3:367" x1="218.466" y1="164.988" x2="157.809" y2="200.008" gradientUnits="userSpaceOnUse">
<stop stop-color="#A4FFFF"/>
<stop offset="1" stop-color="#A4FFFF" stop-opacity="0"/>
</linearGradient>
<linearGradient id="paint27_linear_3:367" x1="218.471" y1="164.983" x2="157.833" y2="199.992" gradientUnits="userSpaceOnUse">
<stop stop-color="#A4FFFF"/>
<stop offset="1" stop-color="#A4FFFF" stop-opacity="0"/>
</linearGradient>
<linearGradient id="paint28_linear_3:367" x1="260.028" y1="527.643" x2="199.389" y2="562.653" gradientUnits="userSpaceOnUse">
<stop stop-color="#A4FFFF"/>
<stop offset="1" stop-color="#A4FFFF" stop-opacity="0"/>
</linearGradient>
<linearGradient id="paint29_linear_3:367" x1="260.028" y1="527.642" x2="199.39" y2="562.652" gradientUnits="userSpaceOnUse">
<stop stop-color="#A4FFFF"/>
<stop offset="1" stop-color="#A4FFFF" stop-opacity="0"/>
</linearGradient>
<linearGradient id="paint30_linear_3:367" x1="495.126" y1="229.445" x2="387.134" y2="291.795" gradientUnits="userSpaceOnUse">
<stop stop-color="#A4FFFF"/>
<stop offset="1" stop-color="#A4FFFF" stop-opacity="0"/>
</linearGradient>
<linearGradient id="paint31_linear_3:367" x1="468.103" y1="245.045" x2="269.447" y2="359.74" gradientUnits="userSpaceOnUse">
<stop stop-color="#A4FFFF"/>
<stop offset="1" stop-color="#A4FFFF" stop-opacity="0"/>
</linearGradient>
<linearGradient id="paint32_linear_3:367" x1="526.662" y1="316.678" x2="418.669" y2="379.027" gradientUnits="userSpaceOnUse">
<stop stop-color="#A4FFFF"/>
<stop offset="1" stop-color="#A4FFFF" stop-opacity="0"/>
</linearGradient>
<linearGradient id="paint33_linear_3:367" x1="467.963" y1="350.566" x2="163.034" y2="526.617" gradientUnits="userSpaceOnUse">
<stop stop-color="#A4FFFF"/>
<stop offset="1" stop-color="#A4FFFF" stop-opacity="0"/>
</linearGradient>
<linearGradient id="paint34_linear_3:367" x1="257.475" y1="169.414" x2="149.483" y2="231.764" gradientUnits="userSpaceOnUse">
<stop stop-color="#A4FFFF"/>
<stop offset="1" stop-color="#A4FFFF" stop-opacity="0"/>
</linearGradient>
<linearGradient id="paint35_linear_3:367" x1="230.452" y1="185.014" x2="31.7964" y2="299.708" gradientUnits="userSpaceOnUse">
<stop stop-color="#A4FFFF"/>
<stop offset="1" stop-color="#A4FFFF" stop-opacity="0"/>
</linearGradient>
<linearGradient id="paint36_linear_3:367" x1="389.66" y1="218.386" x2="281.668" y2="280.736" gradientUnits="userSpaceOnUse">
<stop stop-color="#A4FFFF"/>
<stop offset="1" stop-color="#A4FFFF" stop-opacity="0"/>
</linearGradient>
<linearGradient id="paint37_linear_3:367" x1="362.635" y1="233.988" x2="163.981" y2="348.681" gradientUnits="userSpaceOnUse">
<stop stop-color="#A4FFFF"/>
<stop offset="1" stop-color="#A4FFFF" stop-opacity="0"/>
</linearGradient>
<linearGradient id="paint38_linear_3:367" x1="450.36" y1="373.009" x2="342.368" y2="435.359" gradientUnits="userSpaceOnUse">
<stop stop-color="#A4FFFF"/>
<stop offset="1" stop-color="#A4FFFF" stop-opacity="0"/>
</linearGradient>
<linearGradient id="paint39_linear_3:367" x1="423.338" y1="388.611" x2="224.683" y2="503.304" gradientUnits="userSpaceOnUse">
<stop stop-color="#A4FFFF"/>
<stop offset="1" stop-color="#A4FFFF" stop-opacity="0"/>
</linearGradient>
<linearGradient id="paint40_linear_3:367" x1="140.77" y1="263.604" x2="32.7441" y2="325.973" gradientUnits="userSpaceOnUse">
<stop stop-color="#A4FFFF"/>
<stop offset="1" stop-color="#A4FFFF" stop-opacity="0"/>
</linearGradient>
<linearGradient id="paint41_linear_3:367" x1="140.211" y1="263.927" x2="30.2989" y2="327.384" gradientUnits="userSpaceOnUse">
<stop stop-color="#A4FFFF"/>
<stop offset="1" stop-color="#A4FFFF" stop-opacity="0"/>
</linearGradient>
<linearGradient id="paint42_linear_3:367" x1="308.747" y1="373.631" x2="200.787" y2="435.962" gradientUnits="userSpaceOnUse">
<stop stop-color="#A4FFFF"/>
<stop offset="1" stop-color="#A4FFFF" stop-opacity="0"/>
</linearGradient>
<linearGradient id="paint43_linear_3:367" x1="308.167" y1="373.966" x2="198.256" y2="437.423" gradientUnits="userSpaceOnUse">
<stop stop-color="#A4FFFF"/>
<stop offset="1" stop-color="#A4FFFF" stop-opacity="0"/>
</linearGradient>
</defs>
</svg>
