<svg width="15" height="15" viewBox="0 0 15 15" fill="none" xmlns="http://www.w3.org/2000/svg">
<path d="M14.0568 4.7555C14.0258 4.05287 13.9122 3.56982 13.7494 3.15125C13.5815 2.70695 13.3231 2.30916 12.9846 1.97848C12.6538 1.64266 12.2533 1.38171 11.8141 1.21642C11.393 1.05365 10.9124 0.940028 10.2096 0.909049C9.50163 0.875446 9.27686 0.867676 7.48114 0.867676C5.68542 0.867676 5.46066 0.875446 4.75527 0.906425C4.0525 0.937404 3.56936 1.05113 3.15081 1.21379C2.70632 1.38171 2.30846 1.64003 1.97772 1.97848C1.64183 2.30916 1.38093 2.70957 1.21551 3.14873C1.05271 3.56982 0.939065 4.05025 0.90808 4.75288C0.874471 5.46076 0.866699 5.68548 0.866699 7.48086C0.866699 9.27623 0.874471 9.50096 0.905456 10.2062C0.936441 10.9088 1.05019 11.3919 1.21298 11.8105C1.38093 12.2548 1.64183 12.6526 1.97772 12.9832C2.30846 13.3191 2.70895 13.58 3.14819 13.7453C3.56936 13.9081 4.04988 14.0217 4.75275 14.0527C5.45803 14.0837 5.6829 14.0914 7.47862 14.0914C9.27434 14.0914 9.49911 14.0837 10.2045 14.0527C10.9073 14.0217 11.3904 13.9081 11.809 13.7453C12.6978 13.4017 13.4006 12.6991 13.7443 11.8105C13.907 11.3894 14.0207 10.9088 14.0517 10.2062C14.0827 9.50096 14.0904 9.27623 14.0904 7.48086C14.0904 5.68548 14.0878 5.46076 14.0568 4.7555ZM12.8658 10.1545C12.8373 10.8004 12.7288 11.1491 12.6384 11.3816C12.4161 11.9577 11.9588 12.4149 11.3826 12.6371C11.1501 12.7275 10.7988 12.836 10.1553 12.8644C9.45772 12.8954 9.2485 12.9031 7.48377 12.9031C5.71903 12.9031 5.50719 12.8954 4.81209 12.8644C4.16615 12.836 3.81734 12.7275 3.5848 12.6371C3.29806 12.5312 3.03706 12.3632 2.82521 12.1437C2.60559 11.9292 2.43765 11.6709 2.33167 11.3842C2.24124 11.1517 2.13275 10.8004 2.10438 10.1572C2.0733 9.45969 2.06563 9.2504 2.06563 7.486C2.06563 5.72161 2.0733 5.5098 2.10438 4.81494C2.13275 4.16912 2.24124 3.82038 2.33167 3.58788C2.43765 3.3011 2.60559 3.04025 2.82784 2.82834C3.04221 2.60876 3.30059 2.44085 3.58743 2.335C3.81997 2.24458 4.1714 2.1361 4.81472 2.10765C5.51233 2.07667 5.72166 2.0689 7.48629 2.0689C9.25365 2.0689 9.46287 2.07667 10.158 2.10765C10.8039 2.1361 11.1527 2.24458 11.3853 2.335C11.672 2.44085 11.933 2.60876 12.1448 2.82834C12.3645 3.04277 12.5324 3.3011 12.6384 3.58788C12.7288 3.82038 12.8373 4.17164 12.8658 4.81494C12.8968 5.51242 12.9045 5.72161 12.9045 7.486C12.9045 9.2504 12.8968 9.45706 12.8658 10.1545Z" fill="white" fill-opacity="0.7"/>
<path d="M7.48176 4.08398C5.60601 4.08398 4.08411 5.60549 4.08411 7.48099C4.08411 9.35649 5.60601 10.878 7.48176 10.878C9.35762 10.878 10.8794 9.35649 10.8794 7.48099C10.8794 5.60549 9.35762 4.08398 7.48176 4.08398ZM7.48176 9.68454C6.26487 9.68454 5.27779 8.69775 5.27779 7.48099C5.27779 6.26423 6.26487 5.27744 7.48176 5.27744C8.69876 5.27744 9.68573 6.26423 9.68573 7.48099C9.68573 8.69775 8.69876 9.68454 7.48176 9.68454Z" fill="white" fill-opacity="0.7"/>
<path d="M11.8051 3.9493C11.8051 4.38724 11.4499 4.74234 11.0117 4.74234C10.5736 4.74234 10.2184 4.38724 10.2184 3.9493C10.2184 3.51125 10.5736 3.15625 11.0117 3.15625C11.4499 3.15625 11.8051 3.51125 11.8051 3.9493Z" fill="white" fill-opacity="0.7"/>
</svg>
