<svg width="14" height="11" viewBox="0 0 14 11" fill="none" xmlns="http://www.w3.org/2000/svg">
<path d="M13.4343 1.28105C12.9654 1.48357 12.4658 1.6178 11.9449 1.68298C12.4807 1.36796 12.8897 0.872921 13.082 0.276238C12.5824 0.569536 12.0308 0.776707 11.4429 0.892319C10.9685 0.394954 10.2923 0.0869141 9.55472 0.0869141C8.12363 0.0869141 6.97151 1.23062 6.97151 2.63271C6.97151 2.83445 6.98885 3.02843 7.0314 3.21309C4.88241 3.1099 2.98086 2.09577 1.70344 0.550914C1.48043 0.931891 1.34961 1.36796 1.34961 1.83739C1.34961 2.71883 1.81062 3.50019 2.49779 3.95255C2.08249 3.94479 1.67507 3.82607 1.32991 3.63908C1.32991 3.64683 1.32991 3.65692 1.32991 3.66701C1.32991 4.90382 2.22591 5.93114 3.40089 6.1678C3.19048 6.22444 2.96116 6.2516 2.72317 6.2516C2.55768 6.2516 2.39062 6.24229 2.2338 6.20815C2.56871 7.21606 3.51909 7.95707 4.64915 7.98112C3.76969 8.6585 2.65303 9.06663 1.44418 9.06663C1.23219 9.06663 1.02888 9.05732 0.825562 9.03172C1.97059 9.75875 3.3276 10.1739 4.791 10.1739C9.54763 10.1739 12.1482 6.29427 12.1482 2.93144C12.1482 2.81893 12.1442 2.7103 12.1387 2.60245C12.6517 2.24397 13.0828 1.79627 13.4343 1.28105Z" fill="white" fill-opacity="0.7"/>
</svg>
