<svg width="19" height="19" viewBox="0 0 19 19" fill="none" xmlns="http://www.w3.org/2000/svg">
<path d="M13.4291 14.5982C11.558 16.0903 9.44879 16.6875 7.09876 16.2892C5.1474 15.9583 3.54102 14.9885 2.30939 13.4295C-0.373398 10.033 0.236303 5.35659 3.20295 2.68344C4.59203 1.42187 6.38586 0.704775 8.257 0.663061C10.1281 0.621346 11.9518 1.25779 13.3951 2.45623C15.0552 3.83397 16.0109 5.62391 16.2188 7.78274C16.4266 9.94157 15.8057 11.8662 14.4418 13.5813C14.7554 13.8887 15.0722 14.1956 15.3853 14.5062C15.8212 14.9393 16.2554 15.3739 16.6881 15.8102C17.1665 16.2914 17.6449 16.7789 18.1297 17.2574C18.5103 17.6317 18.4487 18.2091 17.975 18.4593C17.7188 18.5951 17.3797 18.5785 17.0623 18.2545C16.2501 17.4258 15.4305 16.6052 14.6134 15.7819C14.2516 15.4172 13.8893 15.0535 13.5264 14.6907C13.4972 14.6623 13.4679 14.6351 13.4291 14.5982ZM8.42766 14.9484C11.936 14.9452 14.7974 12.0817 14.8032 8.54298C14.8091 5.01443 11.9493 2.12743 8.43245 2.12101C4.92414 2.11406 2.05371 5.00801 2.0569 8.53657C2.06009 12.0651 4.91458 14.9414 8.4282 14.9484H8.42766Z" fill="#9BA8AB"/>
</svg>
