<svg width="14" height="8" viewBox="0 0 14 8" fill="none" xmlns="http://www.w3.org/2000/svg">
<path fill-rule="evenodd" clip-rule="evenodd" d="M11.4955 4.88502C11.9036 5.28346 12.3343 5.65834 12.7004 6.09697C12.8621 6.29188 13.0151 6.49303 13.1322 6.71923C13.2982 7.04079 13.1479 7.39466 12.8596 7.41386L11.0672 7.41305C10.6049 7.45141 10.2362 7.2653 9.92608 6.94924C9.67793 6.69648 9.44813 6.42746 9.20951 6.16617C9.11169 6.05937 9.0093 5.95888 8.88698 5.87945C8.6423 5.72063 8.42992 5.76926 8.2901 6.02445C8.14769 6.284 8.11539 6.57141 8.10141 6.86067C8.08221 7.28272 7.95463 7.39368 7.53068 7.41301C6.62465 7.45573 5.76478 7.31866 4.96598 6.8616C4.26174 6.45867 3.71563 5.88984 3.2403 5.24587C2.31483 3.99192 1.6061 2.61403 0.969117 1.19754C0.825738 0.878403 0.930594 0.707092 1.28272 0.701029C1.86743 0.68967 2.45206 0.690479 3.03746 0.70022C3.27511 0.703697 3.43243 0.840002 3.52419 1.06451C3.84054 1.84236 4.22763 2.58242 4.71351 3.26839C4.8429 3.45102 4.97484 3.63365 5.16272 3.7622C5.37057 3.90452 5.52883 3.85735 5.62661 3.62581C5.68866 3.47899 5.71582 3.32086 5.72981 3.16362C5.77613 2.62264 5.78224 2.08259 5.70099 1.54352C5.65111 1.20708 5.46161 0.989283 5.1259 0.925617C4.95459 0.893158 4.98009 0.829411 5.06304 0.731629C5.20711 0.562986 5.3426 0.458008 5.61271 0.458008H7.63832C7.95722 0.520946 8.02804 0.664204 8.0717 0.985079L8.07343 3.23512C8.06996 3.35934 8.13548 3.72796 8.35922 3.81018C8.53829 3.86871 8.65633 3.72545 8.76377 3.6119C9.24876 3.09716 9.5949 2.48884 9.90413 1.85894C10.0414 1.58196 10.1594 1.29431 10.2737 1.00691C10.3584 0.793637 10.4914 0.6887 10.7316 0.693348L12.6812 0.695087C12.739 0.695087 12.7975 0.695936 12.8534 0.705516C13.182 0.761501 13.272 0.902819 13.1705 1.22361C13.0107 1.72692 12.6996 2.14634 12.3955 2.56771C12.0703 3.01757 11.7226 3.45203 11.4002 3.90456C11.104 4.3178 11.1275 4.5261 11.4955 4.88502Z" fill="white" fill-opacity="0.7"/>
</svg>
